<svg xmlns="http://www.w3.org/2000/svg" width="150" height="150" viewBox="0 0 39.687 39.688"><defs><linearGradient id="b"><stop offset="0" stop-color="#e6e6e6"/><stop offset="1" stop-color="#4a8b2b"/></linearGradient><linearGradient id="a"><stop offset="0" stop-color="#e6e6e6"/><stop offset="1" stop-color="gray"/></linearGradient></defs><path d="M27.482 17.108l2.303.542 1.152-1.762.948-2.1-2.168-1.151-1.422 1.151-.407 1.626z" fill="#3b6f22" stroke="#000" stroke-width=".61215404"/><path d="M28.498 13.517l-3.523-3.455c-1.818-2.186-3.327-4.427-7.316-3.32-5.342 3.209-6.736 3.591-6.639 9.485l1.694 1.287 7.52-.61 7.18-1.016z" fill="#3b6f22" stroke="#000" stroke-width=".61215404"/><path d="M11.353 12.984l.266-1.63 1.761-2.06 1.463-.831 1.795 1.163 3.39 1.097 2.028 1.097 2.128 2.327.831 1.23-.3.865-8.808-1.23z" opacity=".2" stroke="#000" stroke-width=".30607702"/><g stroke="#000" stroke-width="1.036"><path d="M14.317 14.334C8.944 12.34 5.086 9.82 2.97 4.974c4.211.913 10.726 4.383 11.63 8.897.018.2-.114.377-.283.463z" fill="#f9f9f9" stroke-width=".44856728"/><path d="M5.085 6.768l9.329 7.153" fill="none" stroke-width=".44856728"/></g><path d="M8.31 22.392l.339-1.423-2.845-3.861c.988-.904 1.952-1.847 2.955-2.726 1.846-.696 3.68-1.431 5.534-2.101l4.45-.864 2.913.949 2.71 2.98-.949 1.83c-1.36.126-2.728.208-4.084.363-1.017.301-2.061.555-3.062.886-.72.632-1.407 1.306-2.146 1.911l-3.511 1.988-2.304.068z" fill="#3b6f22" stroke="#000" stroke-width=".61215404"/><path d="M23.52 15.477l-2.261-2.427-2.693-.93-4.155.797-5.286 1.962-2.659 2.293.532.599 2.526-2.36 5.12-1.895 3.856-.798 2.393.798 2.327 2.692zM28.758 14.003l.235.799.95-.68 1.142.539.259-.564-1.739-.668z" fill="#fca"/><path d="M6.965 18.469l2.659-2.394 5.452-.764 2.127 1.03 2.26.964-3.19 1.064-1.862 1.762-3.557 2.028-2.393.066.265-1.363z" opacity=".2" stroke="#000" stroke-width=".30607702"/></svg>