<svg xmlns="http://www.w3.org/2000/svg" xmlns:xlink="http://www.w3.org/1999/xlink" width="150" height="150" viewBox="0 0 39.687 39.688"><defs><radialGradient xlink:href="#a" id="b" gradientUnits="userSpaceOnUse" gradientTransform="matrix(.62978 .91496 .95731 -.5675 184.794 205.524)" cx="-68.657" cy="-54.408" fx="-68.657" fy="-54.408" r="36.687"/><linearGradient id="a"><stop offset="0" stop-color="#e6e6e6"/><stop offset="1" stop-color="gray"/></linearGradient></defs><path d="M125.858 210.976c.121 5.137 8.86 17.069-1.437 15.904-34.147 7.453-63.984 5.112-77.173-24.436-.027-.324 4.34-1.702 5.445-3.316 2.465-3.604 2.955-9.397 3.246-14.428 3.055-8.927 7.188-16.803 16.25-22.559.895-.157 2.612-1.021 3.479-1.16 43.255-6.935 51.108 8.98 50.327 42.396-.156 2.53-.223 5.066-.137 7.6z" fill="url(#b)" stroke="#000" stroke-width="1.997" transform="matrix(.25549 0 0 .25549 -2.416 -33.636)"/><path d="M25.795 7.848c5.617 4.301 2.611 6.218 2.98 11.365.084.975.675 1.819.837 2.78-.909 1.52-13.4 1.721-16.41-1.289 7.099-2.68 14.544-3.357 12.593-12.856z" opacity=".2" stroke="#000" stroke-width=".2580449"/><path d="M19.73 7.578c-1.792-.07-3.733.596-4.777 1.909-.296.259-.902 1.156-.663 1.22 1.415-1.699 3.59-2.858 5.592-2.877.683-.07 0-.177-.153-.252z" fill="#fff"/></svg>