<svg xmlns="http://www.w3.org/2000/svg" width="150" height="150" viewBox="0 0 39.687 39.688"><defs><linearGradient id="b"><stop offset="0" stop-color="#e6e6e6"/><stop offset="1" stop-color="#4a8b2b"/></linearGradient><linearGradient id="a"><stop offset="0" stop-color="#e6e6e6"/><stop offset="1" stop-color="gray"/></linearGradient></defs><g stroke="#000" stroke-width="1.036"><path d="M22.2 9.85c4.293-1.593 7.378-3.607 9.069-7.481-3.366.73-8.574 3.504-9.296 7.112-.015.159.09.3.226.37z" fill="#f9f9f9" stroke-width=".35855960000000003"/><path d="M29.578 3.803l-7.456 5.718" fill="none" stroke-width=".35855960000000003"/></g><path d="M13.403 13.752l-1.841.433-.92-1.408-.759-1.679 1.733-.92 1.137.92.325 1.3z" fill="#3b6f22" stroke="#000" stroke-width=".48951883999999996"/><path d="M12.59 10.882c5.347-8.013 14.017-4.902 13.971 2.166l-1.353 1.029-6.011-.488-5.74-.812z" fill="#3b6f22" stroke="#000" stroke-width=".48951883999999996"/><path d="M26.296 10.455l-.213-1.302-1.408-1.647-1.17-.664-1.434.93-2.71.876-1.621.877-1.701 1.86-.664.983.239.691 7.041-.983z" opacity=".2" stroke="#000" stroke-width=".24475941999999998"/><path d="M29.936 16.119l1.184-5.994C26.804 6.569 18.657 8.653 9.81 9.85l-.954 4.09c8.514 3.467 14.98 3.882 21.08 2.178z" fill="#3b6f22" stroke="#000" stroke-width=".48951883999999996"/><path d="M9.964 10.332c9.23-1.47 18.064-2.693 20.626.017l-.036.737c-4.611-2.901-13.724-.544-20.74.004z" fill="#fca"/><path d="M30.966 11.032l-1.252 4.36c-2.315.568-4.67 1.137-7.067.773-2.46.024-4.923-.193-7.26-.994l-4.542-1.246c1.752-.877 3.314-2.788 5.495-2.083 2.89.277 5.807.874 8.706.643 1.983-.443 3.974-.863 5.92-1.453z" opacity=".2" stroke="#000" stroke-width=".21154572"/></svg>