<svg xmlns="http://www.w3.org/2000/svg" xmlns:xlink="http://www.w3.org/1999/xlink" width="150" height="150" viewBox="0 0 39.687 39.688"><defs><linearGradient id="b"><stop offset="0" stop-color="#ccc"/><stop offset="1" stop-color="#999"/></linearGradient><linearGradient id="a"><stop offset="0" stop-color="#ccc"/><stop offset="1" stop-color="#999"/></linearGradient><linearGradient xlink:href="#b" id="d" x1="86.125" y1="232.098" x2="84.45" y2="245.125" gradientUnits="userSpaceOnUse"/><radialGradient xlink:href="#a" id="c" cx="70.679" cy="164.336" fx="70.679" fy="164.336" r="41.227" gradientTransform="matrix(.30567 1.63698 -1.58461 .29585 309.484 5.626)" gradientUnits="userSpaceOnUse"/></defs><path d="M52.97 166.25l-4.138 12.414-4.89 16.176 1.317 11.285 2.82 9.78 3.386 8.464 67.524 1.129c20.631-58.397-29.163-76.77-66.019-59.248z" fill="url(#c)" stroke="#000" stroke-width=".988" transform="matrix(.25549 0 0 .25549 -2.416 -33.636)"/><path d="M25.837 10.585l-.51.477-4.09-1.712-1.385.088 1.455-.637 4.615 1.632z" opacity=".6" fill="#fff"/><path d="M119.019 220.371c4.387 2.296 6.095 5.931 7.553 9.69-33.259 17.23-64.306 10.12-84.203-.767 6.169-3.579 8.483-3.59 8.31-9.12 24.602 5.285 43.779 6.338 68.34.197z" fill="url(#d)" stroke="#000" stroke-width=".988" transform="matrix(.25549 0 0 .25549 -2.416 -33.636)"/><path d="M8.618 16.047c-1.471-3.268-.78-3.82 1.251-7.935 1.333-.651 2.349-.282 2.594.295-1.264 1.911-3.388 3.044-2.163 7.208z" fill="#ccc" stroke="#000" stroke-width=".25242412"/><path d="M8.618 16.095c1.327-2.532 3.03-.461 3.316 2.403v1.73c-1.996 2.623-3.08.08-3.7-1.826l.24-1.778z" fill="#999" stroke="#000" stroke-width=".25242412"/><path d="M10.588 18.113v1.298c-1.803.99-1.69-1.244-1.681-2.307.9-2.022 1.37-.27 1.681 1.01z" fill="none" stroke="#000" stroke-width=".25242412"/><path d="M11.027 22.005c.745.724-.763 2.134.408 2.513 1.92.438 3.83.969 5.813 1.05 3.365.223 6.748-.226 10-1.089 1.605-1.089 1.25-3.24 1.734-4.881.711-2.51-.055-5.173-1.277-7.392-1.24-.238-1.203 1.792-1.99 2.44-1.543 2.084-3.955 3.209-6.007 4.701-1.79 1.163-3.646 2.236-5.58 3.144-1.056.245-2.117-.131-3.101-.486z" opacity=".2" stroke="#000" stroke-width=".26468764"/></svg>