<svg xmlns="http://www.w3.org/2000/svg" xmlns:xlink="http://www.w3.org/1999/xlink" width="150" height="200" viewBox="0 0 39.687 52.917"><defs><linearGradient id="b"><stop offset="0" stop-color="#e6e6e6"/><stop offset="1" stop-color="#4a8b2b"/></linearGradient><linearGradient id="a"><stop offset="0" stop-color="#e6e6e6"/><stop offset="1" stop-color="gray"/></linearGradient><radialGradient xlink:href="#b" id="c" gradientUnits="userSpaceOnUse" gradientTransform="matrix(.62978 .91496 .95731 -.5675 182.007 164.1)" cx="-94.384" cy="-55.932" fx="-94.384" fy="-55.932" r="36.687"/></defs><g stroke="#000"><path d="M129.635 168.598c5.73 24.399-126.036-1.467-83.151-22.564 29.325-8.274 35.91-28.987 53.85-43.267 2.604-3.301 9.874-4.006 9.604 1.377-1.657 38.544 6.084 41.546 19.697 64.454z" fill="url(#c)" stroke-width="1.997" transform="matrix(.25549 0 0 .25549 -2.416 -20.406)"/><path d="M24.778 6.804c.806 1.282.048 7.392 1.128 8.43.95 2.85 4.027 5.105 4.29 7.997.085.975.005.873-.747.706.484 1.114-1.22.508-1.728.4-2.2-.904-16.487-1.137-17.904-3.962 5.522-3.387 12.339-8.158 14.961-13.57z" opacity=".2" stroke-width=".2580449"/><path d="M28.02 17.816l.69.819.366.56-1.487.647-2.285-.021-4.784-.62-3.255-.884-3.128-1.63-1.746-.798-.087-.41.712-.668.539-.344 1.38.883 4.033 1.695 3.018.82 4.374-.006 1.509.043z" fill="#a86531" stroke-width=".26468764"/><path d="M28.258 18.491c.155.565-1.774 1.006-2.258 1.05-1.347.191-2.674-.227-3.997-.415-2.207-.382-4.434-.804-6.497-1.707-.543-.166-1.101-.385-1.54-.751.328-.08.755.177 1.12.226 2.417.635 4.841 1.311 7.34 1.531 1.484.204 4.34.344 5.832.066z" opacity=".2" stroke-width=".26468764"/><path d="M14.113 15.128c.518-.392 1.153-.697 1.45-1.31.31-.51.7-.978.951-1.517l-.054-1.951c-.518.418-1.249.587-1.614 1.179-.324.627-.623 1.266-.938 1.897.067.529-.135 1.074.043 1.591.024.069.094.108.162.11z" fill="#f9f9f9" stroke-width=".16223615"/><path d="M16.03 11.257l-2.01 3.75" fill="none" stroke-width=".16223615"/></g></svg>