<svg xmlns="http://www.w3.org/2000/svg" width="500" height="500" viewBox="0 0 132.292 132.292"><defs><linearGradient id="b"><stop offset="0" stop-color="#fff"/><stop offset="1" stop-color="#b3b3b3"/></linearGradient><linearGradient id="a"><stop offset="0" stop-color="#4d4d4d"/><stop offset="1" stop-color="#ccc"/></linearGradient></defs><g stroke="#000"><path d="M46.886 68.852l9.405 1.89 19.451-7.946 2.256-10.378-1.49-.166-2.06 8.895-18.267 7.839-8.374-1.55z" fill="#deaa87" stroke-width=".5293059600000001"/><path d="M55.607 68.504l-.226 2.392.98.138.777-.37-.426-2.36-.451.354z" fill="#803300" stroke-width=".16867469999999998"/><path d="M73.66 61.305l.662-.121.169-.855 2.08.806-.603 1.876-.78.338zM63.47 65.605l.951 2.29 4.074-1.824-1.108-2.035z" fill="#803300" stroke-width=".26465298000000004"/><path d="M47.127 68.219l30.012-15.865" fill="none" stroke-width=".5293059600000001"/><path d="M76.373 52l-.104.585 1.803.253.13-.602zM46.566 68.938l.448.105 1.134-1.57-.31-.348z" fill="#a05a2c" stroke-width=".26465298000000004"/><path d="M47.128 68.288l8.543 2.01.845.002 18.053-7.569 1.052-.045L63.1 67.91l-6.793 2.731-9.37-1.812z" opacity=".2" stroke-width=".26465298000000004"/></g></svg>