<svg xmlns="http://www.w3.org/2000/svg" xmlns:xlink="http://www.w3.org/1999/xlink" width="150" height="150" viewBox="0 0 39.687 39.688"><defs><linearGradient id="g"><stop offset="0" stop-color="#ececec"/><stop offset="1" stop-color="#1a1a1a" stop-opacity="0"/></linearGradient><linearGradient id="f"><stop offset="0" stop-color="#d2d2d2"/><stop offset="1" stop-color="#999"/></linearGradient><linearGradient id="e"><stop offset="0" stop-color="#d2d2d2"/><stop offset="1" stop-color="#999"/></linearGradient><linearGradient id="d"><stop offset="0" stop-color="#d2d2d2"/><stop offset="1" stop-color="#b3b3b3"/></linearGradient><linearGradient id="c"><stop offset="0" stop-color="#d2d2d2"/><stop offset="1" stop-color="#b3b3b3"/></linearGradient><linearGradient id="b"><stop offset="0" stop-color="#d2d2d2"/><stop offset="1" stop-color="#b3b3b3"/></linearGradient><linearGradient id="a"><stop offset="0" stop-color="#d2d2d2"/><stop offset="1" stop-color="gray"/></linearGradient><linearGradient xlink:href="#g" id="m" x1="56.491" y1="205.753" x2="47.61" y2="224.501" gradientUnits="userSpaceOnUse" gradientTransform="translate(3.905)"/><radialGradient xlink:href="#a" id="k" cx="70.305" cy="165.358" fx="70.305" fy="165.358" r="31.424" gradientTransform="matrix(-.92841 1.262 -1.30934 -.96323 355.99 240.126)" gradientUnits="userSpaceOnUse"/><radialGradient xlink:href="#b" id="j" cx="102.209" cy="162.519" fx="102.209" fy="162.519" r="41.07" gradientTransform="matrix(-.1842 .68073 -.51853 -.1403 209.212 129.377)" gradientUnits="userSpaceOnUse"/><radialGradient xlink:href="#c" id="i" cx="104.841" cy="185.701" fx="104.841" fy="185.701" r="42.272" gradientTransform="matrix(-.28789 .6458 -.42546 -.18966 217.936 164.387)" gradientUnits="userSpaceOnUse"/><radialGradient xlink:href="#d" id="h" cx="105.499" cy="205.617" fx="105.499" fy="205.617" r="32.541" gradientTransform="matrix(-.33355 .65699 -.33322 -.16917 213.665 171.06)" gradientUnits="userSpaceOnUse"/><radialGradient xlink:href="#e" id="l" cx="56.491" cy="232.038" fx="56.491" fy="232.038" r="13.851" gradientTransform="matrix(-.2612 1.51973 -1.00526 -.17278 308.409 186.306)" gradientUnits="userSpaceOnUse"/><radialGradient xlink:href="#f" id="n" cx="46.953" cy="207.976" fx="46.953" fy="207.976" r="9.727" gradientTransform="matrix(.03382 1.01445 -.82735 .02758 221.337 155.347)" gradientUnits="userSpaceOnUse"/></defs><path d="M127.621 205.018l-1.394 4.779-17.225 10.754-11.949-5.576-30.966-1.295 12.546-9.06 33.754-6.473 13.542 3.684z" fill="url(#h)" stroke="#000" stroke-width="1.774" transform="matrix(.25549 0 0 .25549 -2.416 -33.636)"/><path d="M54.477 224.974l25.19-12.147 15.235-3.585 19.616-2.987 10.853 1.991 1.693 3.187 2.688-1.793.597-12.745-9.26-9.06-20.412 1.294-29.672 12.645-16.528 10.057-6.87 5.377.099 4.68 3.684 3.484z" fill="url(#i)" stroke="#000" stroke-width="1.774" transform="matrix(.25549 0 0 .25549 -2.416 -33.636)"/><path d="M126.665 192.912l.797-11.152-9.559-8.96-7.567-1.992-15.533.995-10.157 3.784-36.442 28.08-.996 6.87 4.978 2.489 18.82-11.252 29.671-12.645 20.412-1.295z" fill="url(#j)" stroke="#000" stroke-width="1.774" transform="matrix(.25549 0 0 .25549 -2.416 -33.636)"/><path d="M105.556 170.21c-30.106-28.334-66.283 3.733-60.738 22.503l3.386 10.953c12.453-9.589 24.247-20.259 37.61-28.524 6.056-2.908 12.662-4.054 19.31-3.708.594.004.983-.831.432-1.224z" fill="url(#k)" stroke="#000" stroke-width="1.774" transform="matrix(.25549 0 0 .25549 -2.416 -33.636)"/><path d="M63.22 219.108l-8.863 9.061-8.264 4.78 7.766 8.164 3.884 2.091 5.078.598 5.775-10.256 2.788-13.74-3.883-2.39-3.087.398z" fill="url(#l)" stroke="#000" stroke-width="1.774" transform="matrix(.25549 0 0 .25549 -2.416 -33.636)"/><path d="M56.966 221.688l5.974-3.684 1.394-6.273-1.394-8.662-5.875-1.892-5.078 1.593-5.874 4.381-3.087 4.979 2.589 6.67 2.09 3.087 3.685 3.485z" fill="url(#m)" stroke="#000" stroke-width="1.774" transform="matrix(.25549 0 0 .25549 -2.416 -33.636)"/><path d="M45.615 218.8c3.584.2 7.169.4 10.753.598l4.182-6.571-2.887-7.568c-2.54-.038-5.112-.192-7.631-.157l-6.01 3.94-.996 3.088 2.589 6.67z" fill="url(#n)" stroke="#000" stroke-width="1.774" transform="matrix(.25549 0 0 .25549 -2.416 -33.636)"/><path d="M13.434 18.091l8.992-4.621 5.966-.505 1.344.84-.252 1.345-1.008-.924-5.21.252-9.412 4.454z" fill="#1a1a1a" stroke="#000" stroke-width=".26468764"/><path d="M21.77 10.97l.356.642 4.631-.392 1.354.534-1.247-1.104-5.13.142zM15.985 7.565c1.053-.252 3.713-.674 6.582 1.113-2.013-1.13-4.903-.965-6.17-.538zM9.584 19.95l.428.712.855-.82.784-.035.534.748-.214-1.212-1.247-.106z" opacity=".6" fill="#fff"/></svg>