<svg xmlns="http://www.w3.org/2000/svg" width="500" height="500" viewBox="0 0 132.292 132.292"><path d="M52.542 20.042L59.196 9.25h12.59l8.453 2.877 3.777 3.777s.54 6.835.54 7.554c0 .72-1.44 7.913-1.799 8.453-.36.54-2.338 4.317-3.057 4.676-.72.36-4.856 2.158-4.856 2.158s-9.892 1.26-10.612 1.26c-.72 0-5.036-2.878-5.575-3.777-.54-.9-1.08-11.511-.36-11.69.72-.18 1.799-2.879 1.799-2.879l4.316-2.697 5.755-1.08 1.979 1.08 1.798 6.474-.36 3.418-3.417.719 3.597-.72.36-4.856-2.338-5.575-3.597-.72-6.115 2.698-4.317 5.036.36 7.734 1.439 4.856-4.317 14.388-2.877 21.403.9 23.74 2.157 13.31 2.02 4.186-1.286 12.824-7.226-.088-1.247-7.23-.714-7.714.54-17.086-1.26-15.467 3.778-16.367-.18-15.288-.9-17.086z" fill="#d38d5f" stroke="#000" stroke-width="1.346"/><path d="M77.743 14.693l1.737 8.686-.267 5.48-4.77 5.344-6.856-.667v-9.088l-5.746 5.747-2.285 7.832 3.22 2.057 12.068-1.338 7.175-4.409 3.074-11.76-1.077-6.672zM55.484 29.766l1.512 8.032-2.646 11.055-3.59 26.837 1.417 25.891 2.718 18.606-4.499 4.612 1.876-12.068-2.646-10.488.472-14.08-.094-12.284 3.78-29.955z" fill="#501616"/></svg>