<svg xmlns="http://www.w3.org/2000/svg" xmlns:xlink="http://www.w3.org/1999/xlink" width="150" height="150" viewBox="0 0 39.687 39.688"><defs><radialGradient xlink:href="#a" id="b" gradientUnits="userSpaceOnUse" gradientTransform="matrix(-.62978 .91496 -.95731 -.5675 -8.097 205.524)" cx="-68.657" cy="-54.408" fx="-68.657" fy="-54.408" r="36.687"/><linearGradient id="a"><stop offset="0" stop-color="#e6e6e6"/><stop offset="1" stop-color="gray"/></linearGradient></defs><path d="M50.84 210.976c-.121 5.137-8.86 17.069 1.436 15.904 7.597-1.874 19-6.752 26.582-8.814 14.858-4.733 35.685-11.02 50.591-15.622.027-.324-4.34-1.702-5.444-3.316-2.465-3.604-2.955-9.397-3.246-14.428-3.055-8.927-7.189-16.803-16.25-22.559-.896-.157-2.612-1.021-3.48-1.16-43.254-6.935-51.108 8.98-50.327 42.396.157 2.53.223 5.066.137 7.6z" fill="url(#b)" stroke="#000" stroke-width="1.997" transform="matrix(.25549 0 0 .25549 -2.416 -33.636)"/><path d="M14.517 7.848c-5.617 4.301-2.612 6.218-2.98 11.365-.084.975-.675 1.819-.837 2.78-.484 1.114.67-.194 1.178-.302 2.102-1.137 4.232-2.302 6.564-2.97-.367-.539-1.183-.848-1.728-1.29-2.523-2.101-2.813-6.83-2.197-9.583z" opacity=".2" stroke="#000" stroke-width=".2580449"/><path d="M20.582 7.578c1.792-.07 3.733.596 4.776 1.909.296.259.903 1.156.664 1.22-1.416-1.699-3.59-2.858-5.592-2.877-.684-.07 0-.177.152-.252z" fill="#fff"/><path d="M27.49 16.475c-3.845 1.423-8.507 1.45-11.863 3.332l-1.741.873c4.594-1.715 9.432-2.676 14.1-3.929 1.676-.092-.33-.184-.496-.276z" fill="#f9f9f9"/><path d="M10.06 24.41c.125.393.711 1.222 1.437.855 1.468-.662 2.884-1.414 4.29-2.177 3.85-1.298 10.509-3.398 14.462-4.406.682.033.852-.996-.017-.438-2.611.652-6.908 1.938-9.443 2.817-1.848.631-4.884 1.296-6.62 2.178l-2.895 1.07c-.68-.038.36.127-.316.055z" fill="#4d4d4d" stroke="#000" stroke-width=".2580449"/></svg>