<svg xmlns="http://www.w3.org/2000/svg" xmlns:xlink="http://www.w3.org/1999/xlink" width="150" height="150" viewBox="0 0 39.687 39.688"><defs><linearGradient id="c"><stop offset="0" stop-color="#527d3e"/><stop offset="1" stop-color="#4d4d4d"/></linearGradient><linearGradient id="b"><stop offset="0" stop-color="#e6e6e6"/><stop offset="1" stop-color="#4a8b2b"/></linearGradient><linearGradient id="a"><stop offset="0" stop-color="#e6e6e6"/><stop offset="1" stop-color="gray"/></linearGradient><linearGradient xlink:href="#c" id="e" x1="98.72" y1="201.072" x2="103.494" y2="213.125" gradientUnits="userSpaceOnUse"/><radialGradient xlink:href="#b" id="d" gradientUnits="userSpaceOnUse" gradientTransform="matrix(-.62978 .91496 -.95731 -.5675 -8.097 205.524)" cx="-94.384" cy="-55.932" fx="-94.384" fy="-55.932" r="36.687"/></defs><path d="M44.276 210.022c-.12 5.136.449 13.846 8 16.858 7.597-1.874 19-6.752 26.582-8.814 44.334-30.868 35.685-11.02 50.591-15.622 1.896.047 2.976-13.282-2.022-14.986-29.325-8.273-35.911-28.987-53.85-43.267-2.604-3.3-9.874-4.006-9.604 1.377 1.656 38.544-6.084 41.546-19.697 64.454z" fill="url(#d)" stroke="#000" stroke-width="1.997" transform="matrix(.25549 0 0 .25549 -2.416 -33.636)"/><path d="M14.821 4.159c-.805 1.281-.048 7.39-1.128 8.429-.949 2.85-4.027 5.105-4.29 7.997-.084.975-.005.874.748.707-.484 1.114 1.219.507 1.727.399 2.201-.904 5.147-.145 6.564-2.97-.367-.539-1.183-.848-1.728-1.29-.783-.494-1.16-1.102-1.265-1.971-.378-1.208.817-2.992.435-4.198.13-1.405-.346-5.75-1.063-7.103z" opacity=".2" stroke="#000" stroke-width=".2580449"/><path d="M47.077 221.24c.218 1.773 1.525 5.133 6.057 4.535 10.786-5.02 19.892-4.198 25.694-8.92 29.67-24.143 36.398-17.915 48.533-14.47.766-1.472 3.455-3.66 2.983-5.132-28.036-4.21-30.146 2.475-54.775 16.588z" fill="url(#e)" transform="matrix(.25549 0 0 .25549 -2.416 -33.636)"/><path d="M11.58 15.17l-.69.82-.367.56 1.488.646 2.285-.021 4.784-.62 3.255-.884 3.128-1.63 1.746-.797.086-.41-.711-.668-.54-.345-1.379.884-4.033 1.694-3.018.82-4.374-.006-1.51.043z" fill="#a86531" stroke="#000" stroke-width=".26468764"/><path d="M11.342 15.845c-.156.565 1.774 1.006 2.257 1.05 1.348.191 2.674-.227 3.998-.415 2.206-.382 4.434-.804 6.496-1.706.544-.166 1.102-.386 1.54-.752-.328-.08-.754.177-1.12.226-2.417.635-4.84 1.311-7.34 1.531-1.483.204-4.34.344-5.831.066z" opacity=".2" stroke="#000" stroke-width=".26468764"/><path d="M12.607 16.44c-.845-.64-1.88-1.137-2.364-2.136-.504-.83-1.14-1.595-1.55-2.474l.088-3.18c.844.681 2.036.957 2.632 1.922.527 1.022 1.014 2.065 1.53 3.093-.11.862.22 1.752-.072 2.595-.038.111-.152.175-.264.18z" fill="#f9f9f9" stroke="#000" stroke-width=".26468764"/><path d="M9.482 10.129l3.278 6.113" fill="none" stroke="#000" stroke-width=".26468764"/><path d="M22.135 19.412c1.745-.515 4.232-1.397 6.768-1.128l-1.768-.64-1.89.214z" fill="#1a1a1a" stroke="#000" stroke-width=".26468764"/></svg>