<svg xmlns="http://www.w3.org/2000/svg" xmlns:xlink="http://www.w3.org/1999/xlink" width="614.157" height="1094.363" viewBox="0 0 162.496 289.55"><defs><linearGradient id="a"><stop offset="0" stop-color="#758e11"/><stop offset="1" stop-color="#b1d911" stop-opacity=".929"/></linearGradient><linearGradient xlink:href="#a" id="b" x1="64.145" y1="285.775" x2="156.923" y2="25.733" gradientUnits="userSpaceOnUse"/></defs><g fill="url(#b)" stroke="#000" transform="translate(-18.257 -.478)"><g stroke-width="1.496"><path d="M142.54 33.657l-.456-3.044c-11.894-10.803-8.577-14.088-2.904-27.94 4.997 11.999 6.91 16.854 3.425 27.844l.606 2.692zM142.605 30.517c-.146-7.423-.173-14.787-3.044-22.05" stroke-width="1.0583302399999999"/></g><g stroke-width="1.058"><path d="M125.867 49.683l-.87-4.263c-17.597-14.36-13.161-19.245-6.188-39.222 7.95 16.564 11.013 23.274 6.917 39.047L126.782 49zM125.726 45.245c-.762-10.467-1.35-20.859-5.946-30.896"/></g><g stroke-width="1.058"><path d="M109.441 66.355l-1.716-3.998C87.58 51.863 90.935 46.18 93.712 25.205c11.143 14.607 15.504 20.557 14.69 36.833L110.2 65.5zM108.403 62.038c-2.869-10.095-5.552-20.152-12.088-29.049"/></g><path d="M95.343 82.865l-1.717-3.998C73.483 68.373 76.836 62.69 79.613 41.715c11.144 14.607 15.504 20.557 14.691 36.833l1.797 3.463zM94.304 78.548c-2.868-10.095-5.551-20.152-12.087-29.049M83.316 102.648l-1.717-3.998C61.456 88.157 64.81 82.474 67.586 61.498 78.73 76.105 83.09 82.055 82.277 98.33l1.796 3.463zM82.277 98.331C79.41 88.236 76.725 78.179 70.19 69.283M78.005 117.432l-2.863-3.276c-22.396-3.784-20.955-10.223-24.768-31.035 15.099 10.468 21.078 14.787 25.315 30.523l2.774 2.742zM75.689 113.644c-5.837-8.722-11.485-17.465-20.442-23.918M69.444 138.819l-2.966-3.183c-22.504-3.074-21.267-9.556-25.738-30.237 15.423 9.986 21.536 14.113 26.268 29.707l2.86 2.653zM67.008 135.106c-6.11-8.532-12.032-17.092-21.188-23.259M63.617 160.958l-3.165-2.985c-22.656-1.613-21.84-8.16-27.638-28.51 16.036 8.968 22.403 12.692 28.133 27.947l3.026 2.463zM60.947 157.41c-6.648-8.12-13.111-16.279-22.647-21.84" stroke-width="1.058"/><path d="M60.58 179.503l-2.741-3.378c-22.241-4.605-20.565-10.987-23.61-31.925 14.703 11.016 20.52 15.552 24.175 31.433l2.672 2.842zM58.404 175.633c-5.512-8.93-10.835-17.875-19.549-24.653M59.4 194.556l-3.433-2.672c-22.706.53-22.512-6.065-30.203-25.776 16.81 7.415 23.5 10.521 30.643 25.169l3.245 2.166zM56.407 191.277c-7.384-7.457-14.588-14.97-24.606-19.608" stroke-width="1.058"/><path d="M58.4 205.967l-3.678-2.323c-22.545 2.756-22.999-3.827-32.586-22.689 17.456 5.731 24.419 8.166 32.965 22.042l3.44 1.838zM55.1 202.997c-8.08-6.696-15.986-13.467-26.41-17.1" stroke-width="1.058"/><path d="M58.4 220.667l-3.678-2.323c-22.545 2.756-22.999-3.827-32.586-22.689 17.456 5.73 24.419 8.166 32.965 22.042l3.44 1.837zM55.1 217.697c-8.08-6.696-15.986-13.467-26.41-17.1" stroke-width="1.058"/><path d="M58.668 234.03l-3.678-2.322c-22.545 2.756-23-3.827-32.587-22.69 17.456 5.731 24.42 8.167 32.965 22.042l3.441 1.838zM55.368 231.06c-8.08-6.696-15.987-13.466-26.411-17.099M58.736 248.599l-3.964-1.791c-21.946 5.852-23.308-.604-35.416-17.956 18.082 3.257 25.315 4.704 35.7 17.262l3.663 1.343zM55.056 246.114c-8.93-5.512-17.697-11.122-28.525-13.275M60.923 267.44l-4.17-1.244c-20.964 8.737-23.178 2.52-37.5-13.055 18.356.808 25.717 1.274 37.69 12.33l3.81.84zM56.943 265.47c-9.587-4.267-19.027-8.653-30.045-9.338" stroke-width="1.058"/><g stroke-width="2.048"><path d="M154.446 23.687l-.323-2.225c-8.653-7.928-6.22-10.317-2.033-20.416 3.612 8.78 4.994 12.332 2.415 20.347l.434 1.969zM154.505 21.393c-.084-5.421-.08-10.8-2.155-16.114" stroke-width="1.05822208"/></g><path d="M163.208 18.366l.05-1.448c-4.581-6.02-2.764-7.257 1.049-13.184 1.285 5.983 1.755 8.394-.8 13.184l.05 1.298zM163.508 16.918c.567-3.45 1.186-6.86.479-10.469" stroke-width="1.058"/><g stroke-width="1.676"><path d="M167.074 18.367l1.306-.396c6.587 2.711 7.273.759 11.744-4.146-5.756.278-8.065.435-11.805 3.918l-1.193.27zM168.32 17.743c3-1.351 5.955-2.74 9.41-2.97" stroke-width="1.05857836"/></g><g stroke-width="2.522"><path d="M156.805 25.269l1.792.348c8.397-4.51 9.577-2.004 16.197 3.913-7.699.416-10.792.523-16.246-3.602l-1.625-.195zM160.592 25.839c4.18 1.389 8.302 2.833 12.931 2.666" stroke-width="1.0583068599999998"/></g><g stroke-width="1.678"><path d="M144.27 34.797l2.693.523c12.62-6.777 14.392-3.012 24.342 5.88-11.57.626-16.22.787-24.416-5.413l-2.443-.292zM149.961 35.653c6.28 2.087 12.476 4.258 19.434 4.008" stroke-width="1.05824748"/></g><path d="M126.413 49.64l4.27.83c20.01-10.746 22.821-4.776 38.598 9.323-18.346.992-25.718 1.248-38.715-8.583l-3.874-.464zM135.438 50.998c9.959 3.31 19.782 6.75 30.814 6.355M109.441 67.413l4.27.83c20.01-10.746 22.822-4.776 38.598 9.324-18.346.991-25.718 1.248-38.715-8.583l-3.873-.464zM118.466 68.772c9.959 3.309 19.783 6.75 30.815 6.354M97.414 83.85l4.27.83c20.01-10.746 22.821-4.776 38.598 9.324-18.346.991-25.718 1.248-38.715-8.583l-3.873-.464zM106.439 85.209c9.959 3.309 19.782 6.75 30.815 6.354M85.788 104.162l4.27.83c20.01-10.745 22.821-4.775 38.598 9.324-18.346.992-25.718 1.248-38.715-8.583l-3.874-.464zM94.813 105.521c9.959 3.31 19.782 6.75 30.814 6.355" stroke-width="1.058"/><path d="M64.145 285.775C45.095 166.598 73.623 75.42 163.558 18.216l4.822-.245C65.492 82.307 52.09 180.004 68.956 288.98z" stroke-width="1.058"/><path d="M79.593 117.96l4.27.831c20.01-10.746 22.821-4.776 38.598 9.324-18.346.991-25.718 1.248-38.715-8.583l-3.874-.464zM84.546 118.158c9.958 3.309 19.782 6.75 30.814 6.354M73.132 137.64l4.27.83c20.01-10.745 22.82-4.775 38.597 9.324-18.346.992-25.718 1.248-38.715-8.583l-3.873-.464zM82.156 139c9.96 3.308 19.783 6.75 30.815 6.353" stroke-width="1.058"/><g stroke-width="1.058"><path d="M66.07 162.645l4.206-1.11c13.344-18.38 18.471-14.227 38.81-8.393-16.088 8.873-22.615 12.31-38.594 9.11l-3.69 1.268zM74.787 159.943c10.407-1.352 20.75-2.526 30.51-7.682"/></g><g stroke-width="1.058"><path d="M63.941 180.278l4.134-1.358c12.226-19.14 17.592-15.3 38.242-10.686-15.532 9.814-21.843 13.633-37.984 11.39l-3.608 1.484zM72.483 177.063c10.308-1.969 20.562-3.756 30-9.483"/></g><g stroke-width="1.058"><path d="M62.743 194.43l4.014-1.678c10.693-20.038 16.343-16.629 37.29-13.643-14.718 10.998-20.71 15.299-36.977 14.324l-3.481 1.762zM71.006 190.556c10.123-2.769 20.206-5.352 29.167-11.8"/></g><g stroke-width="1.058"><path d="M62.336 205.617l4.036-1.622c10.964-19.892 16.567-16.406 37.472-13.137-14.865 10.798-20.916 15.017-37.168 13.822l-3.505 1.714zM70.651 201.856c10.16-2.63 20.277-5.077 29.324-11.402"/></g><g stroke-width="1.058"><path d="M61.084 219.932l3.885-1.957c9.248-20.745 15.124-17.744 36.23-16.25-13.901 12.013-19.575 16.728-35.87 16.907l-3.347 2.004zM69.052 215.483c9.901-3.478 19.777-6.769 28.259-13.834"/></g><g stroke-width="1.058"><path d="M61.78 232.881L65.701 231c9.645-20.563 15.463-17.45 36.536-15.548-14.13 11.742-19.893 16.347-36.189 16.212l-3.385 1.939zM69.832 228.587c9.966-3.286 19.903-6.386 28.52-13.287"/></g><g stroke-width="1.058"><path d="M62.58 246.646l3.924-1.882c9.645-20.563 15.463-17.45 36.536-15.548-14.13 11.743-19.894 16.347-36.19 16.213l-3.384 1.938zM70.634 242.351c9.966-3.286 19.903-6.386 28.52-13.287"/></g><g stroke-width="1.058"><path d="M65.254 266.157l3.922-1.882c9.646-20.563 15.464-17.45 36.537-15.548-14.13 11.742-19.894 16.347-36.19 16.212l-3.385 1.939zM73.307 261.862c9.966-3.286 19.903-6.386 28.52-13.287"/></g></g></svg>