<svg xmlns="http://www.w3.org/2000/svg" width="153.968" height="96.813" viewBox="0 0 40.737 25.615"><defs><linearGradient id="b"><stop offset="0" stop-color="#79f215"/><stop offset="1" stop-color="#63a708"/></linearGradient><linearGradient id="a"><stop offset="0" stop-color="#052"/><stop offset="1" stop-color="#9bcb21"/></linearGradient></defs><path d="M1.674 17.681c-.977-.807.542-1.206 1.12-.64-.129-.64-1.27-2.33.178-1.374 1.663 1.255-.243-2.745 1.215-.861.72.487-.258-2.978 1.115-1.446 1.268.233-.557-3.495 1.29-2.21 1.475 1.561.88-1.036.63-1.854.693-.677 1.935 1.882 1.585-.093-.001-1.012 1.006-3.097 1.324-1.18 1.057 1.01 1.217-2.643 2.456-1.134.442 2.427 1.647-2.943 2.263-.452.652 1.548 1.473-1.51 2.54-1.469.737-.263.207 2.1.99.77.47-.57 1.009-2.03 1.114-.425.698.58 1.64-2.213 2.352-1.082.258 1.712 1.994-1.48 3.094-.385.076.745-.047 1.348.856.677.788-.77 1.965-.633 1.474.69.407 1.3 2.085-2.425 1.812-.074.582 1.234 3.247-2.324 2.757.189-.849 2.061 2.695-.2 1.879 1.568-1.038 1.709 3.052-.62 1.893 1.18-.336.555-.38 2.147.43.994 1.268-1.462-.087 2.414 1.388 1.153 1.019-.44 1.88.5.789 1.163-1.154 1.504 2.409.227 1.085 1.54-.918.46-.87 1.295.234 1.212 1.284.718-1.78.564-.488 1.71.766.729.225 1.349-.626 1.075.266.832.943 3.093-.665 1.83-1.168.075 1.655 1.948-.101 1.379.858 1.614-1.419-.775-1.082.703.23.948-1.895-1.23-1.174.417-.208.787-1.993-1.605-1.387.184-.5-.286-1.703-1.105-1.516.134-.388-.641-1.635-1.247-1.667-.055-.399-.902-1.116-.688-1.516-.025-.403-1.14-.658-.588-1.246-.102-.368-.583-.79-1.733-.924-.273-.233 1.242-1.25-1.514-1.064.192-.916-.461-1.963-1.236-1.77.295-.586-.822-1.29-.65-1.535.254-.521-.64-1.107-1.212-1.699-.257-.528-.547-1.215-1.887-1.611-.305-.414-.4-1.048-1.491-1.14-.132-.449.725-1.31-1.832-1.405-.07-.642-.122-1.504-1.291-1.348.215-.45-.497-1.148-1.503-1.39-.128-.595.684-.739-1.94-1.295-.351-.523 1.161-.887-1.658-1.36.012-.376.733-.6-1.732-1.033-.403-.397 1.512-1.06-.836-1.744.307-.627-.892-.944-.57-1.283.218-.39-1.4-1.84-1.53-2.651-.343-.241-1.095-1.63-1.37-2.31-.503-.157-.421-.856-1.69-1.109-.633-.658-.114-.892-1.152-.08-1.192-1.108.147-.062-.78.356-.61z" fill="#729424" stroke="#000" stroke-width=".4"/><path d="M7.01 16.627c.193-.199.768-.884.953-.3.25.485.99-.13 1.492.054.29.445.17.9.798.737.802-.2 1.002.887 1.57.928.578-.163.965.01 1.311.49.352.094.496-.743 1.08-.518.494.138.766.616 1.339.491.503-.029 1.06-.792 1.235-.081.25.138.976.057 1.08-.382.274-.235.665.41 1.184-.082.529-.304 1.023.56 1.364.027.733-.073.959-.801 1.39-1.337.413-.557.835.258 1.066.306.006.245.69-.029.8.579.225.563 1.591-.139 1.529-.232.59-.423.968-.483 1.455-.347.012.472.647-.003.687.636.252.253.835-.433 1.278-.29.154.503 1.015-.459 1.347-.346.183.48 1.148-.128 1.601.154.253.176 1.298-.572 1.565-.463.166-.032.506-.673.728-.27.256-.08 1-.592 1.055-.926-.364-.451.406-.444.692-.039.3.219.456.643.545 1.255.12.541-.252.688.073 1.214.288-.324.677 1.07.291 1.466.01.864-.912.7-1.455.501-.54.578-1.476 1.084-1.747.077-.26-.326-.932-.074-1.369-.154-.515-.061-.955-.03-1.14.077-.453-.772-1.417.034-2.075.039-.603-.593-1.782-1.24-2.474-.424-.826-.233-1.627-.198-2.438.27-.72-.151-1.376.317-2.001.424-.533-.474-1.107-.755-1.915-.54-.741-.21-1.203.789-1.833.463-.381-.236-1.065-.084-1.601-.154-.793-.216-.872.451-1.71 0-.64-.128-.926.324-1.456.077-.736-.172-.63.394-1.201-.347-.55-.062-.884-.231-1.345-.114-.698.095-1.69-.642-1.92-.045.15-.03-.586-.157-1.015.083-.26-.542-.674-.726-1.317-.58-.49.057-.858-.356-1.098-.076-.27-.137-.497-.713-.182-1.003.39.116.676-.255.764-.617.24-.02.703-.197.764-.386.034-.01-.015-.161.257-.295z" fill="#5a700c"/><path d="M7.978 12.434c.192-.198.767-.884.952-.3.25.485.99-.13 1.493.054.29.445.17.9.797.737.802-.2 1.002.887 1.57.928.579-.163.966.01 1.312.49.351.095.496-.743 1.08-.518.493.139.765.615 1.338.491.504-.029 1.06-.792 1.235-.082.251.138.977.058 1.081-.382.274-.234.664.411 1.184-.082.528-.304 1.023.56 1.363.028.733-.073.96-.802 1.39-1.337.413-.557.836.258 1.067.305.007.246.689-.028.8.58.225.563 1.59-.139 1.528-.232.59-.424.969-.483 1.456-.348.012.473.646-.003.687.637.252.252.835-.434 1.278-.29.154.502 1.015-.46 1.346-.347.184.48 1.149-.128 1.602.154.252.177 1.298-.572 1.565-.463.166-.032.506-.672.728-.27.256-.079 1-.592 1.055-.926-.364-.45.406-.443.691-.038.3.218.457.642.546 1.255.12.54-.252.687.072 1.214.288-.324.678 1.07.292 1.465.01.865-.913.7-1.455.502-.541.578-1.476 1.083-1.747.077-.26-.327-.932-.074-1.37-.154-.514-.061-.954-.03-1.14.077-.452-.773-1.416.034-2.074.039-.604-.593-1.782-1.241-2.475-.425-.825-.232-1.626-.198-2.438.27-.719-.15-1.376.317-2 .424-.533-.473-1.107-.754-1.915-.54-.742-.21-1.203.79-1.834.463-.38-.236-1.064-.084-1.6-.154-.794-.216-.873.451-1.711 0-.64-.128-.926.324-1.456.077-.736-.171-.63.394-1.2-.347-.55-.062-.884-.232-1.346-.114-.698.094-1.69-.642-1.92-.045.15-.03-.585-.157-1.015.083-.26-.542-.673-.726-1.316-.58-.49.057-.858-.355-1.099-.076-.269-.137-.497-.713-.181-1.003.39.116.676-.255.764-.617.239-.02.703-.197.763-.386.034-.01-.014-.163.257-.294z" fill="#628c20"/><path d="M8.646 11.533c-.104-.697.6-1.287.342-1.862-.09-.296.24.069.38.304-.024.152.263.585.304.684.222-.464-.071-1.54.418-1.369.182.346.24.828.57.988.056.257.208-.66.645-.684.536-.612.38-.157.532.228.253.511.244-.07.57-.342.44-.592.687.049.755.513.142.24.46-.06.612-.474.355-.04.16-1.332.532-.722-.027.325.475.688.38.873-.048-.322.2-1.271.303-1.444.11-.321.303.81.493.874.435-.184.96-.892 1.482-.988.103.072.201.824.342.875.116-.084.203-.872.455-1.14.016-.629.255-.02.456.304.285.198.46.972.608.531.14-.413.37-.874.57-1.177-.062.178.258.956.37 1.219.354-.587.79-1.188 1.073-1.486.227-.197.065.3.114.723.066.484.324.548.382.417.458-.204.373-.573.493-.798.202-.433.11.061.19.266.071.06.226.628.342.304.466-.45.847-.982 1.178-1.368.32-.321-.159.536-.038.734.028.258.04.334.19.444.44-.399 1.112-.678 1.71-.874.458-.333-.119.63.194.733-.121.438.615-.098.984-.39.499-.174.618-.902.684-.267.252.485.407.713.608.95.043.27.62-.446.95-.57.547-.251.508-.157.494.495.097.353-.085.5.456.38.47-.221 1.099-.443 1.555-.459.572-.219-.203.592-.11.724-.309.548.642-.147 1.01 0 .603-.072.046.25-.022.532-.22.612.851-.101.95 0 .172-.133.591-.22.341-.038-.163.146-.155.332-.228.532.351-.052.963-.079 1.14-.228.186.236-.21.725-.151.912-.379.258-.138.113.494-.151.38-.115.647-.176.532.532-.058.242-.241.487-.037.45.217-.302 1.273-.2 1.1-.032-.185.144-.731.324-.95.494-.181.243.534.098.799.38.338-.002.473.148.57.304.074.213.189.36.266.455-.171-.05-.418-.255-.57-.342-.115-.114-.392.008-.19.19.114.06.084.6.038.343-.275-.265-.553-.314-.798-.494-.398-.11-.406-.103-.304.19.042.191.41.995-.09.453-.07-.345-.676-.495-1.125-.643-.34-.18-.154.024-.039.267.043.295.396 1.198-.076.608-.215-.286-.771-.393-.836-.608-.297-.09-.259.738-.19 1.102-.143.015-.152-.197-.304-.38-.171-.126-.268-.336-.418-.341-.2.062-.163.745-.34.778.021-.146-.192-.655-.267-.854-.368-.1-.361-.738-.646-.456-.107.103-.145 1.075-.305.532-.045-.2-.275-.464-.456-.607-.208-.068-1.009-.62-.54.144.063.245-.106 1.013-.143.768.007-.135-.177-.461-.304-.607-.26-.228-.401-.556-.494-.267-.041.498-.142.763-.152 1.258-.081.137-.228-.487-.342-.764-.149-.297-.26-.472-.304-.342.013.208-.561 1.043-.531.875.004-.371-.013-.386-.152-.799-.22-.372-.226-.48-.342-.038-.12.21-.281.56-.457.513.041-.119-.073-.596.001-.703-.111-.11-.286-.791-.386-.464-.128.045-.413.704-.412.49-.006-.251.007-.614-.162-.977-.149-.618-.208-.108-.37.228-.31.68-.268.194-.38-.228.04-.459-.108-.986-.342-.608-.376.322-.435.356-.38-.114-.023-.351-.065-.4-.114-.722-.055-.071-.26.296-.418.455-.121.335-.396.836-.38.33.07-.21-.143-.435-.341-.596-.248-.132-.369-.347-.304 0-.128.372-.3.651-.304 1.254-.103-.002-.323-.554-.608-.76-.159-.208-.308.602-.266 1.022.03.636-.034.662-.19.422-.058-.09-.352-.221-.469-.382-.153-.016-.248.3-.214.571-.22.314.07 1.041-.152 1.103-.052-.137-.291-.37-.249-.777-.143.014-.167.343-.187.538-.16.286-.28.343-.466.61-.348.377-.612.724-.732.238-.078-.228-.146-.732-.266-.456-.154.112-.612.701-.797.645-.116-.352-.25-.78-.532-.987-.26.064-.225.645-.38 1.026-.064.117-.22-.61-.34-.874-.27-.554-.548-.29-.647.152-.096.302-.334.149-.415-.052-.211-.116.008-.675-.23-.67-.286.074-.388.358-.532.608-.256.326-.236.754-.417.531-.05.057-.3-.826-.607-.873-.024.006-.309.504-.532.912-.103.003-.065-.165-.304-.495-.224-.314-.338-.614-.494-.418-.173.113-.726.653-.836.912-.21-.099-.103-.124-.266-.304-.135-.336-.2-.868-.494-.38-.203.14-.585.403-.723.57-.005-.394-.243-.499-.19-1.06.017-.17-.786.342-.925.569-.198.06-.056-.616-.1-.726-.17-.045-1.28.112-1.103.038.015-.24.06-.462.304-.532.071-.074.783.197.608-.227-.196-.15-.068-.251-.227-.494-.236-.191.462.009.565-.115z" fill="#89ae22"/><path d="M12.546 17.242c-.11-.225-.37-.759-.255-.954.135-.046.574.307.402-.04-.101-.174-.124-.804.054-.458.22.08.535.52.444.034.03-.21-.07-.949.094-.867.185.099.448.352.564.35-.083-.291.148-.895.242-.834.103.252.372.67.484.59.157-.173.361-.377.497-.577.089.288.091.835.483.524.188-.055.4-.152.202.094-.039.253-.581.591-.101.51.297.067.983-.222.57.122-.085.234-.736.475-.254.497.461-.104.207.176.04.39-.196.292-.645.369-.874.47.165.056.458.175.108.349-.209.132-.742.155-.78.214.191.001.696.274.256.242-.404.033-.947-.064-1.277.04.087.546-.36.072-.565-.135-.136-.315-.18.02-.268.081-.157.157-.183-.193-.269-.198-.051-.143.353-.284.256-.352-.016-.061.006.05-.053-.092zM20.7 16.421c-.11-.225-.368-.758-.254-.954.135-.045.574.307.403-.04-.102-.174-.124-.804.054-.457.22.078.535.518.443.033.03-.209-.069-.949.094-.867.185.099.449.352.564.35-.082-.291.148-.895.242-.834.103.252.372.671.484.59.157-.173.361-.377.497-.577.09.288.091.835.483.524.188-.055.4-.152.202.094-.039.253-.581.591-.101.51.297.067.983-.222.57.122-.086.234-.736.475-.255.497.462-.104.208.176.04.39-.195.292-.644.369-.873.47.165.056.458.175.108.349-.21.132-.742.155-.78.214.191.001.696.274.256.242-.404.033-.947-.064-1.277.04.087.546-.36.072-.565-.135-.136-.315-.18.02-.268.081-.157.157-.183-.193-.27-.198-.05-.143.353-.284.257-.352-.016-.061.006.05-.053-.092zM29.899 16.421c-.11-.225-.369-.758-.255-.954.135-.046.574.307.403-.04-.102-.174-.124-.804.054-.457.22.078.535.518.443.033.03-.209-.069-.949.094-.867.186.099.449.352.565.35-.083-.291.147-.895.241-.834.103.252.372.671.484.59.158-.172.362-.377.497-.577.09.288.092.835.484.524.188-.055.399-.152.201.094-.038.253-.58.591-.1.51.297.067.983-.222.57.122-.086.234-.736.475-.255.497.462-.104.207.176.04.39-.195.292-.645.369-.873.47.165.056.458.175.107.349-.208.132-.741.155-.78.214.192.001.696.274.256.242-.404.033-.946-.064-1.277.04.087.546-.36.073-.564-.135-.136-.315-.18.02-.269.081-.157.157-.183-.193-.27-.198-.05-.143.353-.284.257-.352-.016-.06.005.049-.053-.092zM6.639 18.626c.11-.225.369-.76.255-.954-.135-.046-.574.307-.403-.04.101-.174.124-.805-.054-.458-.22.079-.535.519-.444.033-.03-.208.07-.948-.094-.867-.185.1-.448.352-.564.35.083-.29-.147-.894-.241-.834-.103.253-.373.672-.484.591-.158-.173-.362-.377-.497-.578-.09.288-.092.836-.483.525-.189-.055-.4-.152-.202.093.038.254.58.592.1.511-.297.067-.983-.223-.57.121.086.235.736.476.255.498-.462-.105-.207.176-.04.39.195.292.645.368.873.47-.165.056-.458.174-.107.348.209.132.742.156.78.215-.192 0-.696.274-.256.241.404.034.946-.064 1.276.04-.086.547.36.073.565-.134.136-.315.18.02.268.08.157.158.183-.192.27-.197.05-.144-.353-.284-.257-.352.016-.062-.007.05.054-.092z" fill="#5a700c"/><path d="M18.787 13.842c.11-.225.368-.759.255-.954-.135-.046-.574.307-.403-.04.101-.174.124-.805-.054-.458-.22.08-.535.52-.444.034-.03-.21.07-.949-.094-.867-.185.099-.448.351-.564.35.083-.291-.147-.895-.241-.834-.103.252-.373.67-.484.59-.158-.173-.362-.377-.497-.577-.09.288-.092.835-.483.524-.188-.055-.4-.152-.202.094.038.253.581.591.1.51-.297.067-.983-.222-.57.122.086.234.737.475.255.497-.461-.105-.207.176-.04.39.196.292.645.369.874.47-.165.056-.458.175-.108.348.209.133.742.156.78.215-.191.001-.696.274-.256.242.404.033.946-.064 1.277.04-.087.546.36.073.564-.135.136-.315.18.02.269.081.156.157.183-.193.269-.198.05-.143-.353-.284-.256-.352.016-.061-.006.05.053-.092zM29.913 13.143c.111-.225.37-.759.255-.954-.134-.046-.574.307-.402-.04.101-.174.124-.804-.054-.457-.22.078-.535.518-.444.033-.03-.209.07-.949-.094-.867-.185.099-.448.352-.564.35.083-.291-.148-.895-.242-.834-.103.252-.372.671-.484.59-.157-.172-.362-.377-.497-.577-.09.288-.092.836-.483.524-.189-.054-.4-.151-.202.094.038.254.58.592.1.51-.297.068-.983-.222-.57.122.086.234.736.476.255.497-.462-.104-.207.176-.04.39.196.292.645.369.873.47-.164.056-.458.175-.107.349.209.132.742.155.78.214-.192.001-.696.274-.256.242.404.033.946-.064 1.277.04-.087.546.36.073.564-.134.136-.315.181.02.27.08.156.157.182-.193.268-.198.051-.143-.353-.284-.256-.352.016-.061-.006.05.053-.092zM36.74 13.734c.11-.225.37-.758.255-.954-.135-.045-.574.307-.403-.04.102-.174.125-.804-.053-.457-.22.078-.535.519-.444.033-.03-.209.069-.949-.094-.867-.185.1-.449.352-.564.35.082-.29-.148-.894-.242-.834-.103.253-.372.671-.484.59-.157-.172-.361-.376-.497-.577-.09.288-.092.836-.483.524-.189-.054-.4-.151-.202.094.038.254.58.592.1.51-.297.068-.983-.222-.57.122.087.235.737.476.255.497-.461-.104-.207.177-.04.39.196.292.645.37.874.47-.165.056-.46.175-.108.349.209.132.742.155.78.214-.192.001-.696.274-.256.242.404.033.946-.064 1.277.04-.087.546.36.073.564-.134.136-.315.181.02.27.08.156.158.182-.193.268-.198.051-.143-.353-.284-.256-.352.016-.06-.004.05.053-.091zM12.034 13.887c.111-.226.37-.76.255-.955-.135-.045-.574.307-.402-.04.101-.174.124-.804-.054-.457-.22.078-.536.518-.444.033-.03-.21.069-.949-.094-.867-.185.099-.449.352-.564.35.082-.291-.148-.895-.242-.834-.103.252-.372.671-.484.59-.157-.173-.361-.377-.496-.577-.09.288-.092.835-.484.524-.188-.055-.399-.152-.202.094.039.253.581.591.101.51-.297.067-.983-.222-.57.122.085.234.736.475.254.497-.461-.105-.207.176-.04.39.196.292.645.369.874.47-.165.056-.458.175-.108.349.209.132.742.155.78.214-.191.001-.696.274-.256.242.404.033.946-.064 1.277.04-.087.546.36.072.564-.135.136-.315.181.02.269.081.157.157.183-.193.269-.198.051-.143-.353-.284-.256-.352.016-.06-.006.049.054-.092z" fill="#628c20"/><path d="M12.546 17.242c-.11-.225-.37-.759-.255-.954.135-.046.574.307.402-.04-.101-.174-.124-.804.054-.458.22.08.535.52.444.034.03-.21-.07-.949.094-.867.185.099.448.352.564.35-.083-.291.148-.895.242-.834.103.252.372.67.484.59.157-.173.361-.377.497-.577.089.288.091.835.483.524.188-.055.4-.152.202.094-.039.253-.581.591-.101.51.297.067.983-.222.57.122-.085.234-.736.475-.254.497.461-.104.207.176.04.39-.196.292-.645.369-.874.47.165.056.458.175.108.349-.209.132-.742.155-.78.214.191.001.696.274.256.242-.404.033-.947-.064-1.277.04.087.546-.36.072-.565-.135-.136-.315-.18.02-.268.081-.157.157-.183-.193-.269-.198-.051-.143.353-.284.256-.352-.016-.061.006.05-.053-.092z" fill="#5a700c"/><path d="M21.744 7.579c-.11-.225-.369-.76-.255-.954.135-.046.574.307.403-.04-.102-.174-.124-.805.054-.458.22.079.535.519.443.033.03-.209-.069-.948.094-.867.186.1.449.352.565.35-.083-.29.147-.894.241-.834.103.253.373.671.484.59.158-.172.362-.376.497-.577.09.288.092.836.483.524.189-.054.4-.151.202.094-.038.254-.58.592-.1.51.297.068.983-.222.57.122-.086.235-.736.476-.255.497.462-.104.207.177.04.39-.196.292-.645.37-.873.47.164.057.458.175.107.35-.209.131-.742.154-.78.214.192 0 .696.274.256.241-.404.033-.946-.064-1.277.04.087.546-.36.073-.564-.134-.136-.315-.18.02-.269.08-.156.158-.183-.192-.269-.198-.05-.143.353-.283.257-.352-.016-.06.006.05-.054-.091z" fill="#89ae22"/></svg>