<svg xmlns="http://www.w3.org/2000/svg" xmlns:xlink="http://www.w3.org/1999/xlink" width="98.456" height="146.884" viewBox="0 0 26.05 38.863"><defs><linearGradient id="h"><stop offset="0" stop-color="#b8b25c"/><stop offset="1" stop-color="#8e9b54"/></linearGradient><linearGradient id="g"><stop offset="0" stop-color="#a9b199"/><stop offset="1" stop-color="#7f7738"/></linearGradient><linearGradient id="f"><stop offset="0" stop-color="#a8ad5d"/><stop offset="1" stop-color="#babd6c"/></linearGradient><linearGradient id="d"><stop offset="0" stop-color="#502d16"/><stop offset="1" stop-color="#28170b"/></linearGradient><linearGradient id="c"><stop offset="0" stop-color="#807032"/><stop offset="1" stop-color="#544c25"/></linearGradient><linearGradient id="e"><stop offset="0" stop-color="#6bb99f"/><stop offset="1" stop-color="#37c8ab"/></linearGradient><linearGradient id="b"><stop offset="0" stop-color="#79f215"/><stop offset="1" stop-color="#63a708"/></linearGradient><linearGradient id="a"><stop offset="0" stop-color="#052"/><stop offset="1" stop-color="#9bcb21"/></linearGradient><linearGradient gradientUnits="userSpaceOnUse" y2="157.171" x2="337.964" y1="111.283" x1="346.646" id="i" xlink:href="#d"/><linearGradient y2="157.171" x2="337.964" y1="111.283" x1="346.646" gradientUnits="userSpaceOnUse" id="j" xlink:href="#d"/><linearGradient y2="157.171" x2="337.964" y1="111.283" x1="346.646" gradientUnits="userSpaceOnUse" id="k" xlink:href="#d"/><linearGradient y2="157.171" x2="337.964" y1="111.283" x1="346.646" gradientUnits="userSpaceOnUse" id="l" xlink:href="#d"/><linearGradient y2="157.171" x2="337.964" y1="111.283" x1="346.646" gradientUnits="userSpaceOnUse" id="m" xlink:href="#d"/></defs><g transform="matrix(.69119 0 0 .69119 -225.093 -67.295)" fill="url(#i)" stroke="#000" stroke-width=".24"><path d="M326.117 137.527c1.427.35 3.586-.88 4.407-.135-.189 2.354.965.377 1.768-.302.942-.028 1.76-.647 1.742.71 1.623-.65 2.813-1.976 4.58-1.78 1.372-1.228 3.927.325 4.665-1.619 1.153.34 1.457-1.789 1.632-1.991-1.82-.55-3.14-1.807-4.36-2.342.839-1.854-1.944 1.039-2.34.294-.772-1.882-2.918-.155-3.929-1.598-1.44 1.355-1.656-2.234-2.51-.732.3 1.58-2.312 1.953-2.039 3.369-1.377-.237.173 2.043-1.759 2.229-.944 1.207-1.86 2.429-1.857 3.897z" fill="url(#j)"/><path d="M342.614 153.36c-1.378.485-3.974-.387-3.565-2.03.202-2.027.598-3.872.98-5.825.523-2.125.979-4.459 1.057-6.685.896-1.672-.073-4.685-2.383-3.315-.857-1.406 2.79-.674 2.607-2.567.333-1.532-.294-1.204-.488-2.948-.018-2.093-.484-3.995-1.096-5.938-.287-1.913-1.048-3.822-.709-5.726.155-1.522-1.735-5.115.903-4.955.244 1.944.273 4.052.77 5.997.112 2.272 1.398 4.11 1.757 6.349.35 1.96-.02 3.933.568 5.915-.013 1.073.707 3.99 1.491 1.645 1.415-2.168 1.999-4.832 4.069-6.534.542-1.242 1.98-4.477 3.574-3.267.53 2.09-2.299 2.827-3.112 4.489-1.8 1.006-1.77 3.339-3.16 4.763-.911 1.746-1.25 3.746-1.777 5.65-.373 2.246-.528 4.5-.641 6.781-.044 2.153-.65 4.298-.48 6.507.35.312.262 1.915-.365 1.695z" fill="url(#k)"/><path d="M340.59 120.797c-1.233-.506-2.615 1.034-3.49-.367-.482 1.46-1.87 2.249-3.128.893-1.537.232-3.197.177-3.346-1.326-1.743 2.062-4.374-.66-2.484-2.243-1.026-1.185 2.023-1.988.392-2.53-.904.271-1.978.187-2.695.249 1.046-.893 3.01-1.294 1.489-2.556 1.983-.469 2.609-4.378 5.162-2.278.973.247 3.432-.597 1.457-1.334.658-1.868-3.678-.063-2.257-2.25 1.759-1.136-2.58-1.326-.5-2.472 2.092-.213 2.115-3.024 4.275-3.332-.34-1.507.242-1.652 1.548-1.646.745-1.192 2.804-3.35 3.23-.95 2.065-1.466 1.466 1.607 2.736 2.225.182 1.654 3.854-.81 2.588 1.959-.018 1.924 2.455 1.519 2.083 3.585.694 1.419-.185 2.527 1.778 2.481-.385 1.274-1.96 2.78.066 3.82 1.311.4-1.01 1.775.504 2.423.336 1.177 2.593 1.57.683 2.765-1.426.482-3.69-.552-4.549.408 1.963 1.544-.768 2.762-2.075 3.127-1.109.753-1.845-1.007-3.154-.456l-.314-.194z" fill="url(#l)"/><path d="M349.75 131.22c-1.512-.425-2.486-1.385-3.972-1.721.966-1.444-.534-2.97-2.002-1.797-1.689-.006-2.83-1.468-1.38-2.576-.665-1.961 1.901-.999 2.51-2.339 2.311.154 3.13-2.32 5.187-2.613 1.473-1.569 3.406-3.155 5.55-1.394 1.217 1.306 4.146 1 4.216 3.288.5 1.899 1.398 3.89 2.904 5.036-.022 1.01 1.271 3.368-.863 3.452-.594 1.122-.909 3.451-2.537 2.05-1.543.044-1.374 3.459-3.201 1.466-.264-1.696-2.64-.92-2.952-2.172-1.184.59-2.957.226-3.46-.68z" fill="url(#m)"/></g></svg>