<svg xmlns="http://www.w3.org/2000/svg" xmlns:xlink="http://www.w3.org/1999/xlink" width="111.347" height="236.026" viewBox="0 0 29.46 62.449"><defs><linearGradient id="g"><stop offset="0" stop-color="#ebf560"/><stop offset="1" stop-color="#94bb47"/></linearGradient><linearGradient id="f"><stop offset="0" stop-color="#dceb5c"/><stop offset="1" stop-color="#72871d"/></linearGradient><linearGradient id="e"><stop offset="0" stop-color="#637713"/><stop offset="1" stop-color="#c4e055"/></linearGradient><linearGradient id="d"><stop offset="0" stop-color="#ebf560"/><stop offset="1" stop-color="#94bb47"/></linearGradient><linearGradient id="c"><stop offset="0" stop-color="#f1fc78"/><stop offset="1" stop-color="#86b148"/></linearGradient><linearGradient id="b"><stop offset="0" stop-color="#79f215"/><stop offset="1" stop-color="#63a708"/></linearGradient><linearGradient id="a"><stop offset="0" stop-color="#052"/><stop offset="1" stop-color="#9bcb21"/></linearGradient><radialGradient xlink:href="#g" id="h" cx="219.969" cy="211.87" fx="219.969" fy="211.87" r="14.184" gradientTransform="matrix(.08744 2.01107 -2.17956 .09476 662.519 -257.84)" gradientUnits="userSpaceOnUse"/></defs><g fill="url(#h)" stroke="#000" stroke-width=".794" transform="translate(-206.534 -186.605)"><path d="M215.693 235.888c-1.857-15.906-2.82-31.493-8.403-48.729 12.563 12.94 11.776 32.366 15.345 49.675"/><path d="M224.213 244.933c-1.857-15.905-2.82-31.492-8.403-48.728 12.563 12.94 11.776 32.365 15.345 49.675M215.75 242.972c-1.441-12.353-2.19-24.459-6.525-37.845 9.757 10.05 9.146 25.137 11.917 38.58"/><path d="M223.095 244.933c1.442-12.353 2.19-24.458 6.526-37.844-9.757 10.05-9.146 25.136-11.917 38.58"/><path d="M228.88 248.194c1.442-12.353 2.19-24.458 6.527-37.845-9.758 10.05-9.146 25.137-11.918 38.58"/></g></svg>