<svg xmlns="http://www.w3.org/2000/svg" viewBox="0 0 30.212 30.212" height="114.188" width="114.188"><g stroke="#000"><path d="M4.096 29.804l9.155-2.866 13.234-16.32L23.473.433l-1.386.571 2.471 8.79L12.31 25.451 4.223 28.12z" fill="#deaa87" stroke-width=".5293059600000001"/><path d="M11.575 25.305l.952 2.206.926-.35.503-.698-1.508-1.865-.226.527z" fill="#803300" stroke-width=".16867469999999998"/><path d="M23.941 10.312l.524-.425-.264-.831 2.213-.293.372 1.935-.52.67zM17.075 18.982l1.936 1.551 2.695-3.559-1.951-1.251z" fill="#803300" stroke-width=".26465298000000004"/><path d="M4.002 29.132L22.69.791" fill="none" stroke-width=".5293059600000001"/><path d="M21.846.849l.191.563L23.74.766l-.176-.59zM3.857 30.033l.443-.123.24-1.922-.44-.157z" fill="#a05a2c" stroke-width=".26465298000000004"/><path d="M4.037 29.193l8.456-2.347.743-.404 12.19-15.317.9-.546-8.467 10.602-4.643 5.662-9.088 2.916z" opacity=".2" stroke-width=".26465298000000004"/></g></svg>