<svg xmlns="http://www.w3.org/2000/svg" width="68.441" height="68.441" viewBox="0 0 18.108 18.108"><g transform="matrix(1.28517 0 0 1.06182 -98.18 -234.575)"><path d="M80.209 231.841c.1.643-.089 1.161.363 1.553 2.466-.023 4.167.542 6.552-.276.039-.587.054-1.023.15-1.786-1.073.415-1.667.387-2.9.413-1.814.178-2.346.077-4.165.096z" fill="#9c816f" stroke="#000" stroke-width=".226"/><path d="M80.3 232.302l.298.69 3.613.23-.591-1.073z" opacity=".2" stroke="#000" stroke-width=".226"/><path d="M79.685 225.141l.558 6.765 6.947-.387.36-7.151L86.191 222l-2.316-.966-2.076.241-2.475 2.127z" fill="#99796c" stroke="#000" stroke-width=".226"/><path d="M80.323 231.858l-1.317 5.653 4.232.338-.04-6.185z" fill="#9c816f" stroke="#000" stroke-width=".226"/><path d="M79.924 228.234l7.426-1.257v1.74l-7.31 1.185zM80.124 231.085l7.066-1.015M80.762 224.368l6.588 1.45v1.111l-7.346 1.208-.44-4.01.84-.242z" fill="none" stroke="#000" stroke-width=".226"/><path d="M83.517 224.9l2.954-2.32 1.078 1.595-.2 1.594z" fill="none" stroke="#000" stroke-width=".226"/><ellipse cx="80.929" cy="225.792" rx=".297" ry=".372" fill="#e6e6e6" stroke="#1a1a1a" stroke-width=".129" stroke-linecap="square" stroke-linejoin="round" paint-order="fill markers stroke"/><ellipse ry=".372" rx=".297" cy="226.01" cx="82.566" fill="#e6e6e6" stroke="#1a1a1a" stroke-width=".129" stroke-linecap="square" stroke-linejoin="round" paint-order="fill markers stroke"/><ellipse cx="84.602" cy="226.203" rx=".297" ry=".372" fill="#e6e6e6" stroke="#1a1a1a" stroke-width=".129" stroke-linecap="square" stroke-linejoin="round" paint-order="fill markers stroke"/><ellipse ry=".372" rx=".297" cy="226.372" cx="86.219" fill="#e6e6e6" stroke="#1a1a1a" stroke-width=".129" stroke-linecap="square" stroke-linejoin="round" paint-order="fill markers stroke"/><path d="M80.283 232.244l-1.257 5.098 4.192.459z" opacity=".2" stroke="#000" stroke-width=".226"/><ellipse ry=".372" rx=".297" cy="230.31" cx="81.228" fill="#e6e6e6" stroke="#1a1a1a" stroke-width=".129" stroke-linecap="square" stroke-linejoin="round" paint-order="fill markers stroke"/><ellipse cx="83.145" cy="230.068" rx=".297" ry=".372" fill="#e6e6e6" stroke="#1a1a1a" stroke-width=".129" stroke-linecap="square" stroke-linejoin="round" paint-order="fill markers stroke"/><ellipse ry=".372" rx=".297" cy="229.851" cx="85.101" fill="#e6e6e6" stroke="#1a1a1a" stroke-width=".129" stroke-linecap="square" stroke-linejoin="round" paint-order="fill markers stroke"/><ellipse cx="86.756" cy="229.529" rx=".297" ry=".372" fill="#e6e6e6" stroke="#1a1a1a" stroke-width=".129" stroke-linecap="square" stroke-linejoin="round" paint-order="fill markers stroke"/><path d="M81.586 224.536l-.91-1.136.4-1.035 1.53-1.135" fill="none" stroke="#000" stroke-width=".226"/></g></svg>