<svg xmlns="http://www.w3.org/2000/svg" xmlns:xlink="http://www.w3.org/1999/xlink" viewBox="0 0 18.244 18.244" height="68.955" width="68.955"><defs><linearGradient id="b"><stop offset="0" stop-color="#666"/><stop offset="1" stop-color="#9c816f" stop-opacity="0"/></linearGradient><linearGradient id="a"><stop offset="0" stop-color="#e6e6e6"/><stop offset="1" stop-color="gray"/></linearGradient><linearGradient gradientUnits="userSpaceOnUse" y2="247.14" x2="86.057" y1="241.078" x1="85.382" id="c" xlink:href="#b"/></defs><path d="M80.866 221.99c.74-.28 1.428-.898 2.266-.679.742.133 1.625-.094 2.262.375.28.181.658.32.446.714l-1.007 6.094c-.823.149-1.737.477-1.923-.63l-2.41-4.597.366-1.277z" fill="#363922" stroke="#000" stroke-width=".226" transform="matrix(1.28517 0 0 1.06182 -96.892 -234.306)"/><path d="M78.39 229.533c.063.44-.374 1.478-.394 1.995-.016.424.362.348.562.573 2.273.152 4.572.027 6.813-.38.614-.265 1.478-.075 1.41-.923l.822-.315-.786-3.947c-.948-.108-1.969.429-2.125 1.426-.054.791-.414-.072-.586-.332-.3-.754-1.344-.16-1.971-.32l-3.351.078c-.646.435-1.229.878-.62 1.642.068.171.141.34.226.503z" fill="#4a8b2b" stroke="#000" stroke-width=".226" transform="matrix(1.28517 0 0 1.06182 -96.892 -234.306)"/><path d="M83.08 243.996l1.221.007.94.367.772-.484.805.11.551-.718 1.051-.575-.979-8.834-4.717-1.616-2.581 3.016v7.11z" fill="url(#c)" stroke="#000" stroke-width=".226" transform="matrix(1.28517 0 0 1.06182 -96.892 -234.306)"/><path d="M6.244 16.887c.201.482 2.094 1.503.445 1.307-1.162.023-2.765-.34-2.915-1.463.359-1.048.695-2.159 1.295-3.144 1.074-.744 1.225 1.284.838 1.873-.196.497-.048 1.02.337 1.427z" fill="#666"/><g stroke-width=".226" stroke="#000"><path d="M108.754 222.319c-.42.858-1.108 1.645-1.074 2.656-.048 1.57-.71 3.006-1.151 4.486-.397.538.424 1.023.892.99 1.134-.196 2.298-.286 3.412-.563.768-.52 1.685-.56 2.573-.68.63-.208 1.7-.228 2.026-.707-1.222-2.389-2.61-4.683-4.024-6.961h-2.171c-.16.26-.322.519-.483.779zM115.51 228.645c.314-2.436.687-4.872.797-7.328.512-1.272 1.559.31 2.11.768.52.508 1.667.717 1.89 1.223-.453 1.272-1.044 2.533-1.995 3.508-.742.61-1.484 1.234-2.381 1.607l-.421.222z" fill="#4a8b2b" transform="matrix(1.28517 0 0 1.06182 -136.527 -234.363)"/><path d="M115.027 227.964c-.836.291-1.685.617-2.59.482a12.738 12.738 0 00-4.648.783c-.672-.2-1.528-.434-1.436.557.574.914 1.73.489 2.621.532.937-.02 1.82-.246 2.591-.762 1.28-.252 2.638-.368 3.816-.93-.013-.259-.283-.42-.354-.662zM115.67 227.77c-.205.457-.256.938.354.502 1.264-.636 2.36-1.568 3.27-2.646.273-.821 1.034-1.833.993-2.537-.928-.295-.813 1.297-1.374 1.774-.667.786-1.285 1.616-1.966 2.391l-1.276.515z" fill="#d4aa00" transform="matrix(1.28517 0 0 1.06182 -136.527 -234.363)"/></g><path d="M78.01 236.175l-1.451 6.347c-.048.932 1.162.174 1.003 1.119.296.942 1.82.837 2.612.877.618.252 1.405.487 1.799-.183.458.632 1.424.767 2.03.29.135-3.822.332-7.66.492-11.488-1.65-.207-3.321-.31-4.956-.583-.412-.222-.187.075-.598-.147z" fill="#4a8b2b" stroke="#000" stroke-width=".226" transform="matrix(1.28517 0 0 1.06182 -96.892 -234.306)"/><path d="M77.446 238.262h1.006c-.106.948 1.333 1.102 2.003 1.306.676-.286.695.602 1.425.29.515.143 1.485-.403 1.272.307.522.012 1.347-.136.993.693l-.25 3.92c-.816.135-1.513.223-2.042-.491-.466 1.058-1.496-.084-2.258.203-.755-.373-2.265-.008-2.115-1.207-.228-.414-1.2.158-.984-.77.28-1.42.635-2.833.95-4.25z" fill="#d4aa00" stroke="#000" stroke-width=".226" transform="matrix(1.28517 0 0 1.06182 -96.892 -234.306)"/><path d="M87.3 231.854l1.596 11.678-.817.958-1.423-11.3.644-1.336z" fill="#4a8b2b" stroke="#000" stroke-width=".226" transform="matrix(1.28517 0 0 1.06182 -96.892 -234.306)"/><path d="M87.489 238.651c.336-.288.898-.885.826-.041l.77 4.914-1.006.84-.59-5.713z" fill="#d4aa00" stroke="#000" stroke-width=".226" transform="matrix(1.28517 0 0 1.06182 -96.892 -234.306)"/><path d="M78.324 231.882c-.859.667-.348 2.224.802 1.673 2.466-.022 5.025.422 7.41-.397.958-.296 1.451-1.747.67-2.414-1.073.415-2.187 1.015-3.42 1.042-1.814.177-3.643.076-5.462.096z" fill="#9c816f" stroke="#000" stroke-width=".226" transform="matrix(1.28517 0 0 1.06182 -96.892 -234.306)"/><path d="M84.72 232.265c.627 3.188-.064 6.434-.807 9.539l1.931-.705-.169-9.09-.956.256z" fill="#9c816f" stroke="#000" stroke-width=".226" transform="matrix(1.28517 0 0 1.06182 -96.892 -234.306)"/><path d="M85.23 232.805c.834 2.507.727 5.212.322 7.79-.08.666-.523 2.297.614 1.369.758-.268 1.273-.67.99-1.536-.103-2.688-.092-5.445-1-8.012l-.926.389z" fill="#9c816f" stroke="#000" stroke-width=".226" transform="matrix(1.28517 0 0 1.06182 -96.892 -234.306)"/><path d="M84.786 231.723c-.731.663-.284 2.459.893 1.708 1.345.246 1.196-2.08.067-2.15-.374-.018-.677.233-.96.442z" fill="#9c816f" stroke="#000" stroke-width=".226" transform="matrix(1.28517 0 0 1.06182 -96.892 -234.306)"/><path d="M77.363 242.951l1.491-6.436M79.98 244.381l.28-6.64M81.274 244.79l-.197-7.526M82.54 244.858l.506-4.563M81.837 244.109l.112-5.687" fill="none" stroke="#000" stroke-width=".226" transform="matrix(1.28517 0 0 1.06182 -96.892 -234.306)"/><path d="M78.587 221.888l-.858 1.55-.408 1.038.014 1.226-1.126 2.895.69.238 2.644-.613 1.956-.136-1.871-.869-.788-1.328-.591-1.737zM78.424 230.224l-.35 1.303.316.254 2.982.12 2.153-.12-.352-1.652-.155-1.073-2.18.307-.788.528zM86.423 222.552l-.099 3.44.802-1.005-.45-1.056-.24-1.958zM78.647 233.906l-.68 3.75.282.306 1.223-4.047zM79.67 238.881l-.028-1.856.197-2.18.366 1.533 1.449 1.04.998 1.43.859.715-1.379-.137-1.984-.391zM78.235 232.343l.098.834 5.29.085-.59-1.072zM85.143 231.696l-.436.63v.494l.309.323.563.051.76-.05-.69-.58-.253-.783zM84.102 241.623l1.097-.392.661-3.133-.366-4.631-.506.119.084 1.6-.577 3.832z" opacity=".2" stroke="#000" stroke-width=".226" transform="matrix(1.28517 0 0 1.06182 -96.892 -234.306)"/></svg>