<svg xmlns="http://www.w3.org/2000/svg" width="163.645" height="163.645" viewBox="0 0 43.298 43.298"><g transform="matrix(.69458 0 0 .69458 -22.258 -22.397)"><path fill="#00aad4" paint-order="fill markers stroke" d="M32.009 32.242h62.382V94.59H32.009z"/><path d="M91.627 32.84v-.289h-.336v.288h.336m-2.346 4.04h.335v-.289.289m3.016-3.174h-.335v.289h.335v-.289m-1.005.577v.289h.335v-.289h-.335m.335 1.443v-.289h-.335v.289h.335m1.675.288v.289h.335v-.289h-.335m-3.686-2.885v.577h.67v-.577z" fill="#24a159"/><path d="M89.616 36.879l-.094.288h5.12l.028-4.982-3.043.016v.638h-.336v-.638h-2.01l.427 2.944-.182 1.388.09.057v.289m.335-.866v.289h-.335v-.289h.335m0-2.308v-.577h.67v.577h-.67m3.351 2.308h-.67v-.577h.67v.577m.335.289v-.289h.335v.289h-.335m-1.675 0h.335v.288h-.335v-.288m2.345-2.885v.288h-.335v-.288h.335m-2.345 2.02v.288h-.335v-.289h.335m-.335-.865v-.289h.335v.289h-.335m2.01.288v.289h-.335v-.289h.335m-1.34-1.154h.335v.289h-.335v-.289m-1.006 0v.289h-.335v-.289z" fill="#27ae60"/><path d="M91.291 33.994v-.289h-.335v.289h.335m2.346 1.154v-.289h-.335v.289h.335m.67-1.443v-.288h-.335v.288h.335m-2.01 2.597h-.335v.288h.335v-.288m.335-.289h.67v-.577h-.67v.577m-2.681.289v-.289h-.335v.289z" fill="#29b865"/><path d="M94.71 36.898l-3.601.393-1.12-.004-.467-.12v-.358l.01-1.169-.315-2.82.093-.619-3.614-.056 1.316 4.093.61 1.583.13.827.144.726 1.07-.01 2.298-.029 3.467-.043z" fill="#fea"/><circle cx="48.322" cy="50.37" r="8.08" opacity=".3" fill="#fff" paint-order="fill markers stroke"/><circle r="2.963" cy="50.909" cx="80.645" opacity=".3" fill="#fff" paint-order="fill markers stroke"/><circle cx="59.501" cy="83.097" r="5.252" opacity=".3" fill="#fff" paint-order="fill markers stroke"/><path opacity=".3" fill="#fff" paint-order="fill markers stroke" d="M41.203 67.116h16.7v14.806h-16.7z"/><circle cx="83.717" cy="77.736" r="1.725" opacity=".3" fill="#fff" paint-order="fill markers stroke"/><circle r="2.82" cy="69.688" cx="77.289" opacity=".3" fill="#fff" paint-order="fill markers stroke"/></g></svg>