<svg xmlns="http://www.w3.org/2000/svg" width="163.645" height="163.645" viewBox="0 0 43.298 43.298"><path fill="#37abc8" paint-order="stroke fill markers" d="M.004 3.081h41.668v40.26H.004z"/><path fill="#8da916" paint-order="stroke fill markers" d="M0-.226h42.751V3.64H0z"/><path d="M41.506 3.585l-.99.43-1.49-.462-1.85.103-2.21-.617-1.97.406-1.01-.098-1.8-.513-2.517.513-3.855.309-1.182-.206-1.952-.41-3.495.153-1.799-.051-3.237-.771-1.365 1.12-3.004-.863H1.973l-1.901.617-.365-.058-.046 2.524 2.57-.77s3.134.513 3.34.565c.205.051 3.7.154 3.7.154l2.672-.976 1.593-1.131 2.878.874 2.21.205 2.313-.308 3.546.205 1.952.155 2.673-.514 3.032.565.903.843 2.778-1.525 1.458.425 2.93.514z" fill="#fea"/><path fill="#8da916" paint-order="stroke fill markers" d="M43.357-.243V43.38h-3.165V-.243z"/><path d="M40.84 44.193l.105-.922-.421-.71.122-1.016-.43-.989.462-1.49-.103-1.85.617-2.21-1.014-1.923.706-1.058.514-1.799-.514-2.518-.309-3.854.206-1.182.411-1.953-.154-3.494.051-1.8.771-3.237-1.682-1.332 1.425-3.036V4.07l.328-1.074-.71-.662-.965.516L38.6 4.053l-.572.018s.749 1.334.697 1.54c-.051.205-.154 3.7-.154 3.7l.977 2.672-.556 1.824.813 2.647-.206 2.21.308 2.312-.205 3.546-.154 1.953.514 2.672-.566 3.032-.843.904 1.525 2.778-.425 1.457-.514 2.93-.36 2.364-.007 1.593z" fill="#fea"/></svg>