<svg xmlns="http://www.w3.org/2000/svg" width="163.645" height="163.645" viewBox="0 0 43.298 43.298"><g transform="matrix(0 -.69458 -.69458 0 66.383 66.244)"><path fill="#00aad4" paint-order="stroke fill markers" d="M96.08 96.061V27.218H26.432v68.843z"/><path fill="#27ae60" paint-order="stroke fill markers" d="M95.275 27.218H26.432V39.43h68.843z"/><path fill="#27ae60" paint-order="stroke fill markers" d="M38.643 96.061V27.218H26.431v68.843z"/><circle cx="-87.955" cy="-77.414" r="4.095" transform="matrix(0 -1 -1 0 0 0)" opacity=".2" fill="#fff" paint-order="stroke fill markers"/><path opacity=".4" fill="#fff" paint-order="stroke fill markers" d="M58.368 81.955v-10.17h-6.285v10.17z"/><path opacity=".2" fill="#fff" paint-order="stroke fill markers" d="M83.84 64.746l5.03-7.406-7.407-5.029-5.028 7.406z"/><path d="M63.505 65.284l1.065 3.139-1.982 2.656 3.313-.043 1.914 2.706.983-3.165 3.165-.983-2.706-1.914.043-3.314-2.656 1.982zM92.6 77.94l-.623 2.322-.622 2.323 2.322-.622L96 81.34l-1.7-1.7z" opacity=".3" fill="#fff" paint-order="stroke fill markers"/><path d="M62.218 89.043l.47 1.754.47 1.755 1.284-1.285 1.285-1.284-1.755-.47z" opacity=".4" fill="#fff" paint-order="stroke fill markers"/><path d="M49.845 85.24l-1.634.438-1.635.438 1.197 1.196 1.197 1.197.438-1.635z" opacity=".1" fill="#fff" paint-order="stroke fill markers"/><path d="M58.937 53.957H53.99l1.237 2.142 1.237 2.143L57.7 56.1z" opacity=".3" fill="#fff" paint-order="stroke fill markers"/><path fill="#27ae60" paint-order="stroke fill markers" d="M49.467 52.274V34.766H34.046v17.508z"/><path fill="#27ae60" paint-order="stroke fill markers" d="M45.831 56.516V39.008H30.41v17.508z"/><path d="M95.397 39.608l-1.42 2.885-4.143 1.637-2.332 1.954-2.3-1.555-3.192.579-2.647-1.415-2.48 1.879-3.579-.54-2.743-.76-3.22-.835-4.879.646-.92-.128-2 .988-1.913 2.316-3.772 3.32-2.97 2.75-4.04 1.828 1.26 3.08-3.125 4.23-2.788 3.868-.364 3.788-2.065 4.48 1.897 2.563-1.76 5.06-.221 5.327-.814 4.809 1.11 3.7-3.634-.067.082-.525-.887-2.738v-8.36L37.59 80l-2.423-1.918 1.11-4.66.075-2.59-.223-5.032.592-2.811.296-1.702 1.442-2.643.073-4.044 2.109-.615-1.065-2.306.93-2.192 1.878-1.809 2.952-4.56 1.508-2.675 1.407.89.283-1.55.937-2.594-.17-1.883 4.662 1.11 2.59.074 3.684.384 3.956-.082 1.904.364 5.55-.444 3.625-.74 2.59.74 1.522 1.016 2.769-1.46 3.181.888 2.664-.148 2.145.666 1.424-.62 1.462.175 1.023-.605 1.328.15z" fill="#fea"/></g></svg>