<svg xmlns="http://www.w3.org/2000/svg" width="163.645" height="163.645" viewBox="0 0 43.298 43.298"><g transform="matrix(0 -.69458 -.69458 0 66.383 66.244)"><path fill="#00aad4" paint-order="stroke fill markers" d="M95.681 95.573V32.442H33.036v63.131z"/><path d="M35.354 92v4h.372v-4h-.372m2.608-56h-.373v4h.373v-4m-3.726 44h.372v-4h-.372v4m1.118-8v-4h-.373v4h.373m-.373-20v4h.373v-4h-.373m-1.863-4v-4h-.373v4h.373m4.099 40v-8h-.746v8z" fill="#24a159"/><path d="M37.59 36h.372v-4H32v64h3.354v-4h.372v4h2.236V40h-.373v-4m-.372 12v-4h.372v4h-.372m0 32v8h-.746v-8h.746M33.49 48h.746v8h-.746v-8m-.372-4v4h-.373v-4h.373m1.863 0h-.373v-4h.373v4m-2.608 40v-4h.372v4h-.372m2.608-28v-4h.373v4h-.373m.373 12v4h-.373v-4h.373m-2.236-4v-4h.372v4h-.372m1.49 16h-.372v-4h.372v4m1.118 0v-4h.373v4z" fill="#27ae60"/><path d="M35.726 76v4h.373v-4h-.373m-2.608-16v4h.372v-4h-.372m-.745 20v4h.372v-4h-.372m2.235-36h.373v-4h-.373v4m-.372 4h-.746v8h.746v-8m2.98-4v4h.373v-4z" fill="#29b865"/><path d="M36.637 32.004l-.152 1.327.606 1.024-.175 1.462.619 1.424-.666 2.145.148 2.664-.888 3.181L37.59 48l-1.016 1.523-.74 2.59.74 3.625.444 5.549-.296 1.702-.592 2.811.222 5.031-.074 2.59-1.11 4.661L37.59 80l-2.052 4.371v8.361l.888 2.738-.083.525 3.635.066-1.11-3.699s4.183-6.084 4.257-6.38c.074-.296-1.59-5.085-1.59-5.085l.95-4.392.729-5.012-.313-4.022.9-4.813-2.982-.973 1.746-4.2-1.107-4.321 1.858-3.002-.273-3.46 2.784-3.656-3.283-2.973.914-3.608-1.495-1.862-1.174-1.047-1.318-1.57z" fill="#fea"/><circle cx="-81.404" cy="-83.454" r="4.963" transform="matrix(0 -1 -1 0 0 0)" opacity=".2" fill="#fff" paint-order="stroke fill markers"/><circle transform="matrix(0 -1 -1 0 0 0)" r="7.624" cy="-82.231" cx="-71.695" opacity=".2" fill="#fff" paint-order="stroke fill markers"/><circle cx="-47.96" cy="-68.422" r="3.596" transform="matrix(0 -1 -1 0 0 0)" opacity=".2" fill="#fff" paint-order="stroke fill markers"/><circle transform="matrix(0 -1 -1 0 0 0)" r="7.768" cy="-85.108" cx="-42.206" opacity=".2" fill="#fff" paint-order="stroke fill markers"/><circle cx="-74.644" cy="-60.87" r="16.039" transform="matrix(0 -1 -1 0 0 0)" opacity=".1" fill="#fff" paint-order="stroke fill markers"/><circle transform="matrix(0 -1 -1 0 0 0)" r="3.668" cy="-62.021" cx="-39.545" opacity=".1" fill="#fff" paint-order="stroke fill markers"/><circle cx="-91.761" cy="-90.071" r="2.949" transform="matrix(0 -1 -1 0 0 0)" opacity=".1" fill="#fff" paint-order="stroke fill markers"/><path d="M77.772 53.426l.442 2.775-2.035 1.937 2.775.437 1.213 2.534 1.273-2.504 2.785-.37-1.988-1.986.508-2.763-2.502 1.278zM75.47 88.812l-2.394.624-2.352-.768.623 2.395-.767 2.352 2.394-.623 2.353.767-.623-2.394zM50.442 55.584l-2.107.54-2.065-.684.539 2.107-.683 2.065 2.107-.54 2.065.684-.54-2.107z" opacity=".1" fill="#fff" paint-order="stroke fill markers"/><path d="M68.134 72.702l1.919 9.882 1.918 9.882 7.6-6.603 7.598-6.602-9.517-3.28zM86.547 42.926l-4.75.226-.6-4.716-2.783 3.854-4.061-2.472 1.277 4.58-4.465 1.634 4.378 1.856-1.507 4.51 4.18-2.265 2.588 3.99.836-4.68 4.731.464-3.138-3.572zM54.47 80.038l-4.018.274-1.476-3.747-1.771 3.617-3.983-.596 2.247 3.342-2.507 3.151 4.017-.274 1.476 3.747 1.77-3.617 3.983.596-2.246-3.342z" opacity=".1" fill="#fff" paint-order="stroke fill markers"/></g></svg>