<svg xmlns="http://www.w3.org/2000/svg" width="186.601" height="186.601" viewBox="0 0 49.372 49.372"><path d="M25.022 48.901c7.247-.4 14.795-.41 21.52-3.402 5.626-4.124 1.361-12.882-5.48-12.11-6.9-1.813-14.066-1.089-20.916.502-5.255-.779-6.275 3.914-3.128 7.184 2.014 2.98 6.396 4.175 8.004 7.826z" opacity=".5" fill="#1a1a1a"/><path d="M10.586 11.888l11.928-7.273 3.616 1.787-15.96 8.52z" fill="#d0ccbb" stroke="#000" stroke-width=".265"/><path d="M38.264 11.181L26.336 3.908 22.72 5.695l15.96 8.52z" fill="#d0ccbb" stroke="#000" stroke-width=".265"/><path d="M25.006 7.15l.042 2.826L12.87 17l-.207-3.574z" fill="#aaa384" stroke="#000" stroke-width=".265"/><path d="M25.09 7.025l12.8 7.107-1.828 2.162-11.139-6.36z" fill="#d0ccbb" stroke="#000" stroke-width=".265"/><path d="M25.048 10.018L12.912 17l12.552 7.315 10.057-5.652.582-2.411z" fill="#aaa384" stroke="#000" stroke-width=".265"/><path d="M9.213 14.05L9.13 40.315l16.292 8.977-.25-26.682zM24.757 19.369l-11.928-7.273-3.616 1.787 15.96 8.52z" fill="#d0ccbb" stroke="#000" stroke-width=".265"/><path d="M25.131 22.57l16.043-8.978.166 26.6-15.876 8.893z" fill="#aaa384" stroke="#000" stroke-width=".265"/><g stroke="#000" stroke-width=".265" stroke-linejoin="bevel"><path d="M22.86 1.503l2.1 1.215 2.247-1.19L25.224.264z" fill="#fbf6d9"/><path d="M22.917 1.719l-.06 3.747 2.16 1.175-.058-3.835z" fill="#d0ccbb"/><path d="M24.96 2.747l2.291-1.116.015 3.32-2.336 1.705.058-2.498-.044-.75z" fill="#aaa384"/></g><path d="M25.798 19.12l11.928-7.274 3.615 1.788-15.96 8.52z" fill="#d0ccbb" stroke="#000" stroke-width=".265"/><path d="M13.37 42.352l-.042-2.327-.083-2.785v-1.579l.29-1.496.749-1.372.914-.623h1.413l1.455.79 1.205 1.662.706 1.496s.5.998.54 1.206c.042.207.416 1.579.416 1.579s.167 2.161.208 2.369c.042.208-.499 2.91-.499 2.91l-.166 1.163-.166.914z" fill="none" stroke="#000" stroke-width=".265"/><path d="M13.432 42.332l7.148-3.928-.27-1.247-1.226-2.867-1.06-1.476-1.08-.52-.894-.145-.935.187-.873.561-.52 1.143-.374 1.143-.124 1.164.124 2.14-.02 3.284z" fill="gray" stroke="#000" stroke-width=".265"/><path d="M15.177 42.498l.291-10.328M16.736 43.204l.207-10.889M18.19 43.911l.208-10.557M19.728 44.93l.291-8.687M20.393 43.558l-6.359-3.7M20.58 40.71l-6.442-2.763M20.414 37.718l-6.214-2.14" fill="none" stroke="#000" stroke-width=".265"/><path d="M13.245 28.907l1.33.665.166-2.514-.187-.894s-.229-.311-.291-.332c-.063-.021-.354-.208-.457-.25-.104-.041-.458-.02-.458-.02l-.062.145-.104 1.185.02 1.35zM19.77 32.523l1.413.748.083-2.722-.166-.852s-.354-.436-.458-.457c-.104-.021-.436-.042-.436-.042l-.312.208-.124.977v1.704zM19.749 25.458l1.413.748.083-2.722-.166-.852s-.353-.437-.457-.458c-.104-.02-.437-.041-.437-.041l-.311.208-.125.976v1.704zM13.286 21.884l1.413.748.083-2.723-.166-.852s-.353-.436-.457-.457c-.104-.02-.437-.041-.437-.041l-.311.207-.125.977v1.704z" fill="#666" stroke="#000" stroke-width=".265"/><path d="M9.326 15.473l2.351 1.308.03 1.22-2.396-1.22zM9.311 17.383l1.705.764v1.293l-1.72-.69zM9.267 19.176l2.351 1.308.03 1.22-2.395-1.22zM9.253 21.086l1.704.764v1.293l-1.72-.69zM9.311 23.07l2.351 1.308.03 1.22-2.395-1.22zM9.297 24.98l1.704.764v1.293l-1.72-.69zM9.27 26.894l2.35 1.307.03 1.22-2.395-1.22zM9.255 28.804l1.705.764v1.293l-1.72-.69zM9.311 30.821l2.351 1.308.03 1.22-2.395-1.22zM9.297 32.731l1.704.764v1.294l-1.72-.691zM9.249 34.707l2.351 1.308.03 1.22-2.396-1.22zM9.234 36.617l1.705.764v1.293l-1.72-.69zM9.27 38.572l2.35 1.308.03 1.22-2.395-1.22zM25.112 48.95l-2.351-1.308-.03-1.22 2.396 1.22zM25.127 47.04l-1.705-.765v-1.293l1.72.69zM25.17 45.247l-2.35-1.308-.03-1.22 2.395 1.22zM25.185 43.337l-1.704-.765V41.28l1.719.691zM25.127 41.353l-2.352-1.308-.029-1.22 2.395 1.22zM25.141 39.443l-1.704-.765v-1.293l1.719.691zM25.168 37.53l-2.351-1.309-.03-1.22 2.396 1.22zM25.183 35.619l-1.705-.764v-1.293l1.72.69zM25.127 33.602l-2.352-1.308-.029-1.22 2.395 1.22zM25.141 31.691l-1.704-.764v-1.293l1.719.69zM25.189 29.716l-2.351-1.308-.03-1.22 2.396 1.22zM25.204 27.805l-1.705-.764v-1.293l1.72.69zM25.168 25.85l-2.351-1.307-.03-1.22 2.396 1.22zM25.437 48.827l1.705-.765V46.77l-1.72.691zM25.393 47.034l2.351-1.308.03-1.22-2.396 1.22zM25.378 45.124l1.705-.764v-1.294l-1.72.691zM25.437 43.14l2.351-1.308.03-1.22-2.396 1.22zM25.422 41.23l1.705-.764v-1.293l-1.72.69zM25.396 39.316l2.35-1.307.03-1.22-2.395 1.22zM25.38 37.406l1.705-.764v-1.293l-1.719.69zM25.437 35.389l2.351-1.308.03-1.22-2.396 1.22zM25.422 33.479l1.705-.765v-1.293l-1.72.691zM25.375 31.503l2.35-1.308.03-1.22-2.395 1.22zM25.36 29.593l1.705-.765v-1.293l-1.72.691zM25.396 27.638l2.35-1.308.03-1.22-2.395 1.22zM25.354 25.677l1.705-.764V23.62l-1.72.69z" fill="#916f6f" stroke="#000" stroke-width=".265"/><path d="M41.125 15.164l-1.704.764v1.293l1.719-.69zM41.17 16.956l-2.352 1.308-.03 1.22 2.396-1.22zM41.184 18.866l-1.705.765v1.293l1.72-.691zM41.125 20.85l-2.35 1.308-.03 1.22 2.395-1.22zM41.14 22.76l-1.705.765v1.293l1.72-.691zM41.167 24.674l-2.351 1.308-.03 1.22 2.395-1.22zM41.181 26.584l-1.704.764v1.293l1.72-.69zM41.125 28.601l-2.35 1.308-.03 1.22 2.395-1.22zM41.14 30.512l-1.705.764v1.293l1.72-.69zM41.188 32.487l-2.352 1.308-.029 1.22 2.395-1.22zM41.202 34.398l-1.704.764v1.293l1.719-.69zM41.167 36.353l-2.351 1.307-.03 1.22 2.395-1.22zM41.208 38.313l-1.704.764v1.293l1.719-.69z" fill="#6c5353" stroke="#000" stroke-width=".265"/><g stroke="#000" stroke-width=".265" stroke-linejoin="bevel"><path d="M18.62 3.996l2.1 1.216 2.248-1.19-1.984-1.264z" fill="#fbf6d9"/><path d="M18.677 4.213L18.62 7.96l2.16 1.175-.06-3.835z" fill="#d0ccbb"/><path d="M20.72 5.241l2.292-1.117.015 3.321L20.69 9.15l.06-2.498-.045-.75z" fill="#aaa384"/></g><g stroke="#000" stroke-width=".265" stroke-linejoin="bevel"><path d="M27.182 3.913l2.1 1.216 2.248-1.19-1.984-1.264z" fill="#fbf6d9"/><path d="M27.239 4.13l-.059 3.746 2.16 1.176-.059-3.835z" fill="#d0ccbb"/><path d="M29.281 5.158l2.293-1.117.014 3.321-2.336 1.705.059-2.498-.044-.75z" fill="#aaa384"/></g><g stroke="#000" stroke-width=".265" stroke-linejoin="bevel"><path d="M31.504 6.49l2.1 1.215 2.248-1.19-1.984-1.263z" fill="#fbf6d9"/><path d="M31.561 6.706l-.058 3.747 2.16 1.176-.06-3.835z" fill="#d0ccbb"/><path d="M33.604 7.735l2.292-1.117.015 3.321-2.337 1.704.06-2.498-.045-.749z" fill="#aaa384"/></g><g stroke="#000" stroke-width=".265" stroke-linejoin="bevel"><path d="M36.16 9.566l2.099 1.215 2.248-1.19-1.984-1.264z" fill="#fbf6d9"/><path d="M36.216 9.782l-.059 3.747 2.16 1.175-.058-3.835z" fill="#d0ccbb"/><path d="M38.259 10.81l2.292-1.116.015 3.32-2.337 1.705.06-2.498-.045-.75z" fill="#aaa384"/></g><g stroke="#000" stroke-width=".265" stroke-linejoin="bevel"><path d="M14.048 6.74l2.1 1.215 2.248-1.19L16.413 5.5z" fill="#fbf6d9"/><path d="M14.106 6.956l-.06 3.747 2.16 1.175-.058-3.835z" fill="#d0ccbb"/><path d="M16.148 7.984l2.292-1.117.015 3.321-2.336 1.705.058-2.498-.044-.75z" fill="#aaa384"/></g><g stroke="#000" stroke-width=".265" stroke-linejoin="bevel"><path d="M9.56 9.82l2.1 1.216 2.248-1.19-1.984-1.264z" fill="#fbf6d9"/><path d="M9.617 10.037l-.059 3.747 2.16 1.176-.059-3.836z" fill="#d0ccbb"/><path d="M11.66 11.066l2.292-1.117.014 3.32-2.336 1.705.059-2.498-.044-.75z" fill="#aaa384"/></g><g stroke="#000" stroke-width=".265" stroke-linejoin="bevel"><path d="M14.215 12.309l2.1 1.215 2.248-1.19-1.984-1.264z" fill="#fbf6d9"/><path d="M14.272 12.525l-.059 3.747 2.16 1.175-.059-3.835z" fill="#d0ccbb"/><path d="M16.314 13.553l2.293-1.116.014 3.32-2.336 1.705.059-2.498-.044-.75z" fill="#aaa384"/></g><g stroke="#000" stroke-width=".265" stroke-linejoin="bevel"><path d="M18.703 14.72l2.1 1.215 2.248-1.19-1.984-1.264z" fill="#fbf6d9"/><path d="M18.76 14.935l-.058 3.747 2.16 1.176-.06-3.835z" fill="#d0ccbb"/><path d="M20.803 15.964l2.292-1.117.015 3.321-2.336 1.705.058-2.498-.044-.75z" fill="#aaa384"/></g><g stroke="#000" stroke-width=".265" stroke-linejoin="bevel"><path d="M23.109 17.047l2.1 1.215 2.248-1.19-1.984-1.264z" fill="#fbf6d9"/><path d="M23.166 17.263l-.059 3.747 2.16 1.175-.059-3.835z" fill="#d0ccbb"/><path d="M25.208 18.291l2.293-1.116.014 3.32L25.18 22.2l.059-2.498-.044-.75z" fill="#aaa384"/></g><g stroke="#000" stroke-width=".265" stroke-linejoin="bevel"><path d="M32.086 12.392l2.1 1.215 2.248-1.19-1.984-1.264z" fill="#fbf6d9"/><path d="M32.143 12.608l-.059 3.747 2.16 1.175-.058-3.835z" fill="#d0ccbb"/><path d="M34.186 13.637l2.292-1.117.015 3.32-2.337 1.705.059-2.498-.044-.75z" fill="#aaa384"/></g><g stroke="#000" stroke-width=".265" stroke-linejoin="bevel"><path d="M27.764 14.802l2.1 1.216 2.248-1.19-1.984-1.264z" fill="#fbf6d9"/><path d="M27.82 15.019l-.058 3.747 2.16 1.175-.059-3.835z" fill="#d0ccbb"/><path d="M29.863 16.047l2.293-1.117.014 3.321-2.336 1.705.059-2.498-.044-.75z" fill="#aaa384"/></g></svg>