<svg xmlns="http://www.w3.org/2000/svg" width="252.277" height="252.277" viewBox="0 0 66.748 66.748"><defs><filter id="b" x="-.231" width="1.462" y="-.555" height="2.11" color-interpolation-filters="sRGB"><feGaussianBlur stdDeviation=".708"/></filter><filter id="c" x="-.218" width="1.437" y="-.765" height="2.529" color-interpolation-filters="sRGB"><feGaussianBlur stdDeviation="2.361"/></filter><filter id="a" x="-.225" width="1.45" y="-.741" height="2.483" color-interpolation-filters="sRGB"><feGaussianBlur stdDeviation="2.361"/></filter><filter id="e" x="-.197" width="1.395" y="-1.197" height="3.393" color-interpolation-filters="sRGB"><feGaussianBlur stdDeviation="2.361"/></filter><filter id="f" x="-.267" width="1.533" y="-1.071" height="3.142" color-interpolation-filters="sRGB"><feGaussianBlur stdDeviation="2.361"/></filter><filter id="d" x="-.199" width="1.399" y="-.757" height="2.514" color-interpolation-filters="sRGB"><feGaussianBlur stdDeviation="2.834"/></filter><filter id="g" x="-.267" width="1.533" y="-.88" height="2.759" color-interpolation-filters="sRGB"><feGaussianBlur stdDeviation="2.801"/></filter></defs><g transform="translate(-68.003 -95.684)"><rect width="65.748" height="65.748" x="68.503" y="96.184" ry="0" fill="#8a0" stroke="#898032" stroke-linecap="round" stroke-linejoin="round" paint-order="stroke fill markers"/><path d="M99.597 111.697c4.282-.633 9.108-1.29 12.887 1.352 3.268 1.598 6.67 4.037 10.506 3.213 2.735.05 1.559 3.574-.7 2.187-4.293.389-9.027-.2-12.274-3.288-3.06-2.221-8.224-1.045-10.652-3.29l.233-.174z" opacity=".337" fill="#8d8a2f" filter="url(#a)"/><path d="M84.383 115.052c1.698 1.863 8.066-.692 4.692-2.384-1.534-.223-7.13-.652-4.692 2.384z" opacity=".427" fill="#8e8b2e" filter="url(#b)"/><path d="M85.017 112.556l.212 1.63M86.056 112.722v1.559M86.812 114.659c.304-.903 1.043-1.594 1.866-2.032" fill="none" stroke="#114b19" stroke-width=".265" stroke-linecap="round"/><path d="M68.86 150.451c3.968-.394 8.327-1.494 11.909.918 3.416 1.207 6.242 4.15 10.093 3.708 2.603-.453 5.955 2.56 1.504 2.003-4.421.364-9.09.545-12.482-2.917-3.277-1.793-7.03-1.993-10.576-2.76-.517.168-1.072-.753-.447-.952z" transform="matrix(.90636 0 0 .6488 11.58 55)" opacity=".337" fill="#8d8a2f" stroke="#114b19" stroke-width=".265" filter="url(#c)"/><path d="M103.26 127.04c3.96-.141 7.8 3.01 11.721 1.114.346-.108.692-.216 1.041-.312M97.38 144.48c.724.235 1.65.466 1.905 1.302M99.452 143.51c.311.559.689 1.137.668 1.805M101.723 143.21c-.293.689-.64 1.378-.701 2.138M74.972 135.186c2.83.223 5.715-.385 8.505.33M77.949 133.863c.45.454.89.936 1.181 1.512M79.555 133.769c-.263.538.763 1.778-.425 1.606M80.311 135.375c.465-.828 1.238-1.517 2.173-1.748M75.586 124.367c.806.236 1.507.969 1.512 1.842M79.555 124.556c-.602.258-1.466.567-1.465 1.37M73.366 126.257c1.244-.015 2.49.037 3.732-.048M73.883 116.74c.49.231.565.847.484 1.319M75.336 117.591l-.1.685M77.742 116.706c-.84.367-1.694 1.152-1.587 2.154M79.65 118.484c2.807.19 5.615.502 8.433.402M108.344 155.042c.085.326.518.409.535.769M109.113 154.474c.373.502 1.15.77 1.135 1.504M113.289 154.708c-.682.233-1.878.413-1.838 1.37M121.764 145.965c.106.178.529.89.634 1.07M122.484 145.55c.444.22.81.686.769 1.203M125.784 143.45c-1.148.827-1.841 2.23-1.838 3.641M122.597 147.2c1.66.19 3.427.064 4.91-.768M127.254 137.503l.267 1.202M128.59 137.67l.234 1.002M131.296 137.37c-.609.409-1.276.902-1.436 1.67M123.946 138.772c1.934.509 3.946.166 5.914.267M110.399 120.915c.106.147.53.737.634.885M111.769 120.815c.342.258.44.722.484 1.12M114.876 120.38c-.845.326-1.653.979-1.854 1.905M106.888 108.515c.479.429.458 1.118.448 1.701M108.305 108.893l-.047 1.229M110.762 108.893c-.571.77-1.56 1.354-1.607 2.41M96.186 106.2l.449.78M97.178 106.484l.19.732M98.926 107.169c-.291.19-.9.387-.826.873M100.604 106.838c-.818.343-1.625.943-1.867 1.842M109.084 100.223l1.04.756M109.675 99.397c.744.367 1.275 1.064 1.583 1.819M113.408 99.42c-.814.414-1.818 1.2-1.512 2.244M113.927 100.554c2.261.556 4.597-.138 6.875.236" fill="none" stroke="#114b19" stroke-width=".265"/><path d="M128.228 155.637l-3.307-1.701s-4.252-1.323-4.82-1.134c-.566.19-6.047-.85-6.425-.85-.378 0-4.063-1.89-4.44-1.89-.379 0-3.592-.662-3.97-.473-.378.19-6.236.378-6.236.378l-4.252-1.323v1.512l1.89 1.89s1.89.095 2.456.095c.567 0 2.08-.19 2.74-.19.662 0 4.28-.632 5.765.946 1.484 1.577 2.74-.095 3.496 0 .756.094 2.164 1.811 2.164 1.811s2.75-.11 3.6.267c.85.378 2.93 1.04 3.307 1.04.378 0 2.835.283 3.497.567.661.283 3.307.945 3.78 1.04.472.094 1.417-.568 1.417-.568z" opacity=".337" fill="#668000" filter="url(#d)"/><path d="M89.58 103.287s-4.157-1.512-4.535-1.512c-.378 0-6.237.85-6.71 1.04-.472.189-3.968-.662-3.968-.662l-1.607.945.473 1.607 4.725 1.039s3.685-1.134 3.968-1.134c.284 0 1.701.378 2.08.473.377.094 3.59 1.323 4.062 1.417.473.094 3.497-.472 3.97-.472.472 0 5.14.456 5.14.456l4.309-1.874-.662-1.795s-5.858 0-6.331.189c-.472.189-2.646.567-2.646.567z" transform="matrix(.91077 0 0 1.05135 9.177 -5.348)" opacity=".337" fill="#908d35" filter="url(#e)"/><path d="M114.527 103.665l3.307-.283s4.252 1.323 4.63 1.417c.378.095 7.938-.661 7.938-.661l.378 1.7s-1.229 2.835-1.701 2.835c-.473 0-4.82-.945-5.575-.945-.756 0-5.764-.661-6.142-.945-.378-.283-2.457-1.039-3.402-1.039-.945 0-4.441-1.89-4.441-1.89s2.456-.378 2.929-.283c.472.094 2.079.094 2.079.094z" transform="matrix(.86499 0 0 1 14.786 0)" opacity=".337" fill="#908d35" filter="url(#f)"/><path d="M75.279 157.424c-1.368-2.577-1.444-2.02.142-1.04-1.096-2.273-.628-2.167.528-.114.817-1.011-.718-2.601.828-.378-.17-2.654.473-2.044 1.494-.26.126-2.742.051-.98.508.435-.12-2.2 1.096 1.869 1.342-.648.014 1.662 3.636-4.98 2.214-.7-1.301 2.773.38.747 1.874.957-.49.571-1.643.284-1.89 1.087M125.332 114.457c-1.218-1.3-2.959-4.073-.738-1.291 1.489 1.623 1.455-2.265 1.885-.236.98-1.585 1.959 1.976 3.173-.883 1.524-1.354.644.736.29 1.274M76.69 108.978c-1.58-1.215-2.441-3.31-.122-1.161-.448-2.08.112-2.006 1.123-.175.331-1.99 1.207-2.391 1.404-.2 1.061-2.026 1.803-1.726 2.178-.21 1.732-.863 5.593-2.747 2.298.21.053.207-.261.404-.066.601" fill="none" stroke="#114b19" stroke-width=".265"/><path d="M78.883 132.544c4.283-.633 9.108-1.29 12.887 1.352 3.268 1.598 6.67 4.037 10.506 3.213 2.735.05 1.56 3.574-.7 2.187-4.292.389-9.027-.2-12.274-3.288-3.06-2.221-8.224-1.045-10.651-3.29l.232-.174z" opacity=".616" fill="#aca793" filter="url(#g)"/></g></svg>