<svg xmlns="http://www.w3.org/2000/svg" width="252.277" height="252.277" viewBox="0 0 66.748 66.748"><defs><filter height="2.11" y="-.555" width="1.462" x="-.231" id="b" color-interpolation-filters="sRGB"><feGaussianBlur stdDeviation=".708"/></filter><filter height="2.529" y="-.765" width="1.437" x="-.218" id="c" color-interpolation-filters="sRGB"><feGaussianBlur stdDeviation="2.361"/></filter><filter height="2.483" y="-.741" width="1.45" x="-.225" id="a" color-interpolation-filters="sRGB"><feGaussianBlur stdDeviation="2.361"/></filter><filter height="3.393" y="-1.197" width="1.395" x="-.197" id="e" color-interpolation-filters="sRGB"><feGaussianBlur stdDeviation="2.361"/></filter><filter height="3.142" y="-1.071" width="1.533" x="-.267" id="f" color-interpolation-filters="sRGB"><feGaussianBlur stdDeviation="2.361"/></filter><filter height="2.514" y="-.757" width="1.399" x="-.199" id="d" color-interpolation-filters="sRGB"><feGaussianBlur stdDeviation="2.834"/></filter><filter height="2.759" y="-.88" width="1.533" x="-.267" id="g" color-interpolation-filters="sRGB"><feGaussianBlur stdDeviation="2.801"/></filter></defs><g transform="translate(-68.003 -95.684)"><rect ry="0" y="96.184" x="68.503" height="65.748" width="65.748" fill="#8a0" stroke="#898032" stroke-linecap="round" stroke-linejoin="round" paint-order="stroke fill markers"/><path d="M99.597 111.697c4.282-.633 9.108-1.29 12.887 1.352 3.268 1.598 6.67 4.037 10.506 3.213 2.735.05 1.559 3.574-.7 2.187-4.293.389-9.027-.2-12.274-3.288-3.06-2.221-8.224-1.045-10.652-3.29l.233-.174z" opacity=".337" fill="#8d8a2f" filter="url(#a)"/><path d="M84.383 115.052c1.698 1.863 8.066-.692 4.692-2.384-1.534-.223-7.13-.652-4.692 2.384z" opacity=".427" fill="#8e8b2e" filter="url(#b)"/><path d="M85.017 112.556l.212 1.63M86.056 112.722v1.559M86.812 114.659c.304-.903 1.043-1.594 1.866-2.032" fill="none" stroke="#114b19" stroke-width=".265" stroke-linecap="round"/><path transform="matrix(.90636 0 0 .6488 11.58 55)" d="M68.86 150.451c3.968-.394 8.327-1.494 11.909.918 3.416 1.207 6.242 4.15 10.093 3.708 2.603-.453 5.955 2.56 1.504 2.003-4.421.364-9.09.545-12.482-2.917-3.277-1.793-7.03-1.993-10.576-2.76-.517.168-1.072-.753-.447-.952z" opacity=".337" fill="#8d8a2f" stroke="#114b19" stroke-width=".265" filter="url(#c)"/><path d="M103.26 127.04c3.96-.141 7.8 3.01 11.721 1.114.346-.108.692-.216 1.041-.312M74.696 152.57c2.831.223 5.715-.385 8.505.33M77.673 151.247c.45.454.89.936 1.181 1.512M79.28 151.153c-.264.538.762 1.778-.426 1.606M80.035 152.76c.465-.83 1.238-1.518 2.173-1.749M90.947 128.598c.805.236 1.506.969 1.512 1.842M94.916 128.787c-.603.258-1.466.567-1.465 1.37M88.726 130.488c1.244-.015 2.49.037 3.733-.048M73.883 116.74c.49.231.565.847.484 1.319M75.336 117.591l-.1.685M77.742 116.706c-.84.367-1.694 1.152-1.587 2.154M121.764 145.965c.106.178.529.89.634 1.07M122.484 145.55c.444.22.81.686.769 1.203M110.399 120.915c.106.147.53.737.634.885M111.769 120.815c.342.258.44.722.484 1.12M114.876 120.38c-.845.326-1.653.979-1.854 1.905M96.186 106.2l.449.78M97.178 106.484l.19.732M98.926 107.169c-.291.19-.9.387-.826.873M100.604 106.838c-.818.343-1.625.943-1.867 1.842M74.776 103.443l1.04.756M75.367 102.616c.744.368 1.275 1.064 1.583 1.819M79.1 102.64c-.814.413-1.819 1.199-1.512 2.244M79.62 103.773c2.26.556 4.596-.138 6.874.237" fill="none" stroke="#114b19" stroke-width=".265"/><path d="M128.228 155.637l-3.307-1.701s-4.252-1.323-4.82-1.134c-.566.19-6.047-.85-6.425-.85-.378 0-4.063-1.89-4.44-1.89-.379 0-3.592-.662-3.97-.473-.378.19-6.236.378-6.236.378l-4.252-1.323v1.512l1.89 1.89s1.89.095 2.456.095c.567 0 2.08-.19 2.74-.19.662 0 4.28-.632 5.765.946 1.484 1.577 2.74-.095 3.496 0 .756.094 2.164 1.811 2.164 1.811s2.75-.11 3.6.267c.85.378 2.93 1.04 3.307 1.04.378 0 2.835.283 3.497.567.661.283 3.307.945 3.78 1.04.472.094 1.417-.568 1.417-.568z" transform="matrix(.94991 0 0 .7187 3.532 40.455)" opacity=".337" fill="#668000" filter="url(#d)"/><path transform="matrix(.91077 0 0 1.05135 9.177 -5.348)" d="M89.58 103.287s-4.157-1.512-4.535-1.512c-.378 0-6.237.85-6.71 1.04-.472.189-3.968-.662-3.968-.662l-1.607.945.473 1.607 4.725 1.039s3.685-1.134 3.968-1.134c.284 0 1.701.378 2.08.473.377.094 3.59 1.323 4.062 1.417.473.094 3.497-.472 3.97-.472.472 0 5.14.456 5.14.456l4.309-1.874-.662-1.795s-5.858 0-6.331.189c-.472.189-2.646.567-2.646.567z" opacity=".337" fill="#908d35" filter="url(#e)"/><path transform="matrix(.86499 0 0 1 14.786 0)" d="M114.527 103.665l3.307-.283s4.252 1.323 4.63 1.417c.378.095 7.938-.661 7.938-.661l.378 1.7s-1.229 2.835-1.701 2.835c-.473 0-4.82-.945-5.575-.945-.756 0-5.764-.661-6.142-.945-.378-.283-2.457-1.039-3.402-1.039-.945 0-4.441-1.89-4.441-1.89s2.456-.378 2.929-.283c.472.094 2.079.094 2.079.094z" opacity=".337" fill="#908d35" filter="url(#f)"/><path d="M120.9 159.08c-1.367-2.577-1.444-2.02.142-1.04-1.095-2.273-.627-2.167.528-.115.817-1.01-.717-2.6.828-.378-.17-2.654.473-2.043 1.494-.26.126-2.741.052-.979.509.436-.12-2.201 1.095 1.869 1.342-.648.014 1.661 3.635-4.98 2.213-.701-1.3 2.773.381.747 1.874.958-.489.57-1.642.284-1.89 1.086M73.47 133.26c-1.58-1.215-2.44-3.31-.121-1.16-.448-2.08.112-2.007 1.123-.176.33-1.99 1.207-2.391 1.403-.2 1.062-2.026 1.803-1.726 2.179-.21 1.732-.862 5.593-2.746 2.298.21.052.207-.261.404-.067.601" fill="none" stroke="#114b19" stroke-width=".265"/><path d="M78.883 132.544c4.283-.633 9.108-1.29 12.887 1.352 3.268 1.598 6.67 4.037 10.506 3.213 2.735.05 1.56 3.574-.7 2.187-4.292.389-9.027-.2-12.274-3.288-3.06-2.221-8.224-1.045-10.651-3.29l.232-.174z" opacity=".616" fill="#aca793" filter="url(#g)"/></g><path d="M33.083 15.68c-1.877 2.143-.687 5.485 1.957 6.282 3.3 2.425 3.525 7.86.557 10.653-1.161 1.203-2.54 2.196-3.902 3.153l7.375-.022s5.467-2.187 5.803-2.187c.337 0 6.813-2.775 6.813-2.775l2.103-3.028.505-1.094-4.71-4.037-3.87-3.028-3.28-1.85-4.71-1.683-4.205-.757zM47.029 43.736c2.798 1.54 6.127.862 8.94-.246 2.69-.788 5.9-1.222 7.656-3.653-.712-1.864-3.95-1.708-5.012-3.735-1.424-1.418-6.526-3.826-5.56 0 .776 2.637-.82 5.15-3.225 6.207-.915.51-1.876.933-2.799 1.427zM60.392 12.38c-2.024-.686-3.573-2.2-5.321-3.29-1.719-.95-3.489.142-4.803 1.24-1.81 1.375-.06 3.213.95 4.413 1.136 1.708-.985 2.898-1.87 4.082-.252 1.007 2.182.064 2.979-.043 1.95-.484 3.444-1.862 4.863-3.193 1.277-1.158 3.656-1.513 4.621-2.467-.38-.406-1.046-.324-1.419-.742zM36.68 60.152l3.28-1.094 1.43-1.514.253-1.345-.253-2.103-1.177-1.766-.505-1.43.337-1.43 1.598-1.598 2.102-1.43 1.935-.589 1.85.42 1.683 1.01 1.598 1.177 2.102 1.178 1.598.673 1.85 1.01 2.02.588-3.785 1.598-2.692 1.598-2.355 2.355-4.29 2.86-2.943.589-3.365.168-1.934-.168zM31.173 43.237c-2.024-.686-3.573-2.2-5.32-3.29-1.72-.95-3.49.142-4.804 1.24-1.809 1.376-.06 3.214.95 4.414 1.137 1.708-.985 2.898-1.87 4.082-.252 1.007 2.182.064 2.98-.043 1.95-.485 3.444-1.862 4.863-3.193 1.276-1.158 3.655-1.514 4.62-2.467-.38-.407-1.046-.325-1.419-.743z" fill="#647c00"/><path d="M23.736 53.21c4.643-.96 8.627-3.474 12.7-5.665 4.295-1.264 9.566-2.562 13.641-.052 2.373 1.874 4.95 3.348 7.703 4.594M9.153 44.156c2.38-.73 4.847-1.399 6.794-3.028 2.524-1.34 5.502-1.727 8.323-1.511 1.998.266 3.269 2.107 5.103 2.83.628.346 1.267.672 1.914.978M39.137 39.093c3.097-.532 6.229-1.258 8.574-3.495 2.974-1.776 7.216-2.561 10.013-.018 1.973 1.515 4.01 3.65 6.688 3.586M12.41 25.396c6.263-3.11 11.892-7.522 18.347-10.173 5.256-.346 10.89 1.394 15.02 4.61 2.953 2.217 5.872 4.491 8.564 7.024M38.372 13.298c2.938-.628 5.531-2.171 8.107-3.6 3.183-1.178 7.21-1.75 10.022.59 1.276.854 2.554 1.744 4.005 2.28" fill="none" stroke="#000" stroke-width=".705"/></svg>