<svg xmlns="http://www.w3.org/2000/svg" width="159.562" height="158.002" viewBox="0 0 42.218 41.805"><g stroke-width=".265"><path d="M10.012 15.974l.123 7.526 9.098-3.613.245-8.266z" fill="#ebe2ba" stroke="#000"/><path d="M19.911 10.689l-.227 1.358-9.506 4.374-.03-.802 9.675-5.192z" fill="#71544c" stroke="#000"/><path d="M10.14 11.603L5.607 6.257 2.942 7.635l-2.11 2.78.077 8.8 9.226 4.285z" fill="#ece4bc" stroke="#000"/><path d="M4.231 6.432l-1.61.602-.942 1.875-1.026 1.409-.483 1.08.744.416 1.017-2.119.75-1.292 1.024-.84 1.204.237L6.13 8.941l1.885 2.783.901 2.393 1.095 1.857-.635-2.035-.547-1.52-1.07-2.144L5.983 7.62z" fill="#d1a345" stroke="#000"/><path d="M17.35 14.528l.265 2.073-1.576.83-.316-2.506z" fill="#333" stroke="#b26745"/><path d="M19.035 17.813l-8.876 3.234.047 2.493 9.189-3.728-.114-2.07z" fill="#a9a2a9" stroke="#000"/><path d="M13.694 15.756l.265 2.074-1.576.829-.316-2.505z" fill="#333" stroke="#b26745"/><path d="M9.706 21.033L.8 17.13l.14 2.184 8.957 4.132.054-2.484z" fill="#a9a2a9" stroke="#000"/><path d="M20.226 10.92l-1.479-3.128-1.806-2.463-2.914-1.475-1.107-.813-7.277 2.663-1.412.728L6.675 8.56l1.084 1.715 1.07 2.143 1.183 3.556z" fill="#d1a345" stroke="#000"/><path d="M12.738 1.589l.027 2.46-.171.584-.439.387-.737.21s-.383.03-.454-.015a20.86 20.86 0 01-.426-.301l-.365-.172-.46-.316-.128-.124-.038-.483-.038-1.74.763.108 1.249-.1.782-.28.36-.313z" fill="#c3c1bb" stroke="#000"/><path d="M11.084.178l1.538.163.497.564.025.518-.668.673-.89.187-1.063.118-.85-.15-.354-.24-.444-.317-.017-.434.4-.652.76-.362.577-.113z" fill="#c3c1bb" stroke="#000"/><path d="M10.472.914l.682-.07.535-.01.345.124-.029.27-.684.239-.66.136-.557-.057-.247-.148.132-.245.37-.196z" fill="#1a1a1a" stroke="#000"/><path d="M10.106 16.36L.4 12.52l-.051-.85 9.688 4.258z" fill="#71544c" stroke="#000"/><path d="M4.772 15.459l.065 2.09 1.687.57.387-2.093z" fill="#333" stroke="#b26745"/><path d="M5.333 8.158l.168 5.92-.87-.401.068-5.904z" fill="#71544c" stroke="#000"/><path d="M8.047 11.747l-5.943-2.26-.352.631 6.528 2.448z" fill="#71544c" stroke="#000"/><g><path d="M17.297 7.663l3.475-1.42 6.431 2.071-2.973 1.787z" fill="#f1e8c4" stroke="#000"/><path d="M16.329 12.607l.334 8.82 7.35 1.604.668-8.687-7.35-2.606z" fill="#efe7bd" stroke="#000"/><path d="M24.146 15.146l-.2 7.55 5.145-1.737.668-7.75-.468-1.738-3.942 2.74z" fill="#9ba494" stroke="#000"/><path d="M17.164 7.63l-3.107 4.576 10.757 3.408-.701-5.713z" fill="#af6545" stroke="#000"/><path d="M24.38 10.101l3.441-1.967 2.205 3.638-2.339 2.372s-2.438 1.403-2.605 1.436c-.167.034-.435.034-.435.034l-.601-5.546z" fill="#704837" stroke="#000"/><path d="M27.533 8.197l.134-.188-4.69-1.75-1.437-.434-.3.368 1.035.567 4.343 1.404.602.2z" fill="#ac694e" stroke="#000"/><path d="M20.174 4.505l-1.24.059-.52.295-.366.33-.13.355.035.213.638.602.968.012c.06 0 .745-.047.804-.047.059 0 .956-.225.956-.225s.154-.413.154-.46c0-.047-.083-.508-.083-.508l-.579-.437-.448-.142z" fill="#c3c1bb" stroke="#000"/><path d="M19.619 5.048l-.438.06-.118.27s.296.249.343.26c.047.013.508-.106.508-.106l.283-.082.071-.19-.295-.176-.46-.036z" fill="none" stroke="#000"/><path d="M18.19 6.182l.165.91-.118.673.496.224.52.19.52.176.53-.153s.757-.378.816-.425c.059-.048.236-.367.236-.367l.023-.271-.189-.992-1.133.13-.827.165-.58-.095-.377-.283z" fill="#c3c1bb" stroke="#000"/><path d="M23.87 15.608l-.566 6.567.685.236.732-.283-.023-6.473-.733-.26zM24.816 19.364l4.081-2.11-.092.917-4.084 1.878z" fill="#71544c" stroke="#000"/><path d="M24.461 22.222l4.184-2.082.685-.33-.206 1.833-4.966 2.584-.834-.006-7.009-2.079-.084-1.801 6.482 1.93.803.046z" fill="#b3acb2" stroke="#000"/><path d="M15.768 13.01l.449 7.252.874.283-.449-7.583z" fill="#71544c" stroke="#000"/><path d="M23.186 19.364l-6.26-1.82v.733l6.425 1.843.118-.756-.449-.071z" fill="#71544c" stroke="#000"/><path d="M18.5 15.614l.033 1.286 1.136.334.117-1.386z" fill="#1a1a1a" stroke="#8d5840"/><path d="M21.073 16.065l.2 1.436 1.22.401.15-1.57z" fill="#1a1a1a" stroke="#79503d"/><path d="M30.093 11.939l-.869 7.918-.568.167.802-7.751z" fill="#71544c" stroke="#000"/><path d="M27.675 15.43l-.2 1.437-1.22.601.05-1.403z" fill="#1a1a1a" stroke="#79503d"/></g><g><path d="M31.467 22.425l-.473 7.513 9.355-2.882.898-8.221z" fill="#ebe2ba" stroke="#000"/><path d="M41.753 17.94l-.334 1.336-9.823 3.608.034-.802 10.056-4.41z" fill="#71544c" stroke="#000"/><path d="M31.94 18.079l-4.095-5.689-2.766 1.163-2.324 2.605-.62 8.779 8.86 5z" fill="#ece4bc" stroke="#000"/><path d="M26.459 12.456l-1.654.473-1.087 1.795-1.134 1.323-.567 1.04.71.472 1.18-2.032.85-1.228 1.087-.756 1.182.33 1.128 1.235 1.66 2.923.708 2.457.945 1.937-.473-2.078-.425-1.56-.898-2.22-1.559-2.788z" fill="#d1a345" stroke="#000"/><path d="M38.896 21.564l.1 2.088-1.637.702-.116-2.522z" fill="#333" stroke="#b26745"/><path d="M40.316 24.972l-9.104 2.522-.15 2.49 9.455-2.99.05-2.072z" fill="#a9a2a9" stroke="#000"/><path d="M35.154 22.5l.1 2.088-1.636.702-.117-2.523z" fill="#333" stroke="#b26745"/><path d="M30.761 27.444l-8.57-4.593-.033 2.188 8.603 4.828.25-2.473z" fill="#a9a2a9" stroke="#000"/><path d="M42.048 18.196l-1.226-3.236-1.607-2.598-2.787-1.701-1.04-.898-7.465 2.08-1.464.613 2.268 2.315.944 1.796.898 2.22.898 3.638z" fill="#d1a345" stroke="#000"/><path d="M35.322 8.301l-.168 2.456-.217.568-.467.35-.752.15s-.384 0-.451-.05-.401-.333-.401-.333l-.35-.2-.435-.352-.117-.133v-.485l.1-1.737.752.167h1.253l.801-.217.385-.284z" fill="#c3c1bb" stroke="#000"/><path d="M33.785 6.764l1.52.284.45.602-.016.518-.718.618-.902.117-1.07.033-.834-.217-.335-.267-.417-.351.017-.435.45-.618.786-.3.584-.067z" fill="#c3c1bb" stroke="#000"/><path d="M33.117 7.45l.684-.017.535.033.334.15-.05.268-.702.183-.668.084-.551-.1-.234-.167.15-.234.385-.167z" fill="#1a1a1a" stroke="#000"/><path d="M31.53 22.817l-9.372-4.593.017-.852 9.321 5.011z" fill="#71544c" stroke="#000"/><path d="M26.283 21.498l-.1 2.088 1.637.701.551-2.054z" fill="#333" stroke="#b26745"/><path d="M27.42 14.265l-.3 5.913-.836-.468.535-5.88z" fill="#71544c" stroke="#000"/><path d="M29.842 18.057l-5.746-2.723-.4.601 6.314 2.957z" fill="#71544c" stroke="#000"/></g><g><path d="M27.106 21.627l3.474-1.42 6.432 2.072-2.974 1.787z" fill="#f1e8c4" stroke="#000"/><path d="M26.137 26.572l.334 8.82 7.35 1.603.668-8.686-7.35-2.606z" fill="#efe7bd" stroke="#000"/><path d="M33.955 29.11l-.2 7.551 5.144-1.737.668-7.751-.467-1.737-3.943 2.74z" fill="#9ba494" stroke="#000"/><path d="M26.972 21.594l-3.107 4.577 10.758 3.407-.702-5.713z" fill="#af6545" stroke="#000"/><path d="M34.188 24.066l3.442-1.967 2.205 3.637-2.34 2.372s-2.438 1.404-2.605 1.437c-.167.033-.434.033-.434.033l-.602-5.545z" fill="#704837" stroke="#000"/><path d="M37.341 22.162l.134-.188-4.69-1.75-1.436-.434-.3.367 1.035.568 4.343 1.403.601.2z" fill="#ac694e" stroke="#000"/><path d="M29.982 18.47l-1.24.058-.52.296-.366.33-.13.355.036.212.637.603.969.012c.059 0 .744-.048.803-.048.06 0 .957-.224.957-.224s.153-.413.153-.46c0-.048-.082-.509-.082-.509l-.579-.437-.449-.141z" fill="#c3c1bb" stroke="#000"/><path d="M29.427 19.013l-.437.059-.118.271s.295.249.342.26c.048.012.508-.106.508-.106l.284-.083.07-.189-.295-.177-.46-.035z" fill="none" stroke="#000"/><path d="M27.998 20.147l.165.91-.118.672.496.225.52.189.52.177.531-.154s.756-.378.815-.425c.06-.047.236-.366.236-.366l.024-.272-.189-.992-1.134.13-.827.165-.579-.094-.378-.283z" fill="#c3c1bb" stroke="#000"/><path d="M33.68 29.572l-.568 6.568.685.236.733-.283-.024-6.473-.732-.26zM34.624 33.329l4.082-2.11-.093.917-4.083 1.878z" fill="#71544c" stroke="#000"/><path d="M34.27 36.187l4.184-2.082.685-.331-.206 1.834-4.967 2.584-.833-.006-7.01-2.08-.083-1.8 6.482 1.929.803.047z" fill="#b3acb2" stroke="#000"/><path d="M25.576 26.974l.45 7.252.873.284-.449-7.583z" fill="#71544c" stroke="#000"/><path d="M32.994 33.329l-6.26-1.82v.733l6.426 1.843.118-.756-.45-.071z" fill="#71544c" stroke="#000"/><path d="M28.309 29.578l.033 1.287 1.136.334.117-1.387z" fill="#1a1a1a" stroke="#8d5840"/><path d="M30.881 30.03l.2 1.436 1.22.4.15-1.57z" fill="#1a1a1a" stroke="#79503d"/><path d="M39.901 25.903l-.868 7.918-.568.167.802-7.75z" fill="#71544c" stroke="#000"/><path d="M37.483 29.395l-.2 1.436-1.22.602.05-1.404z" fill="#1a1a1a" stroke="#79503d"/></g><g><path d="M15.47 34.063l.473 7.512-9.355-2.882-.897-8.221z" fill="#ebe2ba" stroke="#000"/><path d="M5.185 29.577l.334 1.336 9.822 3.608-.033-.802-10.056-4.41z" fill="#71544c" stroke="#000"/><path d="M14.998 29.716l4.094-5.688 2.767 1.163 2.324 2.604.619 8.779-8.859 5z" fill="#ece4bc" stroke="#000"/><path d="M20.479 24.094l1.654.472 1.086 1.795 1.134 1.323.567 1.04-.709.472-1.18-2.031-.851-1.229-1.087-.756-1.181.33-1.128 1.235-1.66 2.924-.708 2.457-.945 1.937.472-2.08.425-1.558.898-2.221 1.56-2.788z" fill="#d1a345" stroke="#000"/><path d="M8.041 33.202l-.1 2.088 1.637.701.117-2.522z" fill="#333" stroke="#b26745"/><path d="M6.622 36.61l9.103 2.522.15 2.489-9.454-2.99-.05-2.072z" fill="#a9a2a9" stroke="#000"/><path d="M11.783 34.137l-.1 2.088 1.637.702.117-2.523z" fill="#333" stroke="#b26745"/><path d="M16.176 39.082l8.57-4.594.033 2.188-8.603 4.828-.25-2.473z" fill="#a9a2a9" stroke="#000"/><path d="M4.89 29.833l1.226-3.235 1.606-2.599 2.788-1.7 1.04-.899 7.464 2.08 1.465.614-2.268 2.315-.945 1.795-.898 2.22-.897 3.639z" fill="#d1a345" stroke="#000"/><path d="M11.616 19.938l.167 2.456.217.568.468.35.752.151s.384 0 .45-.05c.068-.05.402-.334.402-.334l.35-.2.435-.351.117-.134v-.484l-.1-1.738-.752.167h-1.253l-.802-.217-.384-.284z" fill="#c3c1bb" stroke="#000"/><path d="M13.153 18.402l-1.52.284-.451.6.016.519.719.618.902.117 1.069.033.835-.217.334-.267.418-.351-.017-.434-.45-.618-.786-.301-.585-.067z" fill="#c3c1bb" stroke="#000"/><path d="M13.821 19.086l-.685-.016-.534.033-.334.15.05.268.701.184.668.083.552-.1.234-.167-.15-.234-.385-.167z" fill="#1a1a1a" stroke="#000"/><path d="M15.408 34.454l9.371-4.593-.017-.852-9.32 5.011z" fill="#71544c" stroke="#000"/><path d="M20.654 33.135l.1 2.088-1.637.701-.55-2.054z" fill="#333" stroke="#b26745"/><path d="M19.517 25.902l.301 5.913.835-.468-.534-5.88z" fill="#71544c" stroke="#000"/><path d="M17.095 29.694l5.746-2.723.401.601-6.314 2.957z" fill="#71544c" stroke="#000"/></g></g></svg>