<svg xmlns="http://www.w3.org/2000/svg" width="163.645" height="163.645" viewBox="0 0 43.298 43.298"><g fill="#00aad4"><path d="M24.974 41.504v2.779h2.778v-2.779h-2.778M44.422 2.608h-2.779v2.778h2.779V2.608M16.639 33.17h2.778V30.39h-2.778v2.779m8.335-5.557v-2.778h-2.779v2.778h2.779M22.195 13.72V16.5h2.779V13.72h-2.779M8.304 10.943V8.165H5.525v2.778h2.779m30.561 27.783V33.17H33.31v5.556z" fill="#afdde9"/><path d="M41.643 2.608h2.779V-.17H-.031v44.453h25.005v-2.779h2.778v2.779h16.67V5.386h-2.779V2.608m-2.778 8.335V8.165h2.778v2.778h-2.778m0 22.227v5.556H33.31V33.17h5.556M11.082 10.943h5.557V16.5h-5.557v-5.557M8.304 8.165v2.778H5.525V8.165h2.779m13.891 0h-2.778V5.386h2.778v2.779M2.747 35.948V33.17h2.778v2.778H2.747M22.195 16.5V13.72h2.779V16.5h-2.779m2.779 8.335v2.778h-2.779v-2.778h2.779m-16.67-2.779v-2.778h2.778v2.778H8.304M19.417 33.17h-2.778V30.39h2.778v2.779m8.335 0V30.39h2.778v2.779z"/><path d="M27.752 30.391v2.779h2.778V30.39h-2.778M8.304 19.278v2.778h2.778v-2.778H8.304M2.747 33.17v2.778h2.778V33.17H2.747m16.67-25.005h2.778V5.386h-2.778v2.779m-2.778 2.778h-5.557V16.5h5.557v-5.557m22.226-2.778v2.778h2.778V8.165z" fill="#aef"/></g></svg>