<svg xmlns="http://www.w3.org/2000/svg" viewBox="0 0 43.298 43.298" height="163.645" width="163.645"><defs><filter id="b" x="-.231" width="1.462" y="-.555" height="2.11" color-interpolation-filters="sRGB"><feGaussianBlur stdDeviation=".708"/></filter><filter id="c" x="-.218" width="1.437" y="-.765" height="2.529" color-interpolation-filters="sRGB"><feGaussianBlur stdDeviation="2.361"/></filter><filter id="a" x="-.225" width="1.45" y="-.741" height="2.483" color-interpolation-filters="sRGB"><feGaussianBlur stdDeviation="2.361"/></filter><filter id="e" x="-.197" width="1.395" y="-1.197" height="3.393" color-interpolation-filters="sRGB"><feGaussianBlur stdDeviation="2.361"/></filter><filter id="f" x="-.267" width="1.533" y="-1.071" height="3.142" color-interpolation-filters="sRGB"><feGaussianBlur stdDeviation="2.361"/></filter><filter id="d" x="-.199" width="1.399" y="-.757" height="2.514" color-interpolation-filters="sRGB"><feGaussianBlur stdDeviation="2.834"/></filter><filter id="g" x="-.267" width="1.533" y="-.88" height="2.759" color-interpolation-filters="sRGB"><feGaussianBlur stdDeviation="2.801"/></filter></defs><g transform="matrix(.63966 0 0 .6298 -43.498 -60.263)"><rect width="66.447" height="67.72" x="68.508" y="96.199" ry="0" fill="#8a0" stroke="#898032" stroke-width="1.02" stroke-linecap="round" stroke-linejoin="round" paint-order="stroke fill markers"/><path transform="matrix(.99993 0 0 1.00007 .005 -.006)" d="M99.597 111.697c4.282-.633 9.108-1.29 12.887 1.352 3.268 1.598 6.67 4.037 10.506 3.213 2.735.05 1.559 3.574-.7 2.187-4.293.389-9.027-.2-12.274-3.288-3.06-2.221-8.224-1.045-10.652-3.29l.233-.174z" opacity=".337" fill="#8d8a2f" filter="url(#a)"/><path transform="matrix(.99993 0 0 1.00007 .005 -.006)" d="M84.383 115.052c1.698 1.863 8.066-.692 4.692-2.384-1.534-.223-7.13-.652-4.692 2.384z" opacity=".427" fill="#8e8b2e" filter="url(#b)"/><path d="M85.016 112.557l.212 1.63M86.055 112.723v1.559M86.81 114.66c.305-.902 1.043-1.593 1.867-2.032" fill="none" stroke="#114b19" stroke-width=".265" stroke-linecap="round"/><path d="M68.86 150.451c3.968-.394 8.327-1.494 11.909.918 3.416 1.207 6.242 4.15 10.093 3.708 2.603-.453 5.955 2.56 1.504 2.003-4.421.364-9.09.545-12.482-2.917-3.277-1.793-7.03-1.993-10.576-2.76-.517.168-1.072-.753-.447-.952z" transform="matrix(.9063 0 0 .64884 11.583 54.997)" opacity=".337" fill="#8d8a2f" stroke="#114b19" stroke-width=".265" filter="url(#c)"/><path d="M103.258 127.042c3.96-.141 7.798 3.01 11.72 1.114.346-.108.692-.216 1.041-.312M97.378 144.483c.724.235 1.65.467 1.904 1.303M99.45 143.514c.311.558.688 1.136.668 1.804M101.721 143.213c-.294.69-.64 1.379-.701 2.138M74.972 135.189c2.83.222 5.714-.386 8.504.33M77.948 133.866c.45.454.89.936 1.181 1.512M79.554 133.771c-.262.539.763 1.778-.425 1.607M80.31 135.378c.465-.829 1.238-1.517 2.173-1.748M75.586 124.369c.805.236 1.506.969 1.512 1.842M79.554 124.558c-.602.258-1.465.567-1.465 1.37M73.365 126.259c1.244-.015 2.49.037 3.733-.048M73.883 116.74c.49.233.564.849.484 1.32M75.336 117.593l-.1.684M77.741 116.707c-.84.368-1.694 1.152-1.586 2.155M79.649 118.486c2.807.19 5.615.502 8.433.402M108.341 155.046c.085.326.518.409.535.769M109.11 154.478c.373.502 1.15.769 1.136 1.504M113.286 154.712c-.682.233-1.878.413-1.838 1.37M121.76 145.969c.106.178.53.89.635 1.069M122.48 145.554c.444.22.81.685.769 1.203M125.78 143.453c-1.148.828-1.84 2.23-1.838 3.641M122.593 147.204c1.66.19 3.427.064 4.91-.768M127.25 137.506l.267 1.202M119.453 137.302l.234 1.002M122.16 137c-.61.41-1.277.904-1.437 1.671M123.942 138.775c1.934.509 3.946.165 5.913.267M110.396 120.917c.106.147.53.737.634.885M111.766 120.817c.342.258.44.722.484 1.119M114.872 120.382c-.844.325-1.652.979-1.853 1.905M106.885 108.516c.479.429.458 1.118.449 1.701M108.302 108.894l-.047 1.229M110.759 108.894c-.571.77-1.56 1.354-1.607 2.41M96.184 106.2l.45.78M97.176 106.484l.19.733M98.924 107.17c-.291.19-.9.387-.826.873M100.601 106.839c-.817.343-1.624.943-1.866 1.842M109.082 100.224l1.04.756M109.672 99.397c.744.368 1.275 1.064 1.583 1.819M113.404 99.42c-.813.414-1.817 1.2-1.511 2.245M113.924 100.554c2.261.556 4.597-.138 6.874.237" fill="none" stroke="#114b19" stroke-width=".265"/><path transform="matrix(.99993 0 0 1.00007 .005 -.006)" d="M128.228 155.637l-3.307-1.701s-4.252-1.323-4.82-1.134c-.566.19-6.047-.85-6.425-.85-.378 0-4.063-1.89-4.44-1.89-.379 0-3.592-.662-3.97-.473-.378.19-6.236.378-6.236.378l-4.252-1.323v1.512l1.89 1.89s1.89.095 2.456.095c.567 0 2.08-.19 2.74-.19.662 0 4.28-.632 5.765.946 1.484 1.577 2.74-.095 3.496 0 .756.094 2.164 1.811 2.164 1.811s2.75-.11 3.6.267c.85.378 2.93 1.04 3.307 1.04.378 0 2.835.283 3.497.567.661.283 3.307.945 3.78 1.04.472.094 1.417-.568 1.417-.568z" opacity=".337" fill="#668000" filter="url(#d)"/><path d="M89.58 103.287s-4.157-1.512-4.535-1.512c-.378 0-6.237.85-6.71 1.04-.472.189-3.968-.662-3.968-.662l-1.607.945.473 1.607 4.725 1.039s3.685-1.134 3.968-1.134c.284 0 1.701.378 2.08.473.377.094 3.59 1.323 4.062 1.417.473.094 3.497-.472 3.97-.472.472 0 5.14.456 5.14.456l4.309-1.874-.662-1.795s-5.858 0-6.331.189c-.472.189-2.646.567-2.646.567z" transform="matrix(.91071 0 0 1.05142 9.181 -5.355)" opacity=".337" fill="#908d35" filter="url(#e)"/><path d="M114.527 103.665l3.307-.283s4.252 1.323 4.63 1.417c.378.095 7.938-.661 7.938-.661l.378 1.7s-1.229 2.835-1.701 2.835c-.473 0-4.82-.945-5.575-.945-.756 0-5.764-.661-6.142-.945-.378-.283-2.457-1.039-3.402-1.039-.945 0-4.441-1.89-4.441-1.89s2.456-.378 2.929-.283c.472.094 2.079.094 2.079.094z" transform="matrix(.86493 0 0 1.00007 14.79 -.006)" opacity=".337" fill="#908d35" filter="url(#f)"/><path d="M75.278 157.428c-1.367-2.577-1.443-2.02.142-1.04-1.095-2.273-.627-2.167.528-.114.817-1.011-.717-2.601.828-.378-.17-2.654.473-2.044 1.494-.26.126-2.742.051-.98.509.435-.12-2.201 1.095 1.87 1.341-.648.015 1.662 3.636-4.98 2.214-.701-1.301 2.774.38.748 1.874.958-.49.571-1.643.284-1.89 1.087M125.328 114.458c-1.218-1.3-2.959-4.073-.738-1.291 1.489 1.623 1.455-2.265 1.885-.236.98-1.585 1.958 1.977 3.173-.883 1.524-1.354.643.736.29 1.275M76.689 108.98c-1.58-1.217-2.44-3.31-.121-1.162-.448-2.08.111-2.007 1.123-.175.33-1.99 1.207-2.392 1.403-.2 1.061-2.026 1.803-1.726 2.178-.21 1.732-.863 5.593-2.747 2.298.21.053.206-.261.404-.066.6" fill="none" stroke="#114b19" stroke-width=".265"/><path transform="matrix(.99993 0 0 1.00007 .005 -.006)" d="M78.883 132.544c4.283-.633 9.108-1.29 12.887 1.352 3.268 1.598 6.67 4.037 10.506 3.213 2.735.05 1.56 3.574-.7 2.187-4.292.389-9.027-.2-12.274-3.288-3.06-2.221-8.224-1.045-10.651-3.29l.232-.174z" opacity=".616" fill="#aca793" filter="url(#g)"/></g><path d="M41.954 39.592c.189 1.419-1.477 2.217-2.56 2.701-1.206.404-3.03.949-3.96-.227-.322-1.308 1.229-2.143 2.205-2.63 1.278-.499 3.144-1.116 4.246.015l.04.074z" fill="#333"/><path d="M39.82 41.74c.933-.616-.165-1.357-.212-2.167-.157-.848-.489-1.42-.423-2.192-.772-.286-1.15-1.582-1.709-1.711-.8.532-.273 1.513-.838 2.152-.373.745-1.073 1.444-.86 2.333-.535.68-1.43 1.37-.347 2.009l.092.105.056.065" fill="#80a64d" stroke="#000" stroke-width=".265"/><path d="M37.343 36.302c.683.526.534 1.974-.416 1.039.351.762 1.308.825 1.18 1.877.535.996-1.229.794-1.736.545-.92-.711.534.838 1.156.66.983-.293 1.47.767.815 1.355-.479.352-2.167-.032-2.006.417.965.213 1.924.352 2.83-.143.993-.206.853-1.317.359-1.946-.103-.929-.865-1.76-.54-2.706-.673-.139-1.095-1.923-1.588-1.166z" fill="#527249"/><path d="M38.076 34.953c.189 1.419-1.477 2.217-2.56 2.701-1.206.405-3.03.95-3.96-.226-.322-1.31 1.229-2.144 2.206-2.632 1.277-.497 3.143-1.115 4.245.016l.041.074z" fill="#333"/><path d="M35.942 37.101c.933-.615-.165-1.357-.211-2.167-.158-.848-.49-1.42-.423-2.192-.773-.286-1.151-1.581-1.71-1.71-.8.532-.272 1.512-.838 2.151-.373.745-1.073 1.445-.86 2.333-.535.68-1.43 1.37-.347 2.009l.092.106.056.065" fill="#80a64d" stroke="#000" stroke-width=".265"/><path d="M33.466 31.664c.682.526.533 1.973-.417 1.038.352.762 1.308.826 1.18 1.877.535.996-1.228.794-1.736.545-.92-.711.534.838 1.156.661.983-.293 1.47.767.815 1.355-.479.351-2.167-.033-2.006.417.965.212 1.924.352 2.83-.144.993-.206.854-1.316.36-1.945-.104-.93-.866-1.761-.54-2.706-.674-.14-1.096-1.924-1.59-1.166z" fill="#527249"/><path d="M10.811 7.054C11 8.473 9.334 9.271 8.251 9.755c-1.206.404-3.03.95-3.96-.227-.322-1.308 1.229-2.143 2.206-2.63 1.277-.499 3.143-1.116 4.245.015l.04.074z" fill="#333"/><path d="M8.677 9.202c.933-.616-.165-1.357-.211-2.167-.158-.848-.49-1.42-.423-2.192-.773-.286-1.152-1.581-1.71-1.711-.8.532-.272 1.513-.838 2.152-.373.745-1.073 1.445-.86 2.333-.535.68-1.43 1.37-.347 2.009l.092.106.056.064" fill="#80a64d" stroke="#000" stroke-width=".265"/><path d="M6.2 3.765c.683.526.534 1.973-.416 1.038.352.762 1.308.825 1.18 1.877.535.996-1.228.794-1.736.545-.92-.711.534.838 1.156.661.983-.294 1.47.766.815 1.354-.479.352-2.167-.032-2.006.418.965.212 1.924.352 2.83-.144.993-.206.853-1.316.359-1.946-.103-.928-.865-1.76-.54-2.706-.673-.139-1.095-1.923-1.588-1.165z" fill="#527249"/><path d="M13.506 10.542c.188 1.418-1.477 2.216-2.56 2.7-1.206.405-3.03.95-3.961-.226-.32-1.309 1.23-2.144 2.206-2.631 1.278-.498 3.144-1.115 4.246.015l.04.075z" fill="#333"/><path d="M11.371 12.69c.934-.616-.165-1.357-.21-2.168-.159-.847-.49-1.42-.424-2.192-.772-.286-1.15-1.581-1.709-1.71-.8.532-.273 1.512-.838 2.151-.373.745-1.073 1.445-.86 2.333-.535.68-1.43 1.37-.347 2.01l.092.105.056.065" fill="#80a64d" stroke="#000" stroke-width=".265"/><path d="M8.895 7.252c.683.526.534 1.973-.416 1.038.351.762 1.307.826 1.18 1.878.535.996-1.229.793-1.736.545-.92-.712.534.837 1.156.66.983-.293 1.47.767.815 1.355-.48.351-2.167-.033-2.006.417.965.213 1.923.352 2.83-.144.993-.205.853-1.316.359-1.945-.103-.93-.866-1.761-.54-2.706-.673-.14-1.095-1.923-1.588-1.166z" fill="#527249"/><path d="M34.43 6.737c.189 1.419-1.477 2.217-2.56 2.701-1.206.404-3.03.95-3.96-.227-.322-1.308 1.23-2.143 2.206-2.63 1.277-.499 3.143-1.116 4.246.015l.04.074z" fill="#333"/><path d="M32.296 8.885c.933-.616-.165-1.357-.211-2.167-.158-.848-.49-1.42-.423-2.192-.773-.286-1.151-1.582-1.71-1.711-.8.532-.272 1.513-.838 2.152-.373.745-1.073 1.445-.86 2.333-.535.68-1.43 1.37-.347 2.009l.092.105.056.065" fill="#80a64d" stroke="#000" stroke-width=".265"/><path d="M29.82 3.448c.682.526.533 1.973-.417 1.038.352.762 1.308.825 1.18 1.877.535.996-1.228.794-1.736.545-.92-.711.534.838 1.156.661.983-.294 1.47.766.815 1.354-.479.352-2.167-.032-2.006.417.965.213 1.924.353 2.83-.143.993-.206.854-1.316.36-1.946-.104-.929-.866-1.76-.54-2.706-.674-.139-1.096-1.923-1.59-1.165z" fill="#527249"/><path d="M37.284 8.956c.188 1.419-1.477 2.217-2.561 2.701-1.206.405-3.03.95-3.96-.226-.321-1.309 1.23-2.144 2.206-2.631 1.277-.498 3.143-1.116 4.246.015l.04.074z" fill="#333"/><path d="M35.15 11.104c.932-.615-.166-1.356-.212-2.167-.158-.848-.49-1.42-.423-2.192-.773-.286-1.151-1.581-1.709-1.71-.8.532-.273 1.512-.838 2.151-.374.745-1.074 1.445-.861 2.333-.535.68-1.429 1.37-.347 2.009l.092.106.057.065" fill="#80a64d" stroke="#000" stroke-width=".265"/><path d="M32.673 5.667c.682.526.533 1.973-.417 1.038.352.762 1.308.826 1.181 1.877.535.997-1.229.794-1.736.545-.92-.711.534.838 1.156.661.982-.293 1.469.767.815 1.355-.48.351-2.167-.033-2.007.417.965.212 1.924.352 2.83-.144.994-.206.854-1.316.36-1.945-.104-.93-.866-1.761-.54-2.706-.674-.14-1.095-1.924-1.589-1.166z" fill="#527249"/><path d="M33.162 12.285c.189 1.419-1.477 2.217-2.56 2.701-1.206.405-3.03.95-3.96-.226-.322-1.31 1.229-2.144 2.206-2.632 1.277-.497 3.143-1.115 4.245.016l.04.074z" fill="#333"/><path d="M31.028 14.433c.933-.615-.165-1.357-.211-2.167-.158-.848-.49-1.42-.423-2.192-.773-.286-1.152-1.581-1.71-1.711-.8.533-.272 1.513-.838 2.152-.373.745-1.073 1.445-.86 2.333-.535.68-1.43 1.37-.347 2.009l.092.106.056.064" fill="#80a64d" stroke="#000" stroke-width=".265"/><path d="M28.551 8.996c.683.526.534 1.973-.416 1.038.352.762 1.308.825 1.18 1.877.535.996-1.228.794-1.736.545-.92-.711.534.838 1.156.661.983-.293 1.47.767.815 1.355-.479.351-2.167-.033-2.006.417.965.212 1.924.352 2.83-.144.993-.206.853-1.316.36-1.946-.104-.928-.866-1.76-.54-2.705-.674-.14-1.096-1.924-1.59-1.166z" fill="#527249"/><path d="M42.08 9.457c.188 1.419-1.477 2.217-2.561 2.701-1.206.404-3.03.95-3.96-.227-.321-1.308 1.23-2.143 2.206-2.63 1.277-.498 3.144-1.116 4.246.015l.04.074z" fill="#333"/><path d="M39.945 11.605c.933-.616-.165-1.357-.21-2.167-.159-.848-.49-1.42-.424-2.192-.773-.286-1.151-1.581-1.709-1.711-.8.533-.273 1.513-.838 2.152-.374.745-1.073 1.445-.861 2.333-.535.68-1.429 1.37-.347 2.009l.092.106.057.064" fill="#80a64d" stroke="#000" stroke-width=".265"/><path d="M37.469 6.168c.682.526.533 1.973-.417 1.038.352.762 1.308.825 1.181 1.877.535.996-1.229.794-1.736.545-.92-.711.534.838 1.156.661.982-.294 1.469.766.815 1.354-.48.352-2.167-.032-2.007.418.965.212 1.924.352 2.83-.144.994-.206.854-1.316.36-1.946-.104-.928-.866-1.76-.54-2.706-.674-.139-1.095-1.923-1.589-1.165z" fill="#527249"/><path d="M39.685 24.892c.188 1.418-1.477 2.216-2.56 2.7-1.207.405-3.03.95-3.961-.226-.321-1.309 1.23-2.144 2.206-2.631 1.278-.498 3.144-1.115 4.246.015l.04.075z" fill="#333"/><path d="M37.55 27.04c.934-.616-.165-1.357-.21-2.168-.159-.847-.49-1.42-.424-2.192-.772-.286-1.15-1.581-1.709-1.71-.8.532-.273 1.512-.838 2.151-.373.745-1.073 1.445-.86 2.333-.535.68-1.43 1.37-.347 2.01l.092.105.056.065" fill="#80a64d" stroke="#000" stroke-width=".265"/><path d="M35.074 21.602c.683.526.533 1.973-.417 1.038.352.762 1.308.826 1.181 1.878.535.996-1.229.793-1.736.545-.92-.712.534.837 1.156.66.983-.293 1.47.767.815 1.355-.48.351-2.167-.033-2.006.417.965.212 1.923.352 2.83-.144.993-.205.853-1.316.359-1.945-.103-.93-.866-1.761-.54-2.706-.673-.14-1.095-1.923-1.589-1.166z" fill="#527249"/><path d="M42.38 27.745c.188 1.418-1.477 2.217-2.561 2.7-1.206.405-3.03.95-3.96-.226-.321-1.309 1.23-2.143 2.206-2.631 1.277-.498 3.144-1.115 4.246.015l.04.075z" fill="#333"/><path d="M40.245 29.893c.933-.616-.165-1.357-.21-2.168-.159-.847-.49-1.42-.424-2.192-.773-.286-1.151-1.58-1.709-1.71-.8.532-.273 1.512-.838 2.152-.373.745-1.073 1.444-.861 2.332-.535.681-1.429 1.371-.347 2.01l.092.105.057.065" fill="#80a64d" stroke="#000" stroke-width=".265"/><path d="M37.769 24.455c.682.526.533 1.973-.417 1.039.352.761 1.308.825 1.181 1.877.535.996-1.229.793-1.736.545-.92-.711.534.837 1.156.66.982-.293 1.469.767.815 1.355-.48.352-2.167-.032-2.007.417.965.213 1.924.352 2.83-.143.994-.206.854-1.317.36-1.946-.104-.929-.866-1.76-.54-2.706-.674-.14-1.095-1.923-1.589-1.166z" fill="#527249"/><path d="M43.149 30.04c.188 1.418-1.477 2.216-2.561 2.7-1.206.405-3.03.95-3.96-.226-.321-1.31 1.23-2.144 2.206-2.632 1.277-.497 3.144-1.115 4.246.016l.04.074z" fill="#333"/><path d="M41.014 32.187c.933-.615-.165-1.357-.21-2.167-.159-.848-.49-1.42-.424-2.192-.773-.286-1.15-1.581-1.709-1.711-.8.533-.273 1.513-.838 2.152-.373.745-1.073 1.445-.86 2.333-.536.68-1.43 1.37-.347 2.009l.092.106.056.064" fill="#80a64d" stroke="#000" stroke-width=".265"/><path d="M38.538 26.75c.682.526.533 1.973-.417 1.038.352.762 1.308.825 1.181 1.877.535.996-1.229.794-1.736.545-.92-.711.534.838 1.156.661.982-.293 1.469.767.815 1.355-.48.351-2.167-.033-2.006.417.964.212 1.923.352 2.829-.144.994-.206.854-1.316.36-1.946-.104-.928-.866-1.76-.54-2.705-.674-.14-1.095-1.924-1.589-1.166z" fill="#527249"/><path d="M42.764 33.318c.188 1.419-1.477 2.217-2.561 2.701-1.206.405-3.03.95-3.96-.226-.321-1.31 1.23-2.144 2.206-2.632 1.277-.497 3.143-1.115 4.246.016l.04.074z" fill="#333"/><path d="M40.63 35.466c.932-.615-.166-1.357-.212-2.167-.158-.848-.49-1.42-.423-2.192-.773-.286-1.151-1.581-1.709-1.711-.8.533-.273 1.513-.838 2.152-.374.745-1.074 1.445-.861 2.333-.535.68-1.429 1.37-.347 2.009l.092.106.057.064" fill="#80a64d" stroke="#000" stroke-width=".265"/><path d="M38.153 30.029c.682.526.533 1.973-.417 1.038.352.762 1.308.825 1.181 1.877.535.996-1.229.794-1.736.545-.92-.711.534.838 1.156.661.982-.294 1.469.767.815 1.355-.48.351-2.167-.033-2.007.417.965.212 1.924.352 2.83-.144.994-.206.854-1.316.36-1.946-.104-.928-.866-1.76-.54-2.705-.674-.14-1.095-1.924-1.589-1.166z" fill="#527249"/><path d="M27.773 21.638c.188 1.418-1.478 2.217-2.561 2.7-1.206.405-3.03.95-3.96-.226-.321-1.309 1.23-2.143 2.206-2.631 1.277-.498 3.143-1.115 4.246.015l.04.075z" fill="#333"/><path d="M25.638 23.786c.933-.616-.165-1.357-.211-2.168-.158-.847-.49-1.42-.423-2.192-.773-.286-1.151-1.58-1.709-1.71-.8.532-.273 1.512-.839 2.152-.373.745-1.073 1.444-.86 2.332-.535.681-1.429 1.371-.347 2.01l.092.105.057.065" fill="#80a64d" stroke="#000" stroke-width=".265"/><path d="M23.162 18.348c.682.526.533 1.973-.417 1.039.352.761 1.308.825 1.181 1.877.535.996-1.229.793-1.736.545-.92-.712.534.837 1.156.66.982-.293 1.469.767.815 1.355-.48.352-2.167-.032-2.007.417.965.213 1.924.352 2.83-.143.994-.206.854-1.317.36-1.946-.104-.929-.866-1.76-.54-2.706-.674-.14-1.095-1.923-1.589-1.166z" fill="#527249"/><path d="M23.334 22.748c.189 1.418-1.477 2.216-2.56 2.7-1.206.405-3.03.95-3.96-.226-.322-1.309 1.229-2.144 2.206-2.631 1.277-.498 3.143-1.115 4.245.015l.04.074z" fill="#333"/><path d="M21.2 24.895c.933-.615-.165-1.356-.212-2.167-.157-.847-.489-1.42-.423-2.192-.772-.286-1.15-1.581-1.708-1.71-.8.532-.274 1.512-.839 2.151-.373.745-1.073 1.445-.86 2.333-.535.68-1.43 1.37-.347 2.009l.092.106.056.065" fill="#80a64d" stroke="#000" stroke-width=".265"/><path d="M18.723 19.458c.683.526.534 1.973-.416 1.038.352.762 1.308.826 1.18 1.877.535.997-1.228.794-1.736.545-.92-.71.534.838 1.156.661.983-.293 1.47.767.815 1.355-.479.351-2.167-.033-2.006.417.965.212 1.924.352 2.83-.144.993-.205.853-1.316.359-1.945-.103-.93-.865-1.761-.54-2.706-.673-.14-1.095-1.924-1.588-1.166z" fill="#527249"/><path d="M27.138 26.235c.189 1.418-1.477 2.217-2.56 2.7-1.206.405-3.03.95-3.96-.226-.321-1.309 1.23-2.143 2.206-2.631 1.277-.498 3.143-1.115 4.246.015l.04.075z" fill="#333"/><path d="M25.004 28.383c.933-.616-.165-1.357-.211-2.168-.158-.847-.49-1.42-.423-2.192-.773-.286-1.151-1.58-1.71-1.71-.8.532-.272 1.512-.838 2.152-.373.745-1.073 1.444-.86 2.332-.535.681-1.43 1.371-.347 2.01l.092.105.057.065" fill="#80a64d" stroke="#000" stroke-width=".265"/><path d="M22.528 22.945c.682.526.533 1.973-.417 1.039.352.761 1.308.825 1.18 1.877.536.996-1.228.793-1.736.545-.92-.712.535.837 1.156.66.983-.293 1.47.767.816 1.355-.48.352-2.168-.032-2.007.417.965.213 1.924.352 2.83-.143.994-.206.854-1.317.36-1.946-.104-.929-.866-1.76-.54-2.706-.674-.14-1.096-1.923-1.589-1.166z" fill="#527249"/><path d="M22.7 27.979c.189 1.418-1.477 2.216-2.56 2.7-1.206.405-3.03.95-3.96-.226-.322-1.309 1.229-2.144 2.205-2.631 1.278-.498 3.144-1.115 4.246.015l.04.075z" fill="#333"/><path d="M20.565 30.126c.934-.615-.165-1.356-.21-2.167-.158-.847-.49-1.42-.424-2.192-.772-.286-1.15-1.581-1.709-1.71-.8.532-.273 1.512-.838 2.151-.373.745-1.073 1.445-.86 2.333-.535.68-1.43 1.37-.347 2.01l.092.105.056.065" fill="#80a64d" stroke="#000" stroke-width=".265"/><path d="M18.09 24.689c.682.526.533 1.973-.417 1.038.351.762 1.307.826 1.18 1.878.535.996-1.229.793-1.736.545-.92-.712.534.837 1.156.66.983-.293 1.47.767.815 1.355-.48.351-2.167-.033-2.006.417.965.212 1.924.352 2.83-.144.993-.205.853-1.316.359-1.945-.103-.93-.866-1.761-.54-2.706-.673-.14-1.095-1.923-1.588-1.166z" fill="#527249"/><path d="M26.821 30.832c.189 1.418-1.477 2.217-2.56 2.7-1.206.405-3.03.95-3.96-.226-.321-1.309 1.23-2.143 2.206-2.631 1.277-.498 3.143-1.115 4.246.015l.04.075z" fill="#333"/><path d="M24.687 32.98c.933-.616-.165-1.357-.211-2.168-.158-.847-.49-1.42-.423-2.192-.773-.286-1.151-1.58-1.71-1.71-.8.532-.272 1.512-.838 2.152-.373.745-1.073 1.444-.86 2.332-.535.681-1.43 1.371-.347 2.01l.092.105.057.065" fill="#80a64d" stroke="#000" stroke-width=".265"/><path d="M22.21 27.542c.683.526.534 1.973-.416 1.039.352.761 1.308.825 1.18 1.877.536.996-1.228.793-1.736.545-.92-.712.535.837 1.156.66.983-.293 1.47.767.815 1.355-.479.352-2.167-.032-2.006.417.965.213 1.924.352 2.83-.143.994-.206.854-1.317.36-1.946-.104-.929-.866-1.76-.54-2.706-.674-.14-1.096-1.923-1.589-1.166z" fill="#527249"/><path d="M20.956 32.576c.189 1.418-1.477 2.216-2.56 2.7-1.206.405-3.03.95-3.96-.226-.322-1.309 1.23-2.144 2.206-2.631 1.277-.498 3.143-1.115 4.246.015l.04.075z" fill="#333"/><path d="M18.822 34.723c.933-.615-.165-1.356-.211-2.167-.158-.847-.49-1.42-.423-2.192-.773-.286-1.151-1.581-1.71-1.71-.8.532-.272 1.512-.838 2.151-.373.745-1.073 1.445-.86 2.333-.535.68-1.43 1.37-.347 2.01l.092.105.056.065" fill="#80a64d" stroke="#000" stroke-width=".265"/><path d="M16.346 29.286c.682.526.533 1.973-.417 1.038.352.762 1.308.826 1.18 1.878.535.996-1.228.793-1.736.545-.92-.712.534.837 1.156.66.983-.293 1.47.767.815 1.355-.479.351-2.167-.033-2.006.417.965.213 1.924.352 2.83-.144.993-.205.854-1.316.36-1.945-.104-.93-.866-1.761-.54-2.706-.674-.14-1.096-1.923-1.59-1.166z" fill="#527249"/><path d="M25.236 34.953c.189 1.419-1.477 2.217-2.56 2.701-1.206.405-3.03.95-3.96-.226-.322-1.31 1.229-2.144 2.206-2.632 1.277-.497 3.143-1.115 4.246.016l.04.074z" fill="#333"/><path d="M23.102 37.101c.933-.615-.165-1.357-.211-2.167-.158-.848-.49-1.42-.423-2.192-.773-.286-1.151-1.581-1.71-1.71-.8.532-.272 1.512-.838 2.151-.373.745-1.073 1.445-.86 2.333-.535.68-1.43 1.37-.347 2.009l.092.106.056.065" fill="#80a64d" stroke="#000" stroke-width=".265"/><path d="M20.626 31.664c.682.526.533 1.973-.417 1.038.352.762 1.308.826 1.18 1.877.535.996-1.228.794-1.736.545-.92-.711.534.838 1.156.661.983-.293 1.47.767.815 1.355-.479.351-2.167-.033-2.006.417.965.212 1.924.352 2.83-.144.993-.206.854-1.316.36-1.945-.104-.93-.866-1.761-.54-2.706-.674-.14-1.096-1.924-1.59-1.166z" fill="#527249"/><path d="M28.248 36.695c.189 1.418-1.477 2.216-2.56 2.7-1.206.405-3.03.95-3.96-.226-.322-1.309 1.229-2.143 2.206-2.631 1.277-.498 3.143-1.115 4.245.015l.04.075z" fill="#333"/><path d="M26.114 40.43c.933-.616-.165-1.357-.211-2.167-.158-.848-.49-1.42-.423-2.192-.773-.286-1.152-1.581-1.71-1.711-.8.533-.272 1.513-.838 2.152-.373.745-1.073 1.445-.86 2.333-.535.68-1.43 1.37-.347 2.009l.092.106.056.064" fill="#80a64d" stroke="#000" stroke-width=".265"/><path d="M23.637 34.993c.683.526.534 1.973-.416 1.038.352.762 1.308.825 1.18 1.877.535.996-1.228.794-1.736.545-.92-.711.534.838 1.156.661.983-.294 1.47.766.815 1.354-.479.352-2.167-.032-2.006.418.965.212 1.924.352 2.83-.144.993-.206.853-1.316.359-1.946-.103-.928-.865-1.76-.54-2.705-.673-.14-1.095-1.924-1.588-1.166z" fill="#527249"/><path d="M31.418 39.548c.189 1.419-1.477 2.217-2.56 2.701-1.206.404-3.03.949-3.96-.227-.321-1.308 1.23-2.143 2.206-2.63 1.277-.499 3.143-1.116 4.246.015l.04.074z" fill="#333"/><path d="M29.284 41.696c.933-.616-.165-1.357-.211-2.167-.158-.848-.49-1.42-.423-2.192-.773-.286-1.151-1.582-1.71-1.711-.8.532-.272 1.513-.838 2.152-.373.745-1.073 1.444-.86 2.333-.535.68-1.43 1.37-.347 2.009l.092.105.057.065" fill="#80a64d" stroke="#000" stroke-width=".265"/><path d="M26.808 36.258c.682.526.533 1.974-.417 1.039.352.762 1.308.825 1.18 1.877.536.996-1.228.794-1.736.545-.92-.711.535.838 1.156.66.983-.293 1.47.767.816 1.355-.48.352-2.168-.032-2.007.417.965.213 1.924.352 2.83-.143.994-.206.854-1.317.36-1.946-.104-.929-.866-1.76-.54-2.706-.674-.139-1.096-1.923-1.589-1.166z" fill="#527249"/><path d="M11.92 23.223c.19 1.419-1.476 2.217-2.56 2.701-1.206.404-3.03.949-3.96-.227-.321-1.308 1.23-2.143 2.206-2.63 1.277-.499 3.144-1.116 4.246.014l.04.075z" fill="#333"/><path d="M9.786 25.37c.933-.615-.165-1.356-.21-2.166-.159-.848-.49-1.42-.424-2.193-.773-.285-1.15-1.58-1.709-1.71-.8.532-.273 1.513-.838 2.152-.373.745-1.073 1.444-.861 2.333-.535.68-1.429 1.37-.347 2.009l.093.105.056.065" fill="#80a64d" stroke="#000" stroke-width=".265"/><path d="M7.31 19.933c.682.526.533 1.974-.417 1.039.352.762 1.308.825 1.181 1.877.535.996-1.229.794-1.736.545-.92-.711.534.838 1.156.66.982-.293 1.469.767.815 1.355-.48.352-2.167-.032-2.007.417.965.213 1.924.352 2.83-.143.994-.206.854-1.317.36-1.946-.104-.929-.866-1.76-.54-2.706-.674-.139-1.095-1.923-1.589-1.166z" fill="#527249"/><path d="M8.275 24.016c.188 1.418-1.477 2.216-2.561 2.7-1.206.405-3.03.95-3.96-.226-.321-1.309 1.23-2.144 2.206-2.631 1.278-.498 3.144-1.115 4.246.015l.04.075z" fill="#333"/><path d="M6.14 26.163c.934-.615-.165-1.356-.21-2.167-.159-.847-.49-1.42-.424-2.192-.772-.286-1.15-1.581-1.709-1.71-.8.532-.273 1.512-.838 2.151-.373.746-1.073 1.445-.86 2.333-.535.68-1.43 1.37-.347 2.01l.092.105.056.065" fill="#80a64d" stroke="#000" stroke-width=".265"/><path d="M3.664 20.726c.683.526.533 1.973-.417 1.038.352.762 1.308.826 1.181 1.878.535.996-1.229.793-1.736.545-.92-.712.534.837 1.156.66.983-.293 1.47.767.815 1.355-.48.351-2.167-.033-2.006.417.965.213 1.923.352 2.829-.144.994-.205.854-1.316.36-1.945-.103-.929-.866-1.761-.54-2.706-.673-.14-1.095-1.923-1.589-1.166z" fill="#527249"/><path d="M12.238 27.186c.188 1.419-1.477 2.217-2.561 2.701-1.206.404-3.03.949-3.96-.227-.321-1.308 1.23-2.143 2.206-2.63 1.278-.499 3.144-1.116 4.246.014l.04.075z" fill="#333"/><path d="M10.103 29.334c.933-.616-.165-1.357-.21-2.167-.159-.848-.49-1.421-.424-2.193-.773-.285-1.15-1.58-1.709-1.71-.8.532-.273 1.513-.838 2.152-.373.745-1.073 1.444-.86 2.333-.536.68-1.43 1.37-.347 2.008l.092.106.056.065" fill="#80a64d" stroke="#000" stroke-width=".265"/><path d="M7.627 23.896c.682.526.533 1.974-.417 1.039.352.762 1.308.825 1.181 1.877.535.996-1.229.793-1.736.545-.92-.711.534.838 1.156.66.982-.293 1.469.767.815 1.355-.48.352-2.167-.032-2.006.417.964.213 1.923.352 2.829-.143.994-.206.854-1.317.36-1.946-.104-.929-.866-1.76-.54-2.706-.674-.14-1.095-1.923-1.589-1.166z" fill="#527249"/><path d="M8.592 29.088c.188 1.419-1.477 2.217-2.56 2.701-1.207.404-3.03.95-3.961-.227-.321-1.308 1.23-2.143 2.206-2.63 1.278-.499 3.144-1.116 4.246.015l.04.074z" fill="#333"/><path d="M6.457 31.236c.934-.616-.165-1.357-.21-2.167-.159-.848-.49-1.42-.424-2.192-.772-.286-1.15-1.582-1.709-1.711-.8.532-.273 1.513-.838 2.152-.373.745-1.073 1.445-.86 2.333-.535.68-1.43 1.37-.347 2.009l.092.106.056.064" fill="#80a64d" stroke="#000" stroke-width=".265"/><path d="M3.981 25.799c.683.526.533 1.973-.417 1.038.352.762 1.308.825 1.181 1.877.535.996-1.229.794-1.736.545-.92-.711.534.838 1.156.661.983-.294 1.47.766.815 1.354-.48.352-2.167-.032-2.006.418.965.212 1.923.352 2.83-.144.993-.206.853-1.316.359-1.946-.103-.928-.866-1.76-.54-2.706-.673-.139-1.095-1.923-1.589-1.165z" fill="#527249"/><path d="M12.08 31.307c.188 1.419-1.478 2.217-2.562 2.701-1.205.405-3.03.95-3.96-.226-.32-1.309 1.23-2.144 2.207-2.631 1.277-.498 3.143-1.115 4.246.015l.04.074z" fill="#333"/><path d="M9.945 33.455c.933-.615-.165-1.356-.211-2.167-.158-.848-.49-1.42-.423-2.192-.773-.286-1.151-1.581-1.71-1.71-.8.532-.272 1.512-.838 2.151-.373.745-1.073 1.445-.86 2.333-.535.68-1.43 1.37-.347 2.009l.092.106.056.065" fill="#80a64d" stroke="#000" stroke-width=".265"/><path d="M7.469 28.018c.682.526.533 1.973-.417 1.038.352.762 1.308.826 1.18 1.877.535.997-1.228.794-1.736.545-.92-.711.534.838 1.156.661.983-.293 1.47.767.815 1.355-.479.351-2.167-.033-2.006.417.965.212 1.924.352 2.83-.144.993-.206.854-1.316.36-1.945-.104-.93-.866-1.761-.54-2.706-.674-.14-1.096-1.924-1.59-1.166z" fill="#527249"/><path d="M14.616 34.636c.188 1.419-1.477 2.217-2.561 2.701-1.206.405-3.03.95-3.96-.226-.321-1.31 1.23-2.144 2.206-2.632 1.277-.497 3.143-1.115 4.246.016l.04.074z" fill="#333"/><path d="M12.481 36.784c.933-.615-.165-1.357-.211-2.167-.158-.848-.49-1.42-.423-2.192-.773-.286-1.151-1.581-1.709-1.711-.8.533-.273 1.513-.838 2.152-.374.745-1.074 1.445-.861 2.333-.535.68-1.429 1.37-.347 2.009l.092.106.057.064" fill="#80a64d" stroke="#000" stroke-width=".265"/><path d="M10.005 31.347c.682.526.533 1.973-.417 1.038.352.762 1.308.825 1.181 1.877.535.996-1.229.794-1.736.545-.92-.711.534.838 1.156.661.982-.293 1.469.767.815 1.355-.48.351-2.167-.033-2.007.417.965.212 1.924.352 2.83-.144.994-.206.854-1.316.36-1.945-.104-.93-.866-1.761-.54-2.706-.674-.14-1.095-1.924-1.589-1.166z" fill="#527249"/><path d="M18.579 38.282c.188 1.419-1.478 2.217-2.561 2.701-1.206.404-3.03.95-3.96-.226-.321-1.31 1.23-2.144 2.206-2.632 1.277-.497 3.143-1.115 4.246.016l.04.074z" fill="#333"/><path d="M16.444 40.43c.933-.616-.165-1.357-.211-2.167-.158-.848-.49-1.42-.423-2.192-.773-.286-1.151-1.581-1.709-1.711-.8.533-.273 1.513-.839 2.152-.373.745-1.073 1.445-.86 2.333-.535.68-1.429 1.37-.347 2.009l.092.106.057.064" fill="#80a64d" stroke="#000" stroke-width=".265"/><path d="M13.968 34.993c.682.526.533 1.973-.417 1.038.352.762 1.308.825 1.18 1.877.536.996-1.228.794-1.735.545-.92-.711.534.838 1.155.661.983-.294 1.47.766.816 1.354-.48.352-2.168-.032-2.007.418.965.212 1.924.352 2.83-.144.994-.206.854-1.316.36-1.946-.104-.928-.866-1.76-.54-2.705-.674-.14-1.096-1.924-1.589-1.166z" fill="#527249"/><path d="M21.115 39.602c.188 1.418-1.477 2.216-2.561 2.7-1.206.405-3.03.95-3.96-.226-.321-1.309 1.23-2.143 2.206-2.631 1.278-.498 3.144-1.115 4.246.015l.04.075z" fill="#333"/><path d="M18.98 41.75c.933-.616-.165-1.357-.21-2.168-.159-.847-.49-1.42-.424-2.192-.773-.286-1.15-1.581-1.709-1.71-.8.532-.273 1.512-.838 2.152-.373.745-1.073 1.444-.86 2.332-.536.68-1.43 1.371-.347 2.01l.092.105.056.065" fill="#80a64d" stroke="#000" stroke-width=".265"/><path d="M16.504 36.312c.682.526.533 1.973-.417 1.038.352.762 1.308.826 1.181 1.878.535.996-1.229.793-1.736.545-.92-.712.534.837 1.156.66.982-.293 1.469.767.815 1.355-.48.351-2.167-.033-2.006.417.964.213 1.923.352 2.829-.144.994-.205.854-1.316.36-1.945-.104-.929-.866-1.761-.54-2.706-.673-.14-1.095-1.923-1.589-1.166z" fill="#527249"/><path d="M7.165 34.32c.189 1.418-1.477 2.216-2.56 2.7-1.206.405-3.03.95-3.96-.226-.322-1.31 1.229-2.144 2.206-2.632 1.277-.497 3.143-1.115 4.245.016l.041.074z" fill="#333"/><path d="M5.03 36.467c.934-.615-.164-1.357-.21-2.167-.158-.848-.49-1.42-.423-2.192-.773-.286-1.151-1.581-1.71-1.711-.8.533-.272 1.513-.838 2.152-.373.745-1.073 1.445-.86 2.333-.535.68-1.43 1.37-.347 2.009l.092.106.056.064" fill="#80a64d" stroke="#000" stroke-width=".265"/><path d="M2.555 31.03c.682.526.533 1.973-.417 1.038.352.762 1.308.825 1.18 1.877.535.996-1.228.794-1.736.545-.92-.711.534.838 1.156.661.983-.294 1.47.767.815 1.355-.479.351-2.167-.033-2.006.417.965.212 1.924.352 2.83-.144.993-.206.854-1.316.36-1.946-.104-.928-.866-1.76-.54-2.705-.674-.14-1.096-1.924-1.59-1.166z" fill="#527249"/><path d="M9.543 37.49c.189 1.418-1.477 2.216-2.56 2.7-1.206.405-3.03.95-3.96-.226-.322-1.309 1.229-2.143 2.205-2.631 1.278-.498 3.144-1.115 4.246.015l.04.075z" fill="#333"/><path d="M7.408 39.637c.934-.615-.164-1.356-.21-2.167-.158-.847-.49-1.42-.424-2.192-.772-.286-1.15-1.581-1.709-1.71-.8.532-.273 1.512-.838 2.152-.373.745-1.073 1.444-.86 2.332-.535.68-1.43 1.37-.347 2.01l.092.105.056.065" fill="#80a64d" stroke="#000" stroke-width=".265"/><path d="M4.932 34.2c.683.526.534 1.973-.416 1.038.351.762 1.308.826 1.18 1.878.535.996-1.229.793-1.736.545-.92-.712.534.837 1.156.66.983-.293 1.47.767.815 1.355-.48.351-2.167-.033-2.006.417.965.213 1.924.352 2.83-.144.993-.205.853-1.316.359-1.945-.103-.929-.865-1.761-.54-2.706-.673-.14-1.095-1.923-1.588-1.166z" fill="#527249"/><path d="M16.026 5.084c.189 1.419-1.477 2.217-2.56 2.701-1.206.405-3.03.95-3.96-.226-.321-1.309 1.23-2.144 2.206-2.632 1.277-.497 3.143-1.115 4.246.016l.04.074z" fill="#333"/><path d="M10.737 41.698c.934-.615-.165-1.357-.21-2.167-.159-.848-.49-1.42-.424-2.192-.772-.286-1.15-1.581-1.709-1.71-.8.532-.273 1.512-.838 2.151-.373.745-1.073 1.445-.86 2.333-.535.68-1.43 1.37-.347 2.009l.092.106.056.065" fill="#80a64d" stroke="#000" stroke-width=".265"/><path d="M8.261 36.26c.683.527.533 1.974-.417 1.04.352.761 1.308.825 1.181 1.876.535.997-1.229.794-1.736.545-.92-.711.534.838 1.156.661.983-.293 1.47.767.815 1.355-.48.351-2.167-.033-2.006.417.965.212 1.923.352 2.83-.144.993-.206.853-1.316.359-1.945-.103-.93-.866-1.761-.54-2.706-.673-.14-1.095-1.924-1.589-1.166z" fill="#527249"/><path d="M17.453 7.304c.189 1.418-1.477 2.216-2.56 2.7-1.206.405-3.03.95-3.96-.226-.322-1.309 1.229-2.144 2.206-2.631 1.277-.498 3.143-1.115 4.245.015l.04.075z" fill="#333"/><path d="M15.318 9.451c.934-.615-.164-1.356-.21-2.167-.158-.847-.49-1.42-.424-2.192-.772-.286-1.15-1.581-1.709-1.71-.8.532-.273 1.512-.838 2.151-.373.746-1.073 1.445-.86 2.333-.535.68-1.43 1.37-.347 2.01l.092.105.056.065" fill="#80a64d" stroke="#000" stroke-width=".265"/><path d="M12.842 4.014c.683.526.534 1.973-.416 1.038.352.762 1.308.826 1.18 1.878.535.996-1.228.793-1.736.545-.92-.712.534.837 1.156.66.983-.293 1.47.767.815 1.355-.479.351-2.167-.033-2.006.417.965.213 1.924.352 2.83-.144.993-.205.853-1.316.359-1.945-.103-.929-.865-1.761-.54-2.706-.673-.14-1.095-1.923-1.588-1.166z" fill="#527249"/><path d="M34.589 16.248c.188 1.419-1.477 2.217-2.561 2.701-1.206.404-3.03.95-3.96-.226-.321-1.31 1.23-2.144 2.206-2.632 1.278-.497 3.144-1.115 4.246.016l.04.074z" fill="#333"/><path d="M32.454 18.396c.933-.616-.165-1.357-.21-2.167-.159-.848-.49-1.42-.424-2.192-.773-.286-1.15-1.581-1.709-1.711-.8.533-.273 1.513-.838 2.152-.373.745-1.073 1.445-.86 2.333-.535.68-1.43 1.37-.347 2.009l.092.106.056.064" fill="#80a64d" stroke="#000" stroke-width=".265"/><path d="M29.978 12.959c.682.526.533 1.973-.417 1.038.352.762 1.308.825 1.181 1.877.535.996-1.229.794-1.736.545-.92-.711.534.838 1.156.661.982-.294 1.469.766.815 1.354-.48.352-2.167-.032-2.006.418.965.212 1.923.352 2.829-.144.994-.206.854-1.316.36-1.946-.103-.928-.866-1.76-.54-2.705-.673-.14-1.095-1.924-1.589-1.166z" fill="#527249"/><path d="M37.918 20.528c.188 1.419-1.477 2.217-2.561 2.701-1.206.404-3.03.95-3.96-.226-.321-1.31 1.23-2.144 2.206-2.632 1.277-.497 3.144-1.115 4.246.016l.04.074z" fill="#333"/><path d="M35.783 22.676c.933-.616-.165-1.357-.21-2.167-.159-.848-.49-1.42-.424-2.192-.773-.286-1.151-1.581-1.709-1.711-.8.533-.273 1.513-.838 2.152-.373.745-1.073 1.445-.861 2.333-.535.68-1.429 1.37-.347 2.009l.092.106.057.064" fill="#80a64d" stroke="#000" stroke-width=".265"/><path d="M33.307 17.239c.682.526.533 1.973-.417 1.038.352.762 1.308.825 1.181 1.877.535.996-1.229.794-1.736.545-.92-.711.534.838 1.156.661.982-.294 1.469.766.815 1.354-.48.352-2.167-.032-2.007.418.965.212 1.924.352 2.83-.144.994-.206.854-1.316.36-1.946-.104-.928-.866-1.76-.54-2.706-.674-.139-1.095-1.923-1.589-1.165z" fill="#527249"/><path d="M35.381 24.967c.189 1.418-1.477 2.216-2.56 2.7-1.206.405-3.03.95-3.96-.226-.321-1.309 1.23-2.143 2.206-2.631 1.277-.498 3.143-1.115 4.246.015l.04.075z" fill="#333"/><path d="M33.247 27.114c.933-.615-.165-1.356-.211-2.167-.158-.847-.49-1.42-.423-2.192-.773-.286-1.151-1.581-1.71-1.71-.8.532-.272 1.512-.838 2.152-.373.745-1.073 1.444-.86 2.332-.535.68-1.43 1.371-.347 2.01l.092.105.057.065" fill="#80a64d" stroke="#000" stroke-width=".265"/><path d="M30.77 21.677c.683.526.534 1.973-.416 1.039.352.761 1.308.825 1.18 1.877.535.996-1.228.793-1.736.545-.92-.712.534.837 1.156.66.983-.293 1.47.767.815 1.355-.479.351-2.167-.032-2.006.417.965.213 1.924.352 2.83-.144.994-.205.854-1.316.36-1.945-.104-.929-.866-1.761-.54-2.706-.674-.14-1.096-1.923-1.589-1.166z" fill="#527249"/><path d="M34.906 29.722c.188 1.419-1.477 2.217-2.56 2.701-1.207.405-3.03.95-3.961-.226-.321-1.31 1.23-2.144 2.206-2.632 1.278-.497 3.144-1.115 4.246.016l.04.074z" fill="#333"/><path d="M32.771 31.87c.934-.615-.165-1.357-.21-2.167-.159-.848-.49-1.42-.424-2.192-.772-.286-1.15-1.581-1.709-1.711-.8.533-.273 1.513-.838 2.152-.373.745-1.073 1.445-.86 2.333-.535.68-1.43 1.37-.347 2.009l.092.106.056.064" fill="#80a64d" stroke="#000" stroke-width=".265"/><path d="M30.295 26.433c.683.526.533 1.973-.417 1.038.352.762 1.308.825 1.181 1.877.535.996-1.229.794-1.736.545-.92-.711.534.838 1.156.661.983-.294 1.47.766.815 1.355-.48.351-2.167-.033-2.006.417.965.212 1.923.352 2.83-.144.993-.206.853-1.316.359-1.946-.103-.928-.866-1.76-.54-2.705-.673-.14-1.095-1.924-1.589-1.166z" fill="#527249"/><path d="M41.763 14.847c.188 1.418-1.477 2.217-2.561 2.7-1.206.405-3.03.95-3.96-.226-.321-1.309 1.23-2.143 2.206-2.631 1.277-.498 3.143-1.115 4.246.015l.04.075z" fill="#333"/><path d="M39.628 16.995c.933-.616-.165-1.357-.211-2.168-.158-.847-.49-1.42-.423-2.192-.773-.286-1.151-1.58-1.709-1.71-.8.532-.273 1.512-.838 2.152-.374.745-1.074 1.444-.861 2.332-.535.681-1.429 1.371-.347 2.01l.092.105.057.065" fill="#80a64d" stroke="#000" stroke-width=".265"/><path d="M37.152 11.557c.682.526.533 1.973-.417 1.039.352.761 1.308.825 1.181 1.877.535.996-1.229.793-1.736.545-.92-.712.534.837 1.156.66.982-.293 1.469.767.815 1.355-.48.352-2.167-.032-2.007.417.965.213 1.924.352 2.83-.144.994-.205.854-1.316.36-1.945-.104-.929-.866-1.761-.54-2.706-.674-.14-1.095-1.923-1.589-1.166z" fill="#527249"/><path d="M16.2 14.029c.19 1.419-1.476 2.217-2.56 2.701-1.206.404-3.03.949-3.96-.227-.321-1.308 1.23-2.143 2.206-2.63 1.277-.499 3.144-1.116 4.246.014l.04.075z" fill="#333"/><path d="M14.066 16.177c.933-.616-.165-1.357-.21-2.167-.159-.848-.49-1.42-.424-2.193-.773-.285-1.151-1.58-1.709-1.71-.8.532-.273 1.513-.838 2.152-.373.745-1.073 1.444-.861 2.333-.535.68-1.429 1.37-.347 2.008l.092.106.057.065" fill="#80a64d" stroke="#000" stroke-width=".265"/><path d="M11.59 10.74c.682.525.533 1.973-.417 1.038.352.762 1.308.825 1.181 1.877.535.996-1.229.793-1.736.545-.92-.711.534.838 1.156.66.982-.293 1.469.767.815 1.355-.48.352-2.167-.032-2.007.417.965.213 1.924.352 2.83-.143.994-.206.854-1.317.36-1.946-.104-.929-.866-1.76-.54-2.706-.674-.14-1.095-1.923-1.589-1.166z" fill="#527249"/><path d="M19.847 13.87c.188 1.42-1.477 2.217-2.561 2.702-1.206.404-3.03.948-3.96-.227-.321-1.309 1.23-2.144 2.206-2.631 1.277-.498 3.144-1.115 4.246.015l.04.074z" fill="#333"/><path d="M17.712 16.018c.933-.615-.165-1.356-.21-2.167-.159-.847-.49-1.42-.424-2.192-.773-.286-1.151-1.581-1.709-1.71-.8.532-.273 1.512-.838 2.151-.374.745-1.073 1.445-.861 2.333-.535.68-1.429 1.37-.347 2.009l.092.106.057.065" fill="#80a64d" stroke="#000" stroke-width=".265"/><path d="M15.236 10.58c.682.527.533 1.974-.417 1.04.352.761 1.308.825 1.181 1.876.535.997-1.229.794-1.736.545-.92-.71.534.838 1.156.661.982-.293 1.469.767.815 1.355-.48.351-2.167-.033-2.007.417.965.212 1.924.352 2.83-.144.994-.205.854-1.316.36-1.945-.104-.93-.866-1.761-.54-2.706-.674-.14-1.095-1.924-1.589-1.166z" fill="#527249"/><path d="M17.627 18.626c.189 1.419-1.477 2.217-2.56 2.701-1.206.404-3.03.949-3.96-.227-.321-1.308 1.23-2.143 2.206-2.63 1.277-.499 3.143-1.116 4.246.014l.04.075z" fill="#333"/><path d="M15.493 20.774c.933-.616-.165-1.357-.211-2.167-.158-.848-.49-1.42-.423-2.193-.773-.285-1.151-1.58-1.71-1.71-.8.532-.272 1.513-.838 2.152-.373.745-1.073 1.444-.86 2.333-.535.68-1.43 1.37-.347 2.008l.092.106.057.065" fill="#80a64d" stroke="#000" stroke-width=".265"/><path d="M13.017 15.336c.682.526.533 1.974-.417 1.039.352.762 1.308.825 1.18 1.877.535.996-1.228.794-1.736.545-.92-.711.534.838 1.156.66.983-.293 1.47.767.815 1.355-.479.352-2.167-.032-2.006.417.965.213 1.924.352 2.83-.143.994-.206.854-1.317.36-1.946-.104-.929-.866-1.76-.54-2.706-.674-.14-1.096-1.923-1.589-1.166z" fill="#527249"/></svg>