<svg xmlns="http://www.w3.org/2000/svg" xmlns:xlink="http://www.w3.org/1999/xlink" viewBox="0 0 19.192 20.516" height="77.54" width="72.537"><defs><linearGradient id="e"><stop offset="0" stop-color="#ff2a2a"/><stop offset="1" stop-color="#4d4d4d" stop-opacity="0"/></linearGradient><linearGradient id="d"><stop offset="0"/><stop offset="1" stop-opacity="0"/></linearGradient><linearGradient id="c"><stop offset="0" stop-color="#fff"/><stop offset="1" stop-color="#4d4d4d" stop-opacity="0"/></linearGradient><linearGradient id="b"><stop offset="0" stop-color="#ccc"/><stop offset="1" stop-color="#b3b3b3"/></linearGradient><linearGradient id="a"><stop offset="0" stop-color="#4e2825"/><stop offset="1" stop-color="#220f0f"/></linearGradient><linearGradient y2="-24.847" x2="-99.786" y1="-31.839" x1="-99.786" gradientTransform="matrix(.20963 0 0 1 100.31 125.818)" gradientUnits="userSpaceOnUse" id="h" xlink:href="#a"/><linearGradient y2="-31.745" x2="-116.133" y1="-43.159" x1="-116.133" gradientTransform="matrix(.22188 0 0 1.01156 103.746 127.117)" gradientUnits="userSpaceOnUse" id="i" xlink:href="#e"/><radialGradient gradientUnits="userSpaceOnUse" gradientTransform="matrix(.27608 -.02262 .0043 .94755 110.583 127.61)" r="38.25" fy="-37.541" fx="-121.524" cy="-37.541" cx="-121.524" id="g" xlink:href="#b"/><filter height="1.247" y="-.123" width="1.063" x="-.032" id="f" color-interpolation-filters="sRGB"><feGaussianBlur stdDeviation=".967"/></filter></defs><g transform="translate(-67.39 -84.462)"><rect transform="matrix(.2464 0 0 .87445 50.895 10.745)" width="73.25" height="18.821" x="69.263" y="86.621" ry="2.871" opacity=".2" stroke="#1a1a1a" stroke-width="1.078" stroke-linecap="round" stroke-linejoin="round" paint-order="stroke fill markers" filter="url(#f)"/><rect ry="2.871" y="85.418" x="68.447" height="18.821" width="16.829" fill="url(#g)" stroke="#1a1a1a" stroke-width=".517" stroke-linecap="round" stroke-linejoin="round" paint-order="stroke fill markers"/><rect width="14.876" height="16.725" x="69.467" y="86.513" ry="2.551" fill="url(#h)" stroke="#000" stroke-width=".458" stroke-linecap="round" stroke-linejoin="round" paint-order="stroke fill markers"/><rect ry="2.581" y="86.689" x="69.278" height="10.801" width="15.116" fill="url(#i)" paint-order="stroke fill markers"/><path d="M80.244 88.296l-3.63 4.121-3.906-4.264-2.085 2.368 3.906 4.264-4.031 4.576 2.127 2.322 4.03-4.576 3.907 4.264 2.085-2.368-3.906-4.264 3.63-4.12z" fill="#fff" stroke="#000" stroke-width=".732"/></g></svg>