<?xml version="1.0" encoding="UTF-8" standalone="no"?>
<!-- Created with Inkscape (http://www.inkscape.org/) -->

<svg
   width="7.4955502mm"
   height="4.6386399mm"
   viewBox="0 0 7.4955502 4.6386399"
   version="1.1"
   id="svg346"
   inkscape:version="1.1 (c4e8f9e, 2021-05-24)"
   sodipodi:docname="eyes_opened.svg"
   xmlns:inkscape="http://www.inkscape.org/namespaces/inkscape"
   xmlns:sodipodi="http://sodipodi.sourceforge.net/DTD/sodipodi-0.dtd"
   xmlns="http://www.w3.org/2000/svg"
   xmlns:svg="http://www.w3.org/2000/svg">
  <sodipodi:namedview
     id="namedview348"
     pagecolor="#ffffff"
     bordercolor="#666666"
     borderopacity="1.0"
     inkscape:pageshadow="2"
     inkscape:pageopacity="0.0"
     inkscape:pagecheckerboard="0"
     inkscape:document-units="mm"
     showgrid="false"
     fit-margin-top="0"
     fit-margin-left="0"
     fit-margin-right="0"
     fit-margin-bottom="0"
     inkscape:zoom="0.64765011"
     inkscape:cx="14.668414"
     inkscape:cy="8.4922397"
     inkscape:window-width="1312"
     inkscape:window-height="955"
     inkscape:window-x="0"
     inkscape:window-y="23"
     inkscape:window-maximized="0"
     inkscape:current-layer="layer1" />
  <defs
     id="defs343" />
  <g
     inkscape:label="Layer 1"
     inkscape:groupmode="layer"
     id="layer1"
     transform="translate(-101.44824,-146.18068)">
    <path
       id="ellipse4765"
       style="stroke-width:0.0916087"
       d="m 103.39224,148.7372 a 0.972,2.0821223 0 0 0 -0.972,-2.08212 0.972,2.0821223 0 0 0 -0.972,2.08212 0.972,2.0821223 0 0 0 0.972,2.08212 0.972,2.0821223 0 0 0 0.972,-2.08212 z" />
    <path
       id="ellipse4767"
       style="stroke-width:0.0850652"
       d="m 107.13928,148.11408 a 0.90225303,1.9333992 0 0 1 0.90225,-1.9334 0.90225303,1.9333992 0 0 1 0.90226,1.9334 0.90225303,1.9333992 0 0 1 -0.90226,1.9334 0.90225303,1.9333992 0 0 1 -0.90225,-1.9334 z" />
  </g>
</svg>
