<?xml version="1.0" encoding="UTF-8" standalone="no"?>
<!-- Created with Inkscape (http://www.inkscape.org/) -->

<svg
   width="15.169291mm"
   height="19.938887mm"
   viewBox="0 0 15.169291 19.938887"
   version="1.1"
   id="svg2121"
   inkscape:version="1.1 (c4e8f9e, 2021-05-24)"
   sodipodi:docname="left_leg.svg"
   xmlns:inkscape="http://www.inkscape.org/namespaces/inkscape"
   xmlns:sodipodi="http://sodipodi.sourceforge.net/DTD/sodipodi-0.dtd"
   xmlns="http://www.w3.org/2000/svg"
   xmlns:svg="http://www.w3.org/2000/svg">
  <sodipodi:namedview
     id="namedview2123"
     pagecolor="#ffffff"
     bordercolor="#666666"
     borderopacity="1.0"
     inkscape:pageshadow="2"
     inkscape:pageopacity="0.0"
     inkscape:pagecheckerboard="0"
     inkscape:document-units="mm"
     showgrid="false"
     inkscape:zoom="1.6292245"
     inkscape:cx="-3.9896282"
     inkscape:cy="31.610131"
     inkscape:window-width="1312"
     inkscape:window-height="955"
     inkscape:window-x="1744"
     inkscape:window-y="77"
     inkscape:window-maximized="0"
     inkscape:current-layer="layer1"
     fit-margin-top="0"
     fit-margin-left="0"
     fit-margin-right="0"
     fit-margin-bottom="0" />
  <defs
     id="defs2118" />
  <g
     inkscape:label="Layer 1"
     inkscape:groupmode="layer"
     id="layer1"
     transform="translate(-101.08386,-125.25338)">
    <path
       style="fill:#217867;fill-opacity:1;stroke:#000000;stroke-width:0.691885;stroke-linecap:butt;stroke-linejoin:miter;stroke-miterlimit:4;stroke-dasharray:none;stroke-opacity:1"
       d="m 104.71739,125.94243 8.23784,4.8054 -3.00338,9.61081 -4.54797,-0.51486 0.17162,-6.52162 -4.03311,-4.46216 2.66014,-3.175 z"
       id="path4757"
       inkscape:connector-curvature="0"
       sodipodi:nodetypes="cccccccc" />
    <path
       style="fill:#374837;fill-opacity:1;stroke:#000000;stroke-width:0.691885;stroke-linecap:butt;stroke-linejoin:miter;stroke-miterlimit:4;stroke-dasharray:none;stroke-opacity:1"
       d="m 103.65066,143.61519 1.70885,-3.20409 2.64337,0.0801 2.85698,0.13349 2.93708,0.50731 1.25494,1.12145 0.74762,2.00254 -1.97585,0.58742 -2.77688,-0.16021 -3.4711,-0.48061 -3.04388,-0.18691 z"
       id="path5604"
       inkscape:connector-curvature="0" />
    <path
       style="fill:#374837;fill-opacity:1;stroke:#000000;stroke-width:0.691885;stroke-linecap:butt;stroke-linejoin:miter;stroke-miterlimit:4;stroke-dasharray:none;stroke-opacity:1"
       d="m 105.17969,140.58374 -0.11328,-1.94467 c 0,0 -0.0378,-1.64258 -0.0378,-1.79362 0,-0.15105 0.0189,-2.22788 0.0189,-2.22788 l 4.3047,-0.39648 1.60483,-0.16992 c 0,0 1.00065,-0.50977 1.15169,-0.5664 0.15105,-0.0566 1.03842,-0.49089 1.03842,-0.49089 0,0 0.11328,1.83139 0.0944,1.92579 -0.0189,0.0944 -1.26498,3.75717 -1.26498,3.75717 l -0.62305,1.86915 -0.73633,0.49089 c 0,0 -2.34115,-0.22658 -2.41667,-0.22658 -0.0755,0 -3.02085,-0.22656 -3.02085,-0.22656 z"
       id="path5606"
       inkscape:connector-curvature="0" />
    <path
       style="fill:#00aa88;fill-opacity:1;stroke:#000000;stroke-width:0.691885;stroke-linecap:butt;stroke-linejoin:miter;stroke-miterlimit:4;stroke-dasharray:none;stroke-opacity:1"
       d="m 105.62652,126.39322 4.05851,2.16276 -1.86905,1.54864 -2.02926,2.10937 -1.12143,6.48827 -1.49524,-2.26956 0.24031,-5.98096 -0.16021,-2.96379 z"
       id="path5636"
       inkscape:connector-curvature="0" />
    <path
       style="fill:#ac9393;fill-opacity:1;stroke:#000000;stroke-width:0.691885;stroke-linecap:butt;stroke-linejoin:miter;stroke-miterlimit:4;stroke-dasharray:none;stroke-opacity:1"
       d="m 107.5586,127.10323 4.56903,2.73764 -1.11394,0.49089 -1.1517,1.5293 -3.79493,-2.43556 0.83073,-1.54818 z"
       id="path5632"
       inkscape:connector-curvature="0" />
  </g>
</svg>
