<?xml version="1.0" encoding="UTF-8" standalone="no"?>
<!-- Created with Inkscape (http://www.inkscape.org/) -->

<svg
   width="20.074406mm"
   height="24.231369mm"
   viewBox="0 0 20.074406 24.231369"
   version="1.1"
   id="svg2121"
   inkscape:version="1.1 (c4e8f9e, 2021-05-24)"
   sodipodi:docname="left_arm.svg"
   xmlns:inkscape="http://www.inkscape.org/namespaces/inkscape"
   xmlns:sodipodi="http://sodipodi.sourceforge.net/DTD/sodipodi-0.dtd"
   xmlns="http://www.w3.org/2000/svg"
   xmlns:svg="http://www.w3.org/2000/svg">
  <sodipodi:namedview
     id="namedview2123"
     pagecolor="#ffffff"
     bordercolor="#666666"
     borderopacity="1.0"
     inkscape:pageshadow="2"
     inkscape:pageopacity="0.0"
     inkscape:pagecheckerboard="0"
     inkscape:document-units="mm"
     showgrid="false"
     inkscape:zoom="0.64765011"
     inkscape:cx="37.829068"
     inkscape:cy="342.00565"
     inkscape:window-width="1312"
     inkscape:window-height="955"
     inkscape:window-x="1744"
     inkscape:window-y="77"
     inkscape:window-maximized="0"
     inkscape:current-layer="layer1"
     fit-margin-top="0"
     fit-margin-left="0"
     fit-margin-right="0"
     fit-margin-bottom="0" />
  <defs
     id="defs2118" />
  <g
     inkscape:label="Layer 1"
     inkscape:groupmode="layer"
     id="layer1"
     transform="translate(-95.363069,-58.151161)">
    <path
       style="fill:#1c241c;stroke:#000000;stroke-width:0.753401;stroke-linecap:butt;stroke-linejoin:miter;stroke-miterlimit:4;stroke-dasharray:none;stroke-opacity:1"
       d="m 100.79459,58.923047 c 5.66268,-0.41413 9.61408,-0.3872 13.52774,1.60359 1.89768,8.97481 -0.078,13.62043 -3.20718,20.84674 -7.55336,1.5244 -8.85389,0.44573 -13.609992,-4.93414 z"
       id="path5598"
       inkscape:connector-curvature="0"
       sodipodi:nodetypes="ccccc" />
    <path
       sodipodi:nodetypes="ccccc"
       inkscape:connector-curvature="0"
       id="path5592"
       d="m 95.768198,61.088897 c 1.96583,5.98683 3.76629,6.80161 8.367122,10.94496 l 2.82694,-3.63973 c -4.45816,-1.98488 -7.705672,-4.82397 -8.218312,-9.59286 z"
       style="fill:#217867;stroke:#000000;stroke-width:0.691885;stroke-linecap:butt;stroke-linejoin:miter;stroke-miterlimit:4;stroke-dasharray:none;stroke-opacity:1" />
    <path
       style="fill:none;stroke:#000000;stroke-width:0.691885;stroke-linecap:butt;stroke-linejoin:miter;stroke-miterlimit:4;stroke-dasharray:none;stroke-opacity:1"
       d="m 106.28952,66.914467 c 0.27495,0.10998 0.18864,0.0369 0.30339,0.15169 0.0169,0.0169 0.0292,0.0399 0.0506,0.0506 0.0151,0.008 0.0355,-0.008 0.0506,0 0.0213,0.0107 0.032,0.0357 0.0506,0.0506 0.0658,0.0526 0.13645,0.099 0.20226,0.15169 0.0186,0.0149 0.028,0.043 0.0506,0.0506 0.032,0.0107 0.0692,-0.0107 0.10113,0 0.017,0.006 0.19024,0.19025 0.20226,0.20226 0.0337,0.0337 0.0674,0.0674 0.10113,0.10112 0.0169,0.0169 0.0399,0.0292 0.0506,0.0506 0.0238,0.0477 0.0267,0.10402 0.0506,0.15169 0.0107,0.0213 0.0337,0.0337 0.0506,0.0506 0.0337,0.0337 0.0747,0.0615 0.10113,0.10114 0.009,0.014 -0.008,0.0355 0,0.0506 0.0213,0.0426 0.0861,0.0559 0.10113,0.10113 0.096,0.28808 -0.0917,-0.038 0.0506,0.15169 0.0365,0.0486 0.0647,0.10309 0.10113,0.15171 0.0143,0.0191 0.0399,0.0292 0.0506,0.0506 0.008,0.0151 0,0.0337 0,0.0506 0,0.0337 -0.008,0.0684 0,0.10112 0.009,0.0366 0.0414,0.0646 0.0506,0.10114 0.008,0.0327 -0.0107,0.0692 0,0.10112 0.008,0.0226 0.043,0.028 0.0506,0.0506 0.0213,0.064 -0.025,0.13966 0,0.20225 0.0226,0.0564 0.0739,0.0973 0.10113,0.1517 0.0151,0.0302 -0.0107,0.0692 0,0.10114 0.0119,0.0358 0.0414,0.0646 0.0506,0.10112 0.0122,0.049 -0.016,0.10372 0,0.15169 0.0119,0.0358 0.0386,0.0654 0.0506,0.10113 0.005,0.016 0,0.0337 0,0.0506 0,0.0516 -0.008,0.32938 0,0.35394 0.008,0.0226 0.0448,0.0274 0.0506,0.0506 0.0163,0.0654 0,0.13483 0,0.20225 0,0.35395 0,0.7079 0,1.06185 0,0.15169 0,0.30339 0,0.45509 0,0.0506 0.0122,0.10264 0,0.15169 -0.008,0.0328 -0.13021,0.27116 -0.15169,0.30339 -0.0265,0.0397 -0.0861,0.0559 -0.10113,0.10112 -0.0107,0.032 0.0107,0.0692 0,0.10114 -0.008,0.0226 -0.0337,0.0337 -0.0506,0.0506 -0.0168,0.0169 -0.0292,0.0399 -0.0506,0.0506 -0.0151,0.008 -0.0355,-0.008 -0.0506,0 -0.0213,0.0107 -0.0337,0.0337 -0.0506,0.0506 -0.0777,0.0777 -0.14437,0.16611 -0.25282,0.20226 -0.016,0.005 -0.0346,-0.005 -0.0506,0 -0.0358,0.0119 -0.0646,0.0414 -0.10113,0.0506 -0.049,0.0122 -0.10372,-0.016 -0.15169,0 -0.0358,0.0119 -0.0654,0.0386 -0.10113,0.0506 -0.032,0.0107 -0.0674,0 -0.10113,0 -0.0674,0 -0.13484,0 -0.20226,0 -0.20226,0 -0.40451,0 -0.60677,0 -0.16855,0 -0.3371,0 -0.50565,0 -0.0506,0 -0.10113,0 -0.15169,0 -0.0168,0 -0.0342,0.004 -0.0506,0 -0.0517,-0.0129 -0.1,-0.0376 -0.1517,-0.0506 -0.0267,-0.007 -0.1348,0.0113 -0.15169,0 -0.0397,-0.0264 -0.0615,-0.0747 -0.10113,-0.10113 -0.014,-0.009 -0.0346,0.005 -0.0506,0 -0.0358,-0.0119 -0.0646,-0.0414 -0.10112,-0.0506 -0.0327,-0.008 -0.0692,0.0107 -0.10113,0 -0.0226,-0.008 -0.0292,-0.0399 -0.0506,-0.0506 -0.0151,-0.008 -0.0365,0.009 -0.0506,0 -0.0565,-0.0377 -0.14722,-0.14722 -0.20226,-0.20227 -0.0395,-0.0395 -0.12261,-0.10805 -0.15169,-0.15169 -0.0209,-0.0314 -0.0297,-0.0698 -0.0506,-0.10112 -0.0264,-0.0397 -0.0798,-0.0585 -0.10113,-0.10113 -0.008,-0.0151 0.008,-0.0355 0,-0.0506 -0.0107,-0.0213 -0.0399,-0.0292 -0.0506,-0.0506 -0.008,-0.0151 0.008,-0.0355 0,-0.0506 -0.0107,-0.0213 -0.0383,-0.0301 -0.0506,-0.0506 -0.0388,-0.0646 -0.0623,-0.13762 -0.10113,-0.20226 -0.0123,-0.0204 -0.0399,-0.0292 -0.0506,-0.0506 -0.008,-0.0151 0,-0.0337 0,-0.0506 -0.0169,-0.0337 -0.0312,-0.0688 -0.0506,-0.10112 -0.0313,-0.0521 -0.0647,-0.10307 -0.10113,-0.1517 -0.008,-0.0105 -0.0997,-0.0969 -0.10113,-0.10113 -0.0107,-0.032 0.008,-0.0684 0,-0.10112 -0.009,-0.0366 -0.0387,-0.0654 -0.0506,-0.10114 -0.0151,-0.0454 0.0116,-0.10512 0,-0.15169 -0.0129,-0.0517 -0.0376,-0.1 -0.0506,-0.15169 -0.008,-0.0327 0.0151,-0.071 0,-0.10113 -0.0272,-0.0544 -0.0786,-0.0953 -0.10113,-0.15168 -0.025,-0.0626 0.0163,-0.13687 0,-0.20227 -0.009,-0.0366 -0.0387,-0.0654 -0.0506,-0.10113 -0.005,-0.016 0,-0.0337 0,-0.0506 0,-0.0843 0,-0.16855 0,-0.25282 0,-0.10113 0,-0.20226 0,-0.30339 0,-0.0228 -0.008,-0.1363 0,-0.15168 0.0107,-0.0213 0.043,-0.028 0.0506,-0.0506 0.0107,-0.032 -0.0107,-0.0692 0,-0.10113 0.008,-0.0226 0.0337,-0.0337 0.0506,-0.0506 0.0169,-0.0169 0.0337,-0.0337 0.0506,-0.0506 0.0169,-0.0169 0.0292,-0.0399 0.0506,-0.0506 0.1488,-0.0744 -0.0666,0.11714 0.10113,-0.0506"
       id="path4839"
       inkscape:connector-curvature="0" />
    <path
       inkscape:connector-curvature="0"
       id="path5594"
       d="m 103.42896,71.566567 2.50677,3.07908 c 0,0 3.83413,-4.14977 3.73996,-4.14314 -0.0942,0.007 -3.39887,-2.84598 -3.39887,-2.84598 l -1.3247,-0.26641 z"
       style="fill:#f39578;fill-opacity:1;stroke:#000000;stroke-width:0.691885;stroke-linecap:butt;stroke-linejoin:miter;stroke-miterlimit:4;stroke-dasharray:none;stroke-opacity:1" />
    <path
       style="fill:#374837;fill-opacity:1;stroke:#000000;stroke-width:0.691885;stroke-linecap:butt;stroke-linejoin:miter;stroke-miterlimit:4;stroke-dasharray:none;stroke-opacity:1"
       d="m 107.90644,67.223667 -3.52449,7.42281 -1.33504,-1.68215 3.7114,-6.27467 z"
       id="path5608"
       inkscape:connector-curvature="0" />
    <path
       style="fill:#f39578;fill-opacity:1;stroke:#000000;stroke-width:0.691885;stroke-linecap:butt;stroke-linejoin:miter;stroke-miterlimit:4;stroke-dasharray:none;stroke-opacity:1"
       d="m 103.39064,69.930957 1.42038,1.74466 c 0,0 2.17249,-2.35133 2.11913,-2.34757 -0.0534,0.004 -1.92586,-1.61259 -1.92586,-1.61259 l -0.7506,-0.15095 z"
       id="path5596"
       inkscape:connector-curvature="0" />
  </g>
</svg>
