<?xml version="1.0" encoding="UTF-8" standalone="no"?>
<!-- Created with Inkscape (http://www.inkscape.org/) -->

<svg
   width="18.047575mm"
   height="15.446084mm"
   viewBox="0 0 18.047575 15.446084"
   version="1.1"
   id="svg2121"
   inkscape:version="1.1 (c4e8f9e, 2021-05-24)"
   sodipodi:docname="right_arm.svg"
   inkscape:export-filename="/Users/leonardofarroco/dev/mana-phaser/art/fighter/library/right_arm.png"
   inkscape:export-xdpi="79"
   inkscape:export-ydpi="79"
   xmlns:inkscape="http://www.inkscape.org/namespaces/inkscape"
   xmlns:sodipodi="http://sodipodi.sourceforge.net/DTD/sodipodi-0.dtd"
   xmlns="http://www.w3.org/2000/svg"
   xmlns:svg="http://www.w3.org/2000/svg">
  <sodipodi:namedview
     id="namedview2123"
     pagecolor="#ffffff"
     bordercolor="#666666"
     borderopacity="1.0"
     inkscape:pageshadow="2"
     inkscape:pageopacity="0.0"
     inkscape:pagecheckerboard="0"
     inkscape:document-units="mm"
     showgrid="false"
     inkscape:zoom="2.2251717"
     inkscape:cx="-3.3705264"
     inkscape:cy="75.724494"
     inkscape:window-width="1680"
     inkscape:window-height="955"
     inkscape:window-x="0"
     inkscape:window-y="23"
     inkscape:window-maximized="1"
     inkscape:current-layer="layer1"
     fit-margin-top="0"
     fit-margin-left="0"
     fit-margin-right="0"
     fit-margin-bottom="0" />
  <defs
     id="defs2118" />
  <g
     inkscape:label="Layer 1"
     inkscape:groupmode="layer"
     id="layer1"
     transform="translate(-86.195911,-102.61236)">
    <path
       style="fill:none;stroke:#000000;stroke-width:0.691885;stroke-linecap:butt;stroke-linejoin:miter;stroke-miterlimit:4;stroke-dasharray:none;stroke-opacity:1"
       d="m 96.119286,108.77696 c -0.23837,0 -0.47673,0 -0.71509,0 -0.0238,0 -0.0502,-0.0107 -0.0715,0 -0.0302,0.0151 -0.0435,0.0528 -0.0715,0.0715 -0.0443,0.0296 -0.0987,0.0419 -0.14302,0.0715 -0.16363,0.10909 0.0447,0.0566 -0.21453,0.14302 -0.0226,0.008 -0.0489,-0.008 -0.0715,0 -0.0409,0.0136 -0.40636,0.19184 -0.42905,0.21453 -0.0169,0.0169 0.0132,0.0517 0,0.0715 -0.0374,0.0561 -0.0954,0.0953 -0.14302,0.14302 -0.11918,0.11918 -0.23836,0.23836 -0.35754,0.35754 -0.11919,0.11918 -0.23837,0.23837 -0.35755,0.35755 -0.0238,0.0238 -0.0564,0.0413 -0.0715,0.0715 -0.0107,0.0213 0.0107,0.0502 0,0.0715 -0.0352,0.0704 -0.25085,0.21567 -0.28603,0.28603 -0.0213,0.0426 0.0213,0.10038 0,0.14302 -0.0302,0.0603 -0.1217,0.0791 -0.14302,0.14302 -0.0151,0.0452 0.0151,0.0978 0,0.14302 -0.0107,0.032 -0.0477,0.0477 -0.0715,0.0715 -0.0477,0.0477 -0.0953,0.0953 -0.14302,0.14302"
       id="path4833"
       inkscape:connector-curvature="0" />
    <path
       style="fill:#217867;stroke:#000000;stroke-width:0.691885;stroke-linecap:butt;stroke-linejoin:miter;stroke-miterlimit:4;stroke-dasharray:none;stroke-opacity:1"
       d="m 97.355626,106.08441 c -5.91685,2.16736 -6.67022,3.99437 -10.65547,8.73282 l 3.73335,2.70212 c 1.83282,-4.52279 4.56037,-7.86456 9.30917,-8.53833 z"
       id="path5566"
       inkscape:connector-curvature="0"
       sodipodi:nodetypes="ccccc"
       inkscape:transform-center-x="6.1454593"
       inkscape:transform-center-y="4.3284492" />
    <path
       style="fill:#ac9393;stroke:#000000;stroke-width:0.691885;stroke-linecap:butt;stroke-linejoin:miter;stroke-miterlimit:4;stroke-dasharray:none;stroke-opacity:1"
       d="m 99.221766,110.71741 4.602734,-3.09364 c -0.91397,-2.46769 -0.24597,-3.0622 -5.508194,-4.64047 l -5.01773,2.52774 c 3.61088,0.0533 5.71348,1.25178 5.92319,5.20637 z"
       id="path5564"
       inkscape:connector-curvature="0"
       sodipodi:nodetypes="ccccc" />
  </g>
</svg>
