<?xml version="1.0" encoding="UTF-8" standalone="no"?>
<!-- Created with Inkscape (http://www.inkscape.org/) -->

<svg
   width="22.360851mm"
   height="22.73662mm"
   viewBox="0 0 22.360851 22.73662"
   version="1.1"
   id="svg2121"
   inkscape:version="1.1 (c4e8f9e, 2021-05-24)"
   sodipodi:docname="right_leg.svg"
   xmlns:inkscape="http://www.inkscape.org/namespaces/inkscape"
   xmlns:sodipodi="http://sodipodi.sourceforge.net/DTD/sodipodi-0.dtd"
   xmlns="http://www.w3.org/2000/svg"
   xmlns:svg="http://www.w3.org/2000/svg">
  <sodipodi:namedview
     id="namedview2123"
     pagecolor="#ffffff"
     bordercolor="#666666"
     borderopacity="1.0"
     inkscape:pageshadow="2"
     inkscape:pageopacity="0.0"
     inkscape:pagecheckerboard="0"
     inkscape:document-units="mm"
     showgrid="false"
     inkscape:zoom="0.64765011"
     inkscape:cx="-132.01573"
     inkscape:cy="93.414637"
     inkscape:window-width="1312"
     inkscape:window-height="955"
     inkscape:window-x="368"
     inkscape:window-y="23"
     inkscape:window-maximized="0"
     inkscape:current-layer="layer1"
     fit-margin-top="0"
     fit-margin-left="0"
     fit-margin-right="0"
     fit-margin-bottom="0" />
  <defs
     id="defs2118" />
  <g
     inkscape:label="Layer 1"
     inkscape:groupmode="layer"
     id="layer1"
     transform="translate(-93.402792,-123.85452)">
    <path
       style="fill:#217867;fill-opacity:1;stroke:#000000;stroke-width:0.691885;stroke-linecap:butt;stroke-linejoin:miter;stroke-miterlimit:4;stroke-dasharray:none;stroke-opacity:1"
       d="m 108.01183,126.0744 -6.43581,6.43581 -4.719596,10.21149 3.947296,0.60067 5.49189,-7.37973 7.20811,-5.92094 -3.60406,-3.43244 -1.6304,-0.51486 z"
       id="path4753"
       inkscape:connector-curvature="0" />
    <path
       style="fill:#00aa88;stroke:#000000;stroke-width:0.691885;stroke-linecap:butt;stroke-linejoin:miter;stroke-miterlimit:4;stroke-dasharray:none;stroke-opacity:1"
       d="m 105.16957,128.02226 -1.07618,0.83074 2.36004,1.9069 1.30274,2.22788 1.00065,1.47266 0.32097,1.77474 1.60482,-2.60548 2.97008,-3.33881 1.65349,-4.11993 -5.71863,-1.92475 -4.3991,3.88933 z"
       id="path5634"
       inkscape:connector-curvature="0"
       sodipodi:nodetypes="cccccccccccc" />
    <path
       style="fill:#374837;fill-opacity:1;stroke:#000000;stroke-width:0.691885;stroke-linecap:butt;stroke-linejoin:miter;stroke-miterlimit:4;stroke-dasharray:none;stroke-opacity:1"
       d="m 97.065358,140.96655 c 0,0 0.50977,-6.23049 0.56641,-6.36265 0.0566,-0.13216 0.33985,-1.73699 0.49089,-1.96355 0.15104,-0.22656 0.69857,-1.13282 0.77409,-1.17058 0.0755,-0.0378 1.340502,0.28321 1.340502,0.28321 l 1.66147,2.07683 2.07682,1.86915 c 0,0 1.11394,1.01953 1.18946,1.03841 0.0755,0.0189 0.69857,0.37761 0.69857,0.37761 l -3.9271,5.07879 -0.77409,0.58529 -1.793622,-1.11394 -1.77475,-0.37761 z"
       id="path5602"
       inkscape:connector-curvature="0" />
    <path
       style="fill:#374837;stroke:#000000;stroke-width:0.691885;stroke-linecap:butt;stroke-linejoin:miter;stroke-miterlimit:4;stroke-dasharray:none;stroke-opacity:1"
       d="m 94.842071,145.56552 1.397137,0.49088 c 0,0 1.41602,0.1888 1.49154,0.1888 h 1.88803 c 0.15104,0 0.868492,-0.11328 1.057302,-0.20768 0.1888,-0.0944 1.20833,-0.56641 1.20833,-0.56641 l 0.67969,-0.50976 -0.41536,-1.28386 -0.90626,-1.56706 -1.09505,-1.0573 -2.039072,-0.2832 -1.5293,0.43424 -1.718107,1.00066 -0.641929,1.18946 -0.415364,1.13281 z"
       id="path5600"
       inkscape:connector-curvature="0"
       sodipodi:nodetypes="ccsscccccccccccc" />
    <path
       style="fill:#ac9393;fill-opacity:1;stroke:#000000;stroke-width:0.691885;stroke-linecap:butt;stroke-linejoin:miter;stroke-miterlimit:4;stroke-dasharray:none;stroke-opacity:1"
       d="m 108.01755,124.58758 -0.90783,0.29371 -1.65544,1.68214 -0.61412,1.01463 1.92245,1.22823 0.56072,0.98793 0.61412,1.22823 2.72347,-2.13606 0.77432,-0.80102 -0.29371,-1.49524 -1.65544,-1.68214 z"
       id="path5630"
       inkscape:connector-curvature="0" />
  </g>
</svg>
