<svg xmlns="http://www.w3.org/2000/svg" width="500" height="500" viewBox="0 0 132.292 132.292"><path d="M56.517 58.3l-.053 4.54-.567 6.01.874 1.599 1.616 1.95 2.787 1.338 4.264.307 4.404-1.087 3.333-2.485.68-2.197.223-3.205.386-4.24-.749-2.867-2.87-2.313-4.097-1.394h-3.567l-3.651 1.31-1.507 1.107z" fill="#fff"/><path d="M73.175 70.472c-4.03 4.637-14.808 5.503-17.278-1.623.6-3.516.57-7.032.62-10.548 5.482-7.45 18.281-3.51 17.947 2.53-.606 4.202-.326 8.094-1.289 9.641z" fill="none" stroke="#000" stroke-width=".50510373" stroke-linecap="round" stroke-linejoin="round"/><path d="M59.968 73.036c4.71 3.323 11.106-.65 13.207-2.564l.769-3.346.107-1.432.079-2.712.228-1.355c.018-1.774-.417-3.142-1.907-4.594-1.154-1.125-1.369-1.461-3.38-1.946-3.482-.839-6.767-1.27-9.232.444-.295.204-.132.846.167 1.392 1.985 3.623 2.763 10.431-.038 16.113z" opacity=".2" fill="#1a1a1a"/><path d="M59.533 65.67c2.193-.8 1.486 3.713.436 3.705" fill="none" stroke="#000" stroke-width=".26468764"/></svg>