<svg xmlns="http://www.w3.org/2000/svg" width="400" height="116.622" viewBox="0 0 105.833 30.856"><path d="M7.24 30.46c.102-1.213 1.513-2.639.646-3.695-1.33-2.007-3.284-3.823-3.899-6.133-.308-1.849.28-3.71 2.394-3.569 1.564-.202.663 3.355 1.413 1.01.752-1.011-.303-2.985-1.652-2.367-1.411.851-2.717.923-1.274-1.05-.015-1.75-1.082-2.268-2.7-2.141.521.696 1.168 2.48.042 3.245-.974.83-1.148 2.565-.434 3.603.727 1.1 1.97 2.393.33 3.352C.643 23.82-.856 25.349.587 27.222c.777 2.625 3.884 3.933 6.353 3.479l.172-.138z" fill="#f67c01"/><path d="M5.758 30.504c.06-1.055.896-2.294.383-3.212-.788-1.745-1.945-3.322-2.31-5.33-1.492-2.712.855-5.693 2.765-5.015.926-.176.393 2.915.837.878.445-.88-.18-2.595-.978-2.058-1.003 1.064-3.686 2.097-2.125-.983-.009-1.52-.64-1.971-1.6-1.861.31.606.693 2.155.025 2.82-.577.722-.065 4.12.358 5.021.43.956.576 2.175-.395 3.008-.868.96-1.756 2.29-.9 3.917.46 2.281 2.3 3.418 3.762 3.024l.102-.12z" fill="#ffc929"/><path d="M5.435 30.645c.044-.777.66-1.691.282-2.369-.581-1.286-1.435-2.45-1.703-3.93-.135-.478-.238-1.102-.666-.914.318.705.56 1.634-.156 2.249-.64.708-1.295 1.688-.664 2.889.34 1.682 1.696 2.52 2.775 2.23l.075-.089z" fill="#f9f079"/><path d="M17.214 30.33c-1.057-2.195-2.103-3.84-1.276-6.378-.6-1.065-2.568-1.787-1.907-3.168 1.11-2.05-.467-4.2-.802-5.723.176-1.706 2.44-4.378 3.928-2.88.534.5-1.778 1.184-2.167 2.45-.542 2.504 3.123 2.643 2.986 4.306 1.26-1.326 2.244-.084 1.23 1.193-.226 1.028-.345 3.193 1.22 2.964 1.31.128 2.203 1.368 2.094 2.614-.103 1.479-1.049 2.78-.723 4.292-.96 1.443-3.374.638-4.583.33z" fill="#f67c01"/><path d="M18.442 12.093c1.198-1.352 1.964.187 2.551 1.229-.769 1.41-1.992-1.077-3.22-.637-.722.073.654-.478.67-.592zM17.308 14.692c2.129-.798.796 1.962.022.132z" fill="#f67c01"/><path d="M17.68 30.409c-.842-1.75-1.676-3.06-1.017-5.082-.477-.849-1.195-1.755-.669-2.855.885-1.633-2.073-6.56-2.34-7.773.14-1.36 1.945-3.488 3.13-2.295.425.399-1.417.943-1.727 1.952-.432 1.995 2.725 4.374 2.616 5.7 1.004-1.057 1.882 1.35 1.074 2.367-.18.82.245 2.402 1.492 2.22 1.045.102 1.756 1.09 1.669 2.083-.082 1.178-.836 2.215-.577 3.42-.765 1.149-2.688.508-3.651.263z" fill="#ffc929"/><path d="M18.843 30.691c-.348-.723-.692-1.264-.42-2.1-.197-.35-.494-.724-.276-1.178.365-.675-.857-2.71-.967-3.21.058-.562.803-1.442 1.293-.949.175.165-.585.39-.714.807-.178.824 1.126 1.806 1.08 2.354.415-.437.778.557.444.978-.074.338.102.992.617.916.431.043.725.45.689.86-.034.487-.345.916-.238 1.413-.316.475-1.11.21-1.508.109zM18.84 12.425h.901l.435.602-.401.2-.635-.334-.3-.468z" fill="#f9f079"/><g><path d="M29.425 9.234c-1.179.657-2.654 1.106-2.434 2.747.379 1.54.536 3.215-.445 4.6-.54 1.644 1.542 2.396 2.782 2.849 1.12.462 2.042 1.508 1.798 2.797.315 2.024-2.237.944-2.485 2.34-.868 1.8-.094 3.837 1.112 5.242 1.184 1.016 2.792 1.44 4.197.6.55-1.635-.589-4.032.247-5.974.303-1.817.267-3.997-1.434-5.107-1.164-1.57-4.025-1.708-4.184-3.938.119-1.643 1.146-2.885 2.035-4.18-.151-.905.167-3.296-1.134-2.003zM31.976 9.565c1.076-.572 3.07-.665 2.503 1.084-.41-1.345-2.45.11-2.503-1.084z" fill="#f67c01"/><path d="M29.564 10.087c-.889.631-2.001 1.062-1.835 2.639.285 1.478.404 3.088-.336 4.418-.408 1.58 2.265 2.235 3.201 2.67.845.443 1.44 1.549 1.256 2.787.237 1.944-2.69.873-2.877 2.213-.654 1.73-.071 3.687.839 5.037.893.975 2.106 1.382 3.165.576.415-1.571-.444-3.873.187-5.739.228-1.745.2-3.839-1.082-4.905-.877-1.51-3.771-1.742-3.89-3.884.09-1.578.864-2.87 1.535-4.115-.115-.869.86-2.965-.121-1.724z" fill="#ffc929"/><path d="M29.92 29.654c-.206-1.167-.975-2.403-.459-3.582.513-.936 1.794-.413 2.421-1.182.887-.989.386-2.398.351-3.578.21 2.051.545 4.177-.088 6.19-.119.852.73 1.87-.065 2.58-.643.537-1.589.28-2.065-.35l-.095-.078z" fill="#f9f079"/></g><g><path d="M45.797 5.38c-1.31.63-1.308 2.41-2.304 2.761-1.174.383-2.892-.086-3.33 1.387-1.429 1.767.906 2.97-.013 4.904-.649 1.52.19 3.839 1.854 4.208 1.429.621 2.546-.936 4.022-.663 1.381-.55 2.088 1.296 1.995 2.338.142 1.625-1.512 2.024-2.374 3.074-1.105 1.128-2.73 2.206-2.265 4.013.06 1.485.665 2.602 2.079 3.172 1.67.21 3.923.772 5.121-.696.414-1.25.743-2.933-.638-3.677-.296-1.326 1.295-2.45.808-3.727-.195-1.256-.85-2.5-.42-3.771-.632-1.182-2.14-2.094-1.43-3.57-.298-.99-1.96-2.004-3.125-1.368.04-.185 1.603 1.892-.158 2.372-1.292.708-3.718 2.148-4.122-.032.115-1.7-.171-4.071 1.536-5.009 2.21.038 2.309-1.98 1.866-3.544.229-1.63 3.635-.31 2.156-1.555-.278-.386-.865-.392-1.258-.618z" fill="#f67c01"/><path d="M47.487 10.8c-.204-1.379 3.08-1.752 2.088-.609-.676.595-1.247.29-2.088.61z" fill="#f67c01"/><path d="M42.884 8.673c-.928.356-1.743.321-2.088 1.69-1.13 1.64.48 3.608-.247 5.405-.513 1.411 1.284 2.29 2.599 2.632 1.153-.439 2.319-1.059 3.486-.805 1.091-.511 1.862 2.48 1.789 3.447.112 1.51-1.786 1.904-2.467 2.879-.874 1.048-2.157 2.049-1.79 3.727.047 1.38.525 2.416 1.643 2.946 1.32.195 3.1.717 4.047-.647.326-1.16.586-2.723-.504-3.415-.235-1.231 1.023-2.275.638-3.46-.154-1.167-.672-2.322-.332-3.503-.5-1.098-1.69-1.945-1.13-3.316-.235-.92-.647-.558-1.567.032.03-.171.105.124-1.287.57-1.459.876-4.946 1.369-4.58-.998.09-1.58-.868-3.994.481-4.865.842-.703 1.951-.962 1.309-2.32z" fill="#ffc929"/><path d="M45.867 30.595c-.48-1-.957-2.022-1.227-3.099-.02-.878.613-1.604 1.357-1.99.736-.505 1.582-.831 2.307-1.344.65-.495.676-1.388.608-2.13-.024-.334-.544-1.723-.113-.783.531.963.85 2.128.45 3.199-.158.813-.542 1.57-.649 2.39.142.713.655 1.41.578 2.158-.28.559-.344 1.494-1.141 1.497-.708.256-1.44.183-2.17.102z" fill="#f9f079"/></g><g><path d="M59.279 30.223c-.924-1.481-1.94-3.143-1.688-4.917.013-2.083 2.706-.39 2.35-2.106-.224-1.25.156-2.784 1.351-3.25 1.086.389 3.291-.251 2.77-1.654.083-1.488-1.578-2.022-2.421-3.003-1.49.11-2.546 1.226-1.995-1.098.548-1.136 1.008-2.294.85-3.622-1.64-1.468 1.552-.414 1.334.655-.539 1.624 1.098 2.025 2.173 2.742 2.44 3.727 2.556 8.49-.567 11.056.094 1.233.47 2.546.563 3.693-.529 1.266-1.015 2.607-2.641 1.976l-2.08-.472zM55.404 11.371c.135-1.554-1.295-2.122-.476-3.574.456-1.707 1.751-1.624 3.178-1.862.607-1.728 2.34-2.369 3.514-3.34 1.385-1.284-1.881-1.283-1.855.136-1.08.92-2.403-.258-3.436-.79-.714-.806-3.273 2.02-1.053 1.219.445.603-1.323 2.057-.987 3.22-1.611.96-1.89 2.095-.373 3.338.13 2.018 2.22 2.824 1.516 1.353l-.02.219zM60.554 7.828c2.038.227 1.048-4.615 1.969-1.07.253 1.183-1.2 2.136-1.969 1.07zM53.42 13.308c.649.78 2.01 2.608 1.457 3.256-.97-.522-1.996-2.009-1.22-3.067l-.173-.137z" fill="#f67c01"/><path d="M60.239 30.29c-.68-1.325-1.425-2.811-1.24-4.397.01-1.863 1.988-.35 1.726-1.883-.164-1.118.115-2.49.994-2.907.798.348 3.254-1.661 2.87-2.916.062-1.33-2.162-2.476-2.781-3.354-1.095.098-1.871 1.097-1.466-.981.402-1.016.607-.382.49-1.57-1.205-1.312 1.142-.369.981.587-.396 1.452 1.51 1.744 2.3 2.385 1.195 1.66 1.852 4.463 1.2 6.69-.403 1.444-1.799 1.772-2.653 2.863.069 1.103.98 3.112 1.049 4.138-.39 1.132-.747 2.332-1.942 1.767l-1.528-.422z" fill="#ffc929"/><path d="M60.932 30.459c-.245-1.223-.631-2.408-1.086-3.567.04-.904 1.199-.03 1.48-.63.26-.772-.358-1.583.022-2.348.092-.613.597-.992 1.146-1.191.494-.293 1.203-.498 1.302-1.153-.622.868-1.115 1.84-1.871 2.605-.103.763-.265 1.556.101 2.281.256.854.86 1.59.814 2.507.269.715-.188 1.328-.868 1.527-.357.182-.916.014-1.172-.02l.132-.011z" fill="#f9f079"/></g><g><path d="M67.586 2.792c.28-1.253 1.477-2.606 2.817-1.838 1.093.78 2.399 1.318 3.779.882 1.99.61.588-3.372 1.658-1.043.597 1.11-.385 2.967-1.818 2.36-2.087-1.023-.61 2.027-2.203 1.713-1.997.158.757-1.854-1.693-1.597-.832-.05-3.005 1.136-2.54-.477zM67.586 13.328c-1.752-1.54-.03-1.555.709-.19l-.709.19zM66.972 7.138c-1.362-.923-.907-2.633.397-1.065.47.882.028.537-.397 1.065zM71.98 10.87c.82-1.284 1.93-1.735 3.381-1.202 1.542-.033.355 2.3 2.024 2.87 2.196.969.144 3.532 1.338 5.371.598 2.171-1.58 2.956-2.937 3.901-1.026 1.447.613 2.907.337 4.542.058 1.41.748 3.187-.71 4.088-1.145.504-2.63.23-3.905.416-2.952-.998-1.728-4.026-1.489-6.083-.496-1.768-.51-3.074 1.517-2.476 2.071-.635-.096-4.662 3.42-3.583 2.975.591 2.518-3.48.3-3.763.322-1.393.203-2.497-.992-3.436-.351-1.131-1.918.616-2.284-.644z" fill="#f67c01"/><path d="M71.413 11.863c1.223-1.538 1.079 1.38 1.229 2.22-.805.496-1.59-1.36-1.229-2.22z" fill="#f67c01"/><path d="M73.905 10.398c.562-1.285.45-.318 1.446.215 1.057-.033-.23 1.356.916 1.925 1.506.969 1.234 4.017 2.054 5.856.41 2.17-2.22 2.47-3.152 3.416-.703 1.447.421 2.907.232 4.542.04 1.41.513 3.187-.487 4.088-.786.504-1.805.23-2.68.416-2.025-.998-1.186-4.026-1.021-6.083-.34-1.768-.87-2.058.52-1.46 1.422-.635 1.624-4.993 4.037-3.914 2.04.591 1.844-4.732.322-5.016.221-1.393-.496-2.313-1.315-3.252-.241-1.131-.621.527-.872-.733z" fill="#fece34"/><path d="M72.867 30.702c-.292-.562-.93-1.007-.917-1.671-.043-.677-.114-1.403.162-2.04.38-.562.784-1.134.983-1.791.147-.493.196-1.474.384-1.659.29.506.763.932.92 1.496-.008 1.02-.134 2.047.048 3.059.06.563.086 1.13.088 1.697-.19.397-.49.814-.971.832-.227.057-.463.123-.697.077z" fill="#f9f079"/></g><g><path d="M84.201 30.499c1.671.933 4.384-1.476 2.754-2.849-1.014-.68.374-2.33.735-3.083.268-.853-.89-3.862-.983-1.785-2.891.19-1.821-4.132.213-3.525 1.074-.387 3.32.414 2.326-2.389-.117-3.271-2.454 2.886-4.51.067.685-1.537-2.804-1.466-.891-.386.985 1.802-2.665.169-1.716 1.265 1.51.927-.678 1.988.186 3.258-3.15-.239-.477 3.025-1.29 5.156-1.384 2.044.508 5.637 3.176 4.271zM89.38 13.56c.008-2.693-2.302-3.855-3.899-5.68-2.605-.094 1.013 1.446.541 2.975 1.652.377 1.012 3.361 3.358 2.706zM83.099 9.251c1.147 1.362-.481 3.004-.122.586l.122-.586zM83.934 3.037c-1.06-1.03-2.529-1.195-3.761-1.833-1.994-1.052.238-1.588 1.387-.888 1.165.498 2.786-.1 3.61 1.017-.336.695-.83 3.362-1.236 1.704z" fill="#f67c01"/><path d="M83.93 30.517c1.168.877 3.063-1.386 1.924-2.675-.709-.64.261-2.19.514-2.896.187-.8-.622-3.627-.687-1.677-2.02.18-.87-5.109.55-4.538.75-.363.288 1.121 1.46-.425-.082-3.072-1.337 2.143-2.773-.504.478-1.443-2.03-1.92-.693-.906.688 1.692-1.815.3-1.152 1.33 1.055.87-.946 2.268-.342 3.462-2.201-.225-.451 2.817-1.02 4.818-.966 1.92.355 5.294 2.22 4.011z" fill="#fece34"/><path d="M83.296 30.844c-.291-.46-.93-.825-.916-1.37-.043-.554-.114-1.148.162-1.67.38-.46.784-.929.982-1.467.148-.403.196-1.206.384-1.358.29.415.763.764.921 1.226-.009.835-.134 1.676.047 2.504.06.462.086.926.089 1.39-.19.325-.49.667-.972.682-.226.046-.462.1-.697.063z" fill="#f9f079"/></g><g><path d="M96.45 30.744c-4.357.529-3.592-4.675-2.171-6.268-.905-1.71-2.139-3.316-1.497-5.353.152-2.528 2.465-1.545 2.379-4.106 1.315-.722 2.657-.395 1.24.946.341 1.33-1.67 1.91-.624 3.253 1.5-.067 3.329-2.472 3.481.66-.059 1.092-.425 3.016-1.738 2.65-.177 1.453.96 3.037 2.203 3.774.594 1.56-.35 4.505-2.184 4.556-.336.017-.844-.431-1.09-.112z" fill="#f67c01"/><path d="M96.369 30.75c-3.32.502-2.737-4.444-1.654-5.959-.689-1.626-1.63-3.151-1.14-5.087.116-2.404 1.878-1.469 1.812-3.903 1.002-.687 1.29-.476.21.798.26 1.264-1.105 1.915-.308 3.193 1.143-.064 1.3-.947 1.416 2.03-.045 1.039.31 1.564-.69 1.215-.135 1.382 1.902 2.787 2.848 3.489.453 1.483-.266 4.282-1.664 4.33-.256.016-.643-.41-.83-.107z" fill="#fece34"/><path d="M95.981 30.677c-.523-.903-1.4-1.704-1.477-2.798.249-.793 1.15-1.34 1.048-2.302.057-.833-.13-1.668-.597-2.368a28.62 28.62 0 002.778 4.153c.113.816.166 1.67.03 2.48-.309.488-1.268 1.027-1.782.835z" fill="none"/></g></svg>