<svg xmlns="http://www.w3.org/2000/svg" width="150" height="150" viewBox="0 0 39.687 39.688"><g transform="matrix(.25549 0 0 .25549 -2.416 -33.636)"><path d="M55.233 237.587c11.659 9.307 36.812 17.638 42.783 17.188 8.623-2.001 24.673-21.16 24.847-23.54-2.347-13.763-.793-22.445-.986-36.208-21.455-29.156-71.555-13.734-70.246 9.902 2.374 16.448-.164 26.603 3.602 32.658z" fill="#fff" stroke="#000" stroke-width="1.977" stroke-linecap="round" stroke-linejoin="round"/><path d="M93.39 254.715c-12.867-4.088-25.535-10.353-38.157-17.128l-3.007-13.098.174-11.017-1.39-4.42.621-4.123c2.298-27.168 33.748-21.094 19.318-9.915-12.783 9.905-6.017 53.161 22.44 59.7z" opacity=".2"/><ellipse transform="scale(1 -1)" ry="5.945" rx="2.774" cy="-229.535" cx="93.015"/><ellipse cx="-109.895" cy="-226.096" rx="2.576" ry="5.52" transform="scale(-1)"/></g><path d="M14.596 22.234c-2.218.136-1.273 3.23-.117 3.057" fill="none" stroke="#000" stroke-width=".5"/></svg>