<svg xmlns="http://www.w3.org/2000/svg" width="500" height="500" viewBox="0 0 132.292 132.292"><defs><linearGradient id="a"><stop offset="0" stop-color="#e6e6e6"/><stop offset="1" stop-color="gray"/></linearGradient></defs><g transform="matrix(1.28517 0 0 1.06182 -40.084 -177.46)"><g stroke="#000" stroke-width=".226"><path d="M81.724 239.38l1.293 1.613 9.19-8.752-2.587-3.086-8.182 9.788z" fill="#6c5353" transform="translate(-2.633 -8.46)"/><path d="M89.886 229.408l.457-.483.19.368-.418.323z" fill="#c8b7b7" transform="translate(-2.633 -8.46)"/><path d="M90.4 228.833l.514-1.658 1.046 1.566-1.389.483z" fill="#ccc" transform="translate(-2.633 -8.46)"/><path d="M90.571 230.053l.457-.483.19.368-.418.323z" fill="#c8b7b7" transform="translate(-2.633 -8.46)"/><path d="M91.085 229.478l.514-1.659 1.046 1.566-1.389.484z" fill="#f2f2f2" transform="translate(-2.633 -8.46)"/><path d="M91.161 230.951l.457-.483.19.368-.418.323z" fill="#c8b7b7" transform="translate(-2.633 -8.46)"/><path d="M91.675 230.376l.514-1.658 1.046 1.566-1.389.483z" fill="#b3b3b3" transform="translate(-2.633 -8.46)"/><path d="M91.884 231.896l.457-.484.19.369-.418.322z" fill="#c8b7b7" transform="translate(-2.633 -8.46)"/><path d="M92.398 231.32l.514-1.658 1.046 1.566-1.389.483z" fill="#f2f2f2" transform="translate(-2.633 -8.46)"/></g><path d="M86.392 222.677c1.477 4.574 2.544 9.175 5.948 13.626l-1.616-.337-.508 1.267-1.27.615-4.072-.337-1.716 1.305-2.276-14.448 2.795-1.836 1.796-.532z" fill="#006680" stroke="#000" stroke-width=".226"/><path d="M90.703 235.917l-4.63-9.326 2.714 11.258 1.397-.58z" opacity=".3" fill="#1a1a1a"/><path d="M80.209 231.841c.1.643-.089 1.161.363 1.553 2.466-.023 4.167.542 6.552-.276.039-.587.054-1.023.15-1.786-1.073.415-1.667.387-2.9.413-1.814.178-2.346.077-4.165.096z" fill="#9c816f" stroke="#000" stroke-width=".226"/><path d="M80.3 232.302l.298.69 3.613.23-.591-1.073z" opacity=".2" stroke="#000" stroke-width=".226"/><path d="M79.685 225.141l.558 6.765 6.947-.387.36-7.151L86.191 222l-2.316-.966-2.076.241-2.475 2.127z" fill="#99796c" stroke="#000" stroke-width=".226"/><path d="M85.593 231.616c1.782 3.137 1.112 6.46 1.357 9.712l.873-1.283.934 1.472.39-1.493c-.511-2.883-.58-5.766-1.757-8.65z" fill="#536c53" stroke="#000" stroke-width=".226"/><path d="M80.323 231.858l-1.317 5.653 4.232.338-.04-6.185z" fill="#9c816f" stroke="#000" stroke-width=".226"/><path d="M79.924 228.234l7.426-1.257v1.74l-7.31 1.185zM80.124 231.085l7.066-1.015M80.762 224.368l6.588 1.45v1.111l-7.346 1.208-.44-4.01.84-.242z" fill="none" stroke="#000" stroke-width=".226"/><path d="M83.517 224.9l2.954-2.32 1.078 1.595-.2 1.594z" fill="none" stroke="#000" stroke-width=".226"/><path d="M82.493 222.488l-.812-1.357c-1.247-.716-1.755-.153-2.276.386l1.916 2.61-1.836-2.61c-1.158.06-1.469.762-1.797 1.45l2.98 2.635-2.86-2.587c-.962-.107-1.066.675-1.317 1.305l3.462 2.58 1.618-.488-.37-2.43c-.063-.98-.34-2.64 1.292-1.494z" fill="#006680" stroke="#000" stroke-width=".226"/><ellipse ry=".372" rx=".297" cy="225.792" cx="80.929" fill="#e6e6e6" stroke="#1a1a1a" stroke-width=".129" stroke-linecap="square" stroke-linejoin="round" paint-order="fill markers stroke"/><ellipse cx="82.566" cy="226.01" rx=".297" ry=".372" fill="#e6e6e6" stroke="#1a1a1a" stroke-width=".129" stroke-linecap="square" stroke-linejoin="round" paint-order="fill markers stroke"/><ellipse ry=".372" rx=".297" cy="226.203" cx="84.602" fill="#e6e6e6" stroke="#1a1a1a" stroke-width=".129" stroke-linecap="square" stroke-linejoin="round" paint-order="fill markers stroke"/><ellipse cx="86.219" cy="226.372" rx=".297" ry=".372" fill="#e6e6e6" stroke="#1a1a1a" stroke-width=".129" stroke-linecap="square" stroke-linejoin="round" paint-order="fill markers stroke"/><path d="M80.283 232.244l-1.257 5.098 4.192.459z" opacity=".2" stroke="#000" stroke-width=".226"/><ellipse cx="81.228" cy="230.31" rx=".297" ry=".372" fill="#e6e6e6" stroke="#1a1a1a" stroke-width=".129" stroke-linecap="square" stroke-linejoin="round" paint-order="fill markers stroke"/><ellipse ry=".372" rx=".297" cy="230.068" cx="83.145" fill="#e6e6e6" stroke="#1a1a1a" stroke-width=".129" stroke-linecap="square" stroke-linejoin="round" paint-order="fill markers stroke"/><ellipse cx="85.101" cy="229.851" rx=".297" ry=".372" fill="#e6e6e6" stroke="#1a1a1a" stroke-width=".129" stroke-linecap="square" stroke-linejoin="round" paint-order="fill markers stroke"/><ellipse ry=".372" rx=".297" cy="229.529" cx="86.756" fill="#e6e6e6" stroke="#1a1a1a" stroke-width=".129" stroke-linecap="square" stroke-linejoin="round" paint-order="fill markers stroke"/></g></svg>