<svg xmlns="http://www.w3.org/2000/svg" width="500" height="500" viewBox="0 0 132.292 132.292"><path d="M78.786 226.265c-.373 1.402-.677 2.825-1.097 4.214-.356.98-.575 2.018-1.098 2.928-.212.327-.28.764-.494 1.061-.523.062-.037.212.198.34.99.489 1.967 1.011 2.963 1.48 1.074.184 2.143.416 3.213.607 1.237-.056 2.45-.331 3.687-.38l.959-.856-1.331-3.276c-.002-1.394-.06-2.793.18-4.174.083-.636.213-1.272.072-1.91l-.155-1.279-6.15.406-.947.839z" fill="#006680" stroke="#000" stroke-width=".34" transform="matrix(1.28517 0 0 1.06182 -40.084 -177.46)"/><path d="M85.266 221.769c.71.035 1.472-.134 2.104.29.749.379 1.178 1.142 1.47 1.893.678.796-1.015 1.075-1.553.716-.526-.154-.882-.62-1.327-.924-.326-.32-.789-.538-.912-1.012-.234-.26.01-.514.122-.769l.096-.194z" fill="#ccc" stroke="#000" stroke-width=".36" transform="matrix(1.28517 0 0 1.06182 -40.084 -177.46)"/><path d="M84.149 222.929c.054-.874.148-1.89.927-2.44.889-.273.382 1.056.877 1.39.564.457 1.414.876 1.329 1.73-.064.476-.228 1.156-.794 1.116-.75-.638-1.543-1.219-2.34-1.796z" fill="gray" stroke="#000" stroke-width=".36" stroke-linejoin="round" transform="matrix(1.28517 0 0 1.06182 -40.084 -177.46)"/><path d="M68.361 73.314l2.283.36c.193.392.304.837.546 1.197.214.204.912.323.775.589-.655.616-1.714.801-2.633 1.01-.894.07-2.493.229-2.981-.235.293-.8.752-1.587.775-2.43l-.208-2.932c.281.107.872-.057.923.25l.52 2.191z" fill="#666"/><path d="M66.826 70.638c1.625.172 3.476.202 4.854-.637.381-.418.285.412.42.64.163.768.494 1.52.407 2.31l.004 2.022c-.405.585-1.162.253-1.802.143-1.197-.218-2.559-.734-2.79-1.847-.25-.907-.504-1.825-1.093-2.631z" fill="#b3b3b3"/><path d="M82.774 239.057c1.65.48 3.643.09 4.81-1.223.328-1.652.085-3.365-.445-4.947-.867 1.046-2.394.97-3.615.818-.689-.171-.06 1.007-.178 1.45.115 1.32.01 2.693-.572 3.902z" fill="none" stroke="#000" stroke-width=".358" transform="matrix(1.28517 0 0 1.06182 -40.084 -177.46)"/><path d="M64.975 57.74l-.627 1.352-1.38.192c.09.318.056.717.225.984 1.023.313 2.036.676 3.065.96.724-.028 1.479.021 2.183-.054.286-.211.696-.365.91-.61-.059-.258.261-.681-.143-.788-.426-.24-1.008-.35-1.191-.793-.264-.332-.461-.73-.767-1.021-.61-.207-1.212-.443-1.884-.456-.295-.092-.292.042-.391.234z" fill="#fca"/><path d="M63.393 59.347c1.554.776 3.547 1.365 5.297.663 1.259-.264 2.388.6 2.39 1.634.118.986.325 1.965.414 2.951-.016 1.106-.333 2.25.166 3.318.218 1.049-1.176 1.337-2.091 1.583-1.277.308-2.627.165-3.937.237-1.126-.233-3.423-.34-3.104-1.67.423-1.126.552-2.294.33-3.463-.164-1.525-.527-3.037-.583-4.568.074-.436.624-.685 1.118-.685z" fill="#2d7c8f"/><path d="M62.386 61.9c.198 1.063.492 2.117.475 3.197-.012.582.142 1.179.016 1.75l-.569 1.782c1.653.253 3.306.542 4.97.717l4.312-.555c-.01-1.066.063-2.142.002-3.203L70.29 61.47c-1.973-.133-3.959-.173-5.912-.462-.408-.068-.709.293-1.069.416l-.923.477z" fill="#b7c8b7"/><path d="M84.137 222.596c.27.884 1.124 1.04 1.88 1.293.432.595.34 1.391.442 2.093.147 1.755.34 3.508.459 5.264.034.67-.132 1.424-.771 1.775-1.125.525-2.385.116-3.56.032-.66-.086-1.334-.027-1.967-.263-.235-.122-.667-.034-.718-.351-.102-.343-.314-.679-.16-1.04.139-.787.319-1.573.434-2.361-.227-1.777-.479-3.56-.69-5.332.2-.864 1.316-.766 1.823-1.055.183-.44.32-.908.534-1.33.396-.125.86-.008 1.274.033.524.218.713.814 1.02 1.242z" fill="none" stroke="#000" stroke-width=".42" transform="matrix(1.28517 0 0 1.06182 -40.084 -177.46)"/><path d="M79.607 232.573c-.768 1.329-1.225 2.821-1.483 4.328.686.925 1.979 1.064 3.048 1.046 1.134.198.837-1.145 1.195-1.841.208-.905.656-1.897.298-2.816l-3.058-.717z" fill="#b3b3b3" stroke="#000" stroke-width=".347" transform="matrix(1.28517 0 0 1.06182 -40.084 -177.46)"/><path d="M86.923 231.108l.743 1.059c-.845 1.459-2.71 1.784-4.259 1.676a11.558 11.558 0 01-4.104-1.06l.37-1.02c1.89.07 3.74.976 5.644.577.682-.161 1.262-.627 1.606-1.232z" fill="#6c5353" stroke="#000" stroke-width=".42" stroke-linejoin="round" transform="matrix(1.28517 0 0 1.06182 -40.084 -177.46)"/><path d="M82.496 233.007c.086.427.127.871.245 1.285 1.317 1.006 3.205.68 4.545-.117.62-.157.6-.693.488-1.188-.074-.367-.029-.78-.214-1.106-1.079-.298-2.252-.48-3.366-.249-.65.195-1.634.626-1.698 1.375z" fill="#6c5353" stroke="#000" stroke-width=".28" transform="matrix(1.28517 0 0 1.06182 -40.084 -177.46)"/><path d="M84.095 232.235c-.174.329-.561.6-.443 1.007.077.24-.091.634.166.762.292.144.554.42.903.31l1.676-.119.742-.78-.106-1.086c-.287-.146-.579-.265-.905-.196-.676.04-1.366.025-2.033.102z" fill="#ececec" stroke="#000" stroke-width=".42" transform="matrix(1.28517 0 0 1.06182 -40.084 -177.46)"/><path d="M83.526 227.59l-.325 1.656-3.019-.163c.136-.507-.17-1.41.017-1.655l3.327.161z" fill="#6c5353" stroke="#000" stroke-width=".42" stroke-linejoin="round" transform="matrix(1.28517 0 0 1.06182 -40.084 -177.46)"/><path d="M86.44 223.705c.898 1.893 1.22 4.092.795 6.147-.036.727-.709 1.117-1.362 1.2-.956.19-1.93.287-2.884.482-1.05.09-1.333-.928-1.15-1.783-.024-1.491-.141-2.991-.49-4.442.094-1.217 1.489-.557 2.23-.435.89.244 1.996.159 2.549-.682.118-.153.22-.317.311-.487z" fill="#b3b3b3" stroke="#000" stroke-width=".42" stroke-linecap="round" stroke-linejoin="round" transform="matrix(1.28517 0 0 1.06182 -40.084 -177.46)"/><path d="M70.29 61.47c.864.666 1.734 1.585 1.394 2.629-.015.492-.323.673-.308.098-.076-.744.143-1.891-.937-2.18-.817.087-.994.16-.364-.35l.215-.197z" fill="#fff"/><path d="M65.34 63.268c.012 1.538.323 3.07.271 4.607 1.99.06 3.988-.413 5.73-1.188.63-.804-.732-.738-1.244-.377-1.284.433-3.021.193-3.662-.922-.249-.488-.39-1.005-.717-1.468l-.377-.652z" fill="#666"/><path d="M68.175 69.312c-.216.303-.616.562-.49.949.008.3-.078.647.383.718.413.298.957.1 1.447.11.459-.053.976-.01 1.4-.119.15-.172.744-.64.585-.609-.91.405-2.345.79-3.107-.02-.248-.299-.285-.68-.218-1.03z" fill="gray"/><path d="M60.954 58.929c-1.132.05-3.145 1.052-2.418 2.064.978.433 2.046.721 3.02 1.18.962.443 2.424.39 3.04-.442-.12-.694-.626-1.38-.808-2.11-.56-.7-1.903-1.255-2.834-.692z" fill="#ccc"/><path d="M58.262 60.68c-.608-.051-1.225.2-.548.64.44.658 1.448.708 2.184 1.048.891.205 1.824.452 2.75.246.88-.133-.806-.48-1.08-.555-1.13-.405-2.222-.894-3.306-1.38z" fill="gray"/><path d="M75.781 224.463c.362 1.106 1.714 1.255 2.663 1.6.971.175 2.124.118 2.926-.502.55-.562.398-1.393-.105-1.922-.591-.94-1.798-1.551-2.881-1.105-.733.331-1.578.7-1.89 1.508-.035.461-.498.15-.713.421z" fill="none" stroke="#000" stroke-width=".48" transform="matrix(1.28517 0 0 1.06182 -40.084 -177.46)"/><path d="M82.503 224.191c.793.316 1.701.365 2.502.05.561-.155 1.227-.612 1.329.248.207-.942-.41.25-.52.574-.555.375-1.096.861-1.817.8-.805.063-1.654.297-2.156.978-.515.492-.919 1.08-1.328 1.657l-.217-1.47c.36-.668.158-1.38.014-2.075-.334-.593.49-1.177.85-1.325a2.09 2.09 0 001.343.563z" fill="#006680" stroke="#000" stroke-width=".34" transform="matrix(1.28517 0 0 1.06182 -40.084 -177.46)"/><path d="M61.48 59.1l-1.003.37c1.1.034 2.482.033 3.144.894.317.906.144-.813-.392-.92-.484-.33-1.149-.36-1.748-.344z" fill="#f9f9f9"/><path d="M63.052 73.733c.438.442.79.954 1.372 1.282-1.339.068-2.964-.02-3.853-.966.184-1.14.58-2.253 1.141-3.306.19-.177.222-.924.55-.602.83.5.777 1.39.424 2.092-.181.518-.028 1.074.366 1.5z" fill="#666"/><path d="M70.589 60.661c-.148-.306.078-.62.438-.705.484-.123 1.17.073 1.124.562.097.338-.445.523-.758.544-.286-.115-.623-.163-.804-.4z" fill="#b3b3b3"/><path d="M86.065 224.204c-.037.703-.03 1.415-.093 2.112-.074.257-.295.556-.277.787.238.202.495.355.817.345.283-.002.66.024.461-.363a10.24 10.24 0 01-.165-2.723c-.246-.061-.49-.131-.743-.158z" fill="#006680" stroke="#000" stroke-width=".34" transform="matrix(1.28517 0 0 1.06182 -40.084 -177.46)"/><path d="M70.667 60.17c.237.336.548.857.99.84-.62.325-1.586-.342-.99-.84z" fill="gray"/><path d="M87.337 224.114c-.009.743-1.27.775-1.333.04-.047-.738 1.19-.848 1.323-.14l.008.058z" fill="none" stroke="#1a1a1a" stroke-width=".166" stroke-linecap="round" stroke-linejoin="round" transform="matrix(1.28517 0 0 1.06182 -40.084 -177.46)"/><path d="M87.276 224.16c-.016.507-.939.442-.845-.071.108-.407.825-.367.845.07z" fill="#b3b3b3" stroke="#1a1a1a" stroke-width=".212" stroke-linecap="round" stroke-linejoin="round" transform="matrix(1.28517 0 0 1.06182 -40.084 -177.46)"/><path d="M71.351 60.374c.375.065.613.502.373.005a.595.595 0 00-.373-.005z" fill="#fff"/><path d="M87.344 224.29c.164.573.232 1.186.605 1.673.143.237.273.482.409.723-.353.266-.963 1.084-.967.178-.295-.737-.15-1.548-.402-2.295l.355-.279z" fill="#006680" stroke="#000" stroke-width=".34" transform="matrix(1.28517 0 0 1.06182 -40.084 -177.46)"/><path d="M64.248 60.857c-.868-.008-.971 1.573-.256 1.406.424-.053.237-.506.357-.758.036-.23.07-.445-.1-.648z" fill="gray"/><path d="M78.7 222.083c.474.623.963 1.234 1.3 1.945.337.57.51 1.217.767 1.824l1.175.24c.653-.214 1.106-.617.72-1.31-.21-1.108-1.02-1.942-1.573-2.888-.664-.033-1.334-.179-1.988.003-.168-.004-.275.09-.4.186z" fill="#006680" stroke="#000" stroke-width=".34" transform="matrix(1.28517 0 0 1.06182 -40.084 -177.46)"/><path d="M63.678 61.403c-.075-.309-.102-.605.254-.799.25-.256.742-.187 1.099-.14.34.133.557.38.545.698.149.4-.337.655-.737.761-.312.066-.662-.196-.947-.305l-.214-.215z" fill="#b3b3b3"/><path d="M63.773 60.745c.352.427.557 1.127 1.219 1.12-.82.45-1.935-.496-1.22-1.12z" fill="gray"/><path d="M82.226 224.763c.028.768-1.112 1.072-1.498.423-.433-.587.265-1.418.925-1.17a.79.79 0 01.573.747z" fill="none" stroke="#1a1a1a" stroke-width=".212" stroke-linecap="round" stroke-linejoin="round" transform="matrix(1.28517 0 0 1.06182 -40.084 -177.46)"/><path d="M82.152 224.824c.006.575-.94.64-1.032.081-.11-.565.8-.77.996-.253a.44.44 0 01.036.173z" fill="#b3b3b3" stroke="#1a1a1a" stroke-width=".212" stroke-linecap="round" stroke-linejoin="round" transform="matrix(1.28517 0 0 1.06182 -40.084 -177.46)"/><path d="M64.54 61.021c.654-.179.572.96.707.179-.086-.243-.469-.26-.706-.179z" fill="#fff"/></svg>