<svg xmlns="http://www.w3.org/2000/svg" width="500" height="500" viewBox="0 0 132.292 132.292"><path d="M79.337 232.739c-.114.225-.632 1.566-1.483 4.328.619 1.02 2.877 1.242 3.83.91.12-1.177 1.227-3.603.71-4.521z" fill="#2d7c8f" stroke="#000" stroke-width=".347" transform="matrix(1.28517 0 0 1.06182 -40.084 -177.46)"/><path d="M64.698 75.091c-1.432.293-3.76 0-4.474-.866 2.057-1.407 5.159-1.824 5.524-3.056.181.929-.865 2.888-1.05 3.922z" fill="#325862"/><path d="M84.521 222.254l1.048-.217c1.013.05 1.535.613 1.869 1.241.063.12.235.153.286.274-.206.661-.946.662-1.574.573l-.88-.467-.636-.368-.3-.451z" fill="#ccc" stroke="#000" stroke-width=".28" transform="matrix(1.28517 0 0 1.06182 -40.084 -177.46)"/><path d="M83.791 223.323c-.027-.82-.125-1.192.324-1.878.11-.254.472-.217.472-.217.119.154.25.812.379.955l.753.372c.718.417.581.897.43 1.57l-.336.217-.861-.467z" fill="gray" stroke="#000" stroke-width=".281" stroke-linejoin="round" transform="matrix(1.28517 0 0 1.06182 -40.084 -177.46)"/><path d="M71.07 72.048l-1.879 1.345.08 1.268-.586.858c.648.375 1.612.028 2.468-.07 1.273-.359 2.255-.937 3.137-1.592l-1.253-1.098-.567-.645-1.204-2.895-.747.492z" fill="#325862"/><path d="M71.243 68.967c-1.128.774-3.465 1.958-4.904 1.547l.268 1.155.266 1.254 1.23 2.468.582.128c4.51-3.134 2.094-3.298 2.558-6.552z" fill="#2d7c8f"/><path d="M88.995 236.686c-1.053 1.148-3.199 2.122-4.754 1.517-.96-1.408-1.312-3.001-1.433-4.665.98.427 2.299-.203 3.816-1.457.474 1.7.91 3.421 2.371 4.605z" fill="none" stroke="#000" stroke-width=".358" transform="matrix(1.28517 0 0 1.06182 -40.084 -177.46)"/><path d="M64.628 57.916L64 59.268l-1.38.192.17.966 3.061.978 2.194-.025.953-.59.068-.74-1.157-.551-.952-1.342-1.174-.39-1.02-.112z" fill="#fca"/><path d="M63.046 59.523l2.86-.334c.994-.376 4.463 1.171 4.607 1.947.397.897.306 1.866.532 2.79.337 1.284-.31 2.589.163 3.86.41.82-.248 1.566-1.39 1.678-1.24.552-2.705.354-4.076.443-1.222.07-2.414-.415-3.478-.83-.42-.835.457-1.895.357-2.833-.052-1.964-.55-3.9-.7-5.857-.054-.497.472-.854 1.125-.864z" fill="#2d7c8f"/><path d="M62.04 62.077l.42 2.118.13 2.639-.629 1.97 2.819.442 2.093.284 4.37-.563.032-3.109L70.2 60.75c-2.806.119-5.333 2.933-6.442.763l.06-.355z" fill="#2c6271"/><path d="M83.867 222.761c.703 1.173.466.8 1.728 1.21.455.122.476 1.115.535 1.532l.523 5.77-.029.808c-.543 2.227-3.065 1.062-5.605 1.054l-1.328-.356-.289-.85.51-2.68-.648-4.939c-.147-.48-.004-.667.337-.971.383-.301.738-.366 1.389-.393l.487-1.273c.075-.352.384-.243.644-.224l.502.027c.64.024.929.843 1.244 1.285z" fill="none" stroke="#000" stroke-width=".42" transform="matrix(1.28517 0 0 1.06182 -40.084 -177.46)"/><path d="M86.653 231.273l.743 1.06c-1.46 2.514-5.9 1.791-8.363.616l.369-1.02c2.553.11 5.775 1.838 7.25-.656zM86.376 227.755l.126 1.496c-1.423 1.514-4.215.501-6.587.266.001-.55.086-1.092-.121-1.663 2.376.169 5.24.876 6.582-.1z" fill="#6c5353" stroke="#000" stroke-width=".42" stroke-linejoin="round" transform="matrix(1.28517 0 0 1.06182 -40.084 -177.46)"/><path d="M78.65 224.469c-.913 1.914-.28 3.483-.066 5.398.171.54-.705 1.434-.1 1.717.813.381.158.143 1.154.403.614.124 1.16-.199 1.383-.533-.042-1.364-.805-3.61-.356-5.165.084-.672-.555-1.036-.848-.84-1.7.263-.097 1.007-1.167-.98z" fill="#b3b3b3" stroke="#000" stroke-width=".42" stroke-linecap="round" stroke-linejoin="round" transform="matrix(1.28517 0 0 1.06182 -40.084 -177.46)"/><path d="M60.836 63.968c1.326 1.457.669 3.797.554 4.217 2.101.137 1.189.155 1.998-.279-.364-.686-.137-1.222-.333-2.435.193-.81-1.676-1.333-2.219-1.503z" fill="#666"/><path d="M60.914 58.821l1.137.206c.332.203.785.36.828.721.262.596.505 1.203.879 1.765.081-.296.163-.617.192-.928-.039-.366-.098-.733-.141-1.1-.38-.438-.65-.934-1.155-1.305a2.946 2.946 0 00-.957-.602c-.608-.072-.46.51-.48.786.007.19-.178.308-.303.457z" fill="gray"/><path d="M60.421 59.01c-.974.056-2.15.69-2.358 1.534.305.6 1.326.53 1.951.94.791.296 1.701.792 2.613.557.688-.19 1.384-.575.799-1.12-.35-.487-.251-1.015-.651-1.481-.497-.374-1.16-.728-1.86-.619l-.37.124z" fill="#ccc"/><path d="M58.063 60.544c-.24.058-.998-.01-.725.294.239.222.39.508.686.687.587.143 1.104.412 1.688.558.599.088 1.192.306 1.815.202.19-.06 1.014-.036.512-.208-.436-.22-.982-.248-1.432-.448a63.38 63.38 0 01-1.978-.83c-.19-.083-.379-.168-.566-.255z" fill="gray"/><path d="M75.718 224.312c.183.78 1.17 1.019 1.894 1.27.766.29 1.62.272 2.392.013.704-.129.954-.739.93-1.313.066-.882-.445-1.68-1.047-2.344-.082-.513-1.265-.856-1.028-.068-.022.86-1.126.78-1.69 1.19-.524.217-.766.715-.927 1.118-.175.037-.408-.029-.524.134z" fill="none" stroke="#000" stroke-width=".42" transform="matrix(1.28517 0 0 1.06182 -40.084 -177.46)"/><path d="M60.882 59.16l-.879.325c1.143.012 2.691.12 2.887 1.117.056-1.309-1.028-1.474-2.008-1.441z" fill="#f9f9f9"/></svg>