<svg xmlns="http://www.w3.org/2000/svg" width="60.064" height="74.305" viewBox="0 0 15.892 19.66"><g transform="matrix(1.28517 0 0 1.06182 -97.388 -234.577)"><path d="M84.791 222.089l1.048-.217c1.013.05 1.536.612 1.869 1.24.063.12.235.153.287.274-.207.662-.947.662-1.575.574l-.88-.468-.636-.368-.3-.45z" fill="#ccc" stroke="#000" stroke-width=".28"/><path d="M84.061 223.158c-.026-.82-.125-1.193.324-1.879.11-.254.472-.217.472-.217.119.155.25.813.38.955l.752.372c.718.417.582.898.43 1.57l-.336.218-.861-.468z" fill="gray" stroke="#000" stroke-width=".281" stroke-linejoin="round"/><path d="M84.382 236.175l1.776.34.387 1.1.707.476c-.32.589-1.112.704-1.741.982-1.01.236-1.896.163-2.737-.016l.488-1.453.17-.783-.173-2.945.692.1z" fill="#325862"/><path d="M83.188 233.654c1.054.175 3.092.186 3.95-.767l.217 1.086.252 1.168.004 2.596-.36.354c-4.23-.735-2.606-1.893-4.063-4.437z" fill="#2d7c8f"/><path d="M82.774 239.057c1.365.455 3.645.161 4.81-1.223.338-1.78.063-3.394-.445-4.947-.719.913-2.13 1.065-3.951.767.206 1.778.453 3.552-.414 5.403z" fill="none" stroke="#000" stroke-width=".358"/><path d="M81.747 221.508l-.487 1.273-1.075.18.132.91 2.383.922 1.707-.024.741-.555.053-.697-.9-.52-.741-1.264-.913-.366-.794-.106z" fill="#fca"/><path d="M80.516 223.02c1.145.673 2.66 1.296 3.993.662.663-.232 1.705.127 1.818.858.309.845.237 1.757.414 2.628.262 1.209-.242 2.438.126 3.635.32.772-.193 1.475-1.081 1.58-.965.52-2.105.334-3.172.418-.951.065-1.878-.391-2.706-.782-.326-.786.355-1.785.277-2.668-.04-1.85-.427-3.673-.543-5.516-.043-.468.367-.804.874-.814z" fill="#2d7c8f"/><path d="M79.733 225.426l.327 1.995.102 2.485-.49 1.857 2.193.415 1.629.267 3.4-.53.025-2.927-1.036-3.968-3.183-.227-1.583-.232z" fill="#2c6271"/><path d="M84.137 222.596c.703 1.172.466.8 1.728 1.209.455.122.476 1.115.536 1.533l.522 5.77-.029.808c-.543 2.227-3.065 1.061-5.605 1.053l-1.328-.355-.289-.851.51-2.68-.648-4.938c-.147-.48-.004-.667.337-.972.384-.3.738-.366 1.389-.392l.487-1.273c.075-.353.384-.243.644-.224l.502.026c.64.024.929.843 1.244 1.286z" fill="none" stroke="#000" stroke-width=".42"/><path d="M79.607 232.573c-.18.276-1.087 1.914-1.483 4.328.62 1.021 2.877 1.243 3.83.91.12-1.176 1.227-3.602.71-4.521z" fill="#2d7c8f" stroke="#000" stroke-width=".347"/><path d="M86.923 231.108l.743 1.059c-1.46 2.515-5.9 1.791-8.363.617l.37-1.021c2.552.11 5.774 1.838 7.25-.655z" fill="#6c5353" stroke="#000" stroke-width=".42" stroke-linejoin="round"/><path d="M82.496 233.007l.188 1.078c-.002.188.081.25.222.344 1.479.91 3.438.441 4.77-.508.2-.118.192-.175.166-.384l-.171-1.377c-.02-.294-.135-.323-.422-.38-1.777-.343-3.36-.532-4.543.722-.187.186-.253.265-.21.505z" fill="#6c5353" stroke="#000" stroke-width=".28"/><path d="M84.095 232.235l-.464.685.066 1.015.702.402 1.998-.142.742-.78-.106-1.086-.49-.213-2.396.095z" fill="#ececec" stroke="#000" stroke-width=".42"/><path d="M83.526 227.59l-.325 1.656-3.019-.163c0-.55.086-1.091-.122-1.662z" fill="#6c5353" stroke="#000" stroke-width=".42" stroke-linejoin="round"/><path d="M86.44 223.705c.912 1.915 1.11 3.83.896 5.745-.17.54-.126 1.087-.73 1.37-.814.382-2.394.427-3.39.687-.615.124-1.16-.2-1.383-.533.041-1.364-.027-3.989-.476-5.543-.085-.671.554-1.036.847-.84 1.7.263 3.165 1.102 4.235-.886z" fill="#b3b3b3" stroke="#000" stroke-width=".42" stroke-linecap="round" stroke-linejoin="round"/><path d="M85.883 225.02c1.223 1.208 1.302 1.797.956 3l-.104-.219c-.045-1.103.081-2.743-1.422-2.149z" fill="#fff"/><path d="M82.032 226.714c-.007.983.3 3.943.21 4.339 1.635.129 3.83-.711 4.46-1.12 0 0 .454-.55-.256-.661-2.284 1.178-3.576.062-3.802-1.278z" fill="#666"/><path d="M84.237 232.406l-.39.57.024.843.58.32 1.889-.137.568-.654c-1.802.994-2.866.3-2.67-.942zM78.858 222.36l.884.194c.259.192.611.338.644.68.204.56.393 1.132.684 1.662.063-.28.127-.582.15-.874-.03-.346-.076-.691-.11-1.037-.295-.412-.506-.879-.899-1.229a2.285 2.285 0 00-.744-.566c-.473-.068-.358.48-.374.74.006.179-.139.29-.235.43z" fill="gray"/><path d="M78.474 222.539c-.758.052-1.674.648-1.835 1.444.238.565 1.031.499 1.518.885.616.278 1.324.746 2.033.525.535-.179 1.077-.542.622-1.055-.273-.459-.196-.956-.507-1.395-.386-.352-.902-.686-1.447-.583l-.287.117z" fill="#ccc"/><path d="M80.719 224.129c-.638.226-.53.684-.363 1.235l.35-.14.087-.594.019-.292zM76.639 223.983c-.187.055-.776-.01-.564.277.186.208.304.478.534.646.456.136.858.389 1.313.526.466.083.928.288 1.412.19.149-.056.79-.033.399-.196-.34-.206-.765-.233-1.114-.422a44.995 44.995 0 01-1.54-.78 31.31 31.31 0 01-.44-.241z" fill="gray"/><path d="M75.988 224.147c.183.779 1.17 1.018 1.894 1.27.766.289 1.62.271 2.392.012.704-.129.955-.738.93-1.313.066-.881-.445-1.68-1.047-2.343-.082-.513-1.265-.857-1.028-.068-.022.86-1.126.78-1.69 1.189-.524.217-.766.716-.927 1.118-.175.038-.408-.028-.524.135z" fill="none" stroke="#000" stroke-width=".42"/><path d="M80.738 224.958l-.047-.476.35-.397.417-.063.333.05.318.226.095.294.031.407-.215.276-.468.213-.618-.292z" fill="#b3b3b3"/><path d="M80.812 224.338a.84.84 0 00.27.325c-.041.46.243.62.72.71l-.25.115c-.624.085-.901-.408-.908-.656-.003-.194.038-.447.168-.494z" fill="gray"/><path d="M78.833 222.68l-.684.305c.889.011 2.094.113 2.246 1.052.044-1.232-.8-1.388-1.562-1.357z" fill="#f9f9f9"/><path d="M80.25 236.57l.685.888.383.319c-1.034.092-2.442-.094-2.997-.91l.172-1.02.38-1.282.621-1.505c1.617 1.373-.315 1.997.757 3.51z" fill="#325862"/><ellipse cx="81.413" cy="224.763" rx=".813" ry=".782" fill="none" stroke="#1a1a1a" stroke-width=".212" stroke-linecap="round" stroke-linejoin="round"/><ellipse ry=".475" rx=".52" cy="224.824" cx="81.632" fill="#b3b3b3" stroke="#1a1a1a" stroke-width=".212" stroke-linecap="round" stroke-linejoin="round"/><path d="M81.41 224.598c.17.004.514.035.428.495.305-.286.038-.664-.429-.495z" fill="#fff"/><path d="M86.116 224.259l-.039-.355.288-.296.342-.047.273.037.26.168.08.22.024.304-.176.206-.384.159-.507-.219z" fill="#b3b3b3"/><path d="M86.784 224.655c-.373.54-.557.386-1.084.225l.34-.384.501.217z" fill="#666"/><path d="M86.176 223.796c.045.081.102.162.222.243-.034.343.2.463.591.53l-.205.086c-.512.063-.74-.305-.745-.49-.003-.145.03-.333.137-.369z" fill="gray"/><ellipse ry=".583" rx=".667" cy="224.114" cx="86.669" fill="none" stroke="#1a1a1a" stroke-width=".166" stroke-linecap="round" stroke-linejoin="round"/><ellipse cx="86.849" cy="224.159" rx=".427" ry=".355" fill="#b3b3b3" stroke="#1a1a1a" stroke-width=".212" stroke-linecap="round" stroke-linejoin="round"/><path d="M86.709 223.988c.117.003.355.023.295.311.21-.18.026-.416-.295-.31z" fill="#fff"/></g></svg>