<svg xmlns="http://www.w3.org/2000/svg" width="500" height="500" viewBox="0 0 132.292 132.292"><defs><linearGradient id="a"><stop offset="0" stop-color="#e6e6e6"/><stop offset="1" stop-color="gray"/></linearGradient></defs><g transform="matrix(1.28517 0 0 1.06182 -40.084 -177.46)"><path d="M90.116 235.957l-4.631-9.326 2.714 11.259 1.398-.58z" fill="#1a1a1a" opacity=".3"/><path d="M79.621 231.882c.1.643-.088 1.16.363 1.553 2.466-.023 4.167.542 6.552-.277.04-.586.054-1.022.151-1.785-1.073.414-1.668.386-2.901.413-1.814.177-2.346.076-4.165.096z" fill="#9c816f" stroke="#000" stroke-width=".226"/><path d="M79.712 232.343l.298.69 3.613.23-.59-1.073z" opacity=".2" stroke="#000" stroke-width=".226"/><path d="M79.097 225.182l.559 6.765 6.946-.387.36-7.151-1.358-2.368-2.315-.966-2.076.241-2.475 2.126z" fill="#99796c" stroke="#000" stroke-width=".226"/><path d="M79.736 231.898l-1.318 5.654 4.232.338-.04-6.185z" fill="#9c816f" stroke="#000" stroke-width=".226"/><path d="M79.336 228.274l7.426-1.256v1.74l-7.31 1.184zM79.536 231.125l7.066-1.015M80.175 224.409l6.587 1.45v1.11l-7.346 1.209-.439-4.011.839-.242z" fill="none" stroke="#000" stroke-width=".226"/><path d="M82.93 224.94l2.954-2.32 1.078 1.595-.2 1.595z" fill="none" stroke="#000" stroke-width=".226"/><ellipse cx="80.341" cy="225.833" rx=".297" ry=".372" fill="#e6e6e6" stroke="#1a1a1a" stroke-width=".129" stroke-linecap="square" stroke-linejoin="round" paint-order="fill markers stroke"/><ellipse ry=".372" rx=".297" cy="226.05" cx="81.978" fill="#e6e6e6" stroke="#1a1a1a" stroke-width=".129" stroke-linecap="square" stroke-linejoin="round" paint-order="fill markers stroke"/><ellipse cx="84.014" cy="226.243" rx=".297" ry=".372" fill="#e6e6e6" stroke="#1a1a1a" stroke-width=".129" stroke-linecap="square" stroke-linejoin="round" paint-order="fill markers stroke"/><ellipse ry=".372" rx=".297" cy="226.413" cx="85.631" fill="#e6e6e6" stroke="#1a1a1a" stroke-width=".129" stroke-linecap="square" stroke-linejoin="round" paint-order="fill markers stroke"/><path d="M79.696 232.285l-1.258 5.098 4.192.459z" stroke="#000" stroke-width=".226" opacity=".2"/><ellipse ry=".372" rx=".297" cy="230.351" cx="80.641" fill="#e6e6e6" stroke="#1a1a1a" stroke-width=".129" stroke-linecap="square" stroke-linejoin="round" paint-order="fill markers stroke"/><ellipse cx="82.557" cy="230.109" rx=".297" ry=".372" fill="#e6e6e6" stroke="#1a1a1a" stroke-width=".129" stroke-linecap="square" stroke-linejoin="round" paint-order="fill markers stroke"/><ellipse ry=".372" rx=".297" cy="229.892" cx="84.513" fill="#e6e6e6" stroke="#1a1a1a" stroke-width=".129" stroke-linecap="square" stroke-linejoin="round" paint-order="fill markers stroke"/><ellipse cx="86.169" cy="229.569" rx=".297" ry=".372" fill="#e6e6e6" stroke="#1a1a1a" stroke-width=".129" stroke-linecap="square" stroke-linejoin="round" paint-order="fill markers stroke"/><path d="M79.356 225.8l3.753-4.445c1.247-.715 1.755-.152 2.276.387l-1.916 2.61 1.836-2.61c1.158.06 1.468.762 1.796 1.45l-2.155 1.787 2.036-1.74c.962-.106 1.066.676 1.317 1.306l-2.435 2.222-.918-1.788-1.358-.773c-1.57-1.338-2.6.449-4.232 1.595z" fill="#006680" stroke="#000" stroke-width=".226"/><path d="M82.79 221.805c1.477 4.575 5.559 10.087 8.962 14.539l-1.615-.337-.508 1.267-1.271.615-4.071-.337-1.717 1.304-5.29-15.36c1.447-1.192 2.926-1.874 4.592-2.367z" fill="#006680" stroke="#000" stroke-width=".226"/><path d="M77.902 231.173l1.294 1.612 9.19-8.751-2.587-3.086-8.182 9.787z" fill="#6c5353" stroke="#000" stroke-width=".226"/><path d="M86.065 221.201l.457-.484.19.369-.418.322z" fill="#c8b7b7" stroke="#000" stroke-width=".226"/><path d="M86.58 220.625l.513-1.658 1.046 1.566-1.389.484z" fill="#ccc" stroke="#000" stroke-width=".226"/><path d="M86.75 221.846l.457-.484.19.369-.418.322z" fill="#c8b7b7" stroke="#000" stroke-width=".226"/><path d="M87.264 221.27l.514-1.658 1.046 1.566-1.389.484z" fill="#f2f2f2" stroke="#000" stroke-width=".226"/><path d="M87.34 222.744l.457-.484.19.369-.419.322z" fill="#c8b7b7" stroke="#000" stroke-width=".226"/><path d="M87.854 222.168l.514-1.658 1.046 1.566-1.389.484z" fill="#b3b3b3" stroke="#000" stroke-width=".226"/><path d="M88.063 223.688l.457-.483.19.368-.418.322z" fill="#c8b7b7" stroke="#000" stroke-width=".226"/><path d="M88.577 223.112l.514-1.658 1.046 1.566-1.389.484z" fill="#f2f2f2" stroke="#000" stroke-width=".226"/></g></svg>