<svg xmlns="http://www.w3.org/2000/svg" width="500" height="500" viewBox="0 0 132.292 132.292"><defs><linearGradient id="a"><stop offset="0" stop-color="#e6e6e6"/><stop offset="1" stop-color="gray"/></linearGradient></defs><g stroke="#000" stroke-width=".226"><path d="M78.01 236.175l-1.451 6.347c-.048.932 1.162.174 1.003 1.119.296.942 1.82.837 2.612.877.618.252 1.405.487 1.799-.183.458.632 5.11-.05 5.715-.527.136-3.822-1.186-7.524-1.027-11.352-1.649-.207-5.487.372-7.122.098-.412-.222-.187.075-.598-.147zM78.39 229.533c.063.44-.374 1.478-.394 1.995-.016.424.362.348.562.573 2.273.152 4.572.027 6.813-.38.614-.265 1.478-.075 1.41-.923l.822-.315-.786-3.947c-.948-.108-1.969.429-2.125 1.426-.054.791-.414-.072-.586-.332-.3-.754-1.344-.16-1.971-.32l-3.351.078c-.646.435-1.229.878-.62 1.642.068.171.141.34.226.503z" fill="#4a8b2b" transform="matrix(1.28517 0 0 1.06182 -40.084 -177.46)"/><path d="M107.091 228.541l6.315.668 5.656-1.083-2.682-5.039c-2.236-.688-4.447-.89-6.608-.219z" fill="#4a8b2b" transform="matrix(1.28517 0 0 1.06182 -79.72 -177.518)"/><path d="M119.023 227.453c-4.47 1.962-8.262 1.692-11.684.21l-.395.965c3.24.675 5.474 2.32 12.179-.343z" fill="#d4aa00" transform="matrix(1.28517 0 0 1.06182 -79.72 -177.518)"/><path d="M77.446 238.262h1.006c-.106.948 1.333 1.102 2.003 1.306.676-.286.695.602 1.425.29.515.143 1.485-.403 1.272.307.132.003.282-.004.428-.003.104 0 .492-.24.848-.287.225-.03.617.32.876.3.236-.016.385-.251.605-.283.76-.112 1.738-.146 1.613.148-.084 1.307.508 2.648.424 3.955-.064.01-.6.397-1.17.504-.23.044-.621-.326-.879-.291-.229.03-.374.48-.597.527-.435.092-.833-.283-1.183-.273-.445.013-.793.395-.845.399-.55.042-1.03-.05-1.42-.575-.465 1.059-1.495-.083-2.257.204-.755-.373-2.265-.008-2.115-1.207-.228-.414-1.2.158-.984-.77.28-1.42.635-2.834.95-4.251z" fill="#d4aa00" transform="matrix(1.28517 0 0 1.06182 -40.084 -177.46)"/><path d="M78.324 231.882c-.859.667-.348 2.224.802 1.673 2.466-.022 5.025.422 7.41-.397.958-.296 1.451-1.747.67-2.414-1.073.415-2.187 1.015-3.42 1.042-1.814.177-3.643.076-5.462.096z" fill="#9c816f" transform="matrix(1.28517 0 0 1.06182 -40.084 -177.46)"/><path d="M77.363 242.951l1.491-6.436M79.98 244.381l.28-6.64M82.54 244.858l.506-4.563M81.837 244.109l.112-5.687" fill="none" transform="matrix(1.28517 0 0 1.06182 -40.084 -177.46)"/><path d="M79.459 222.841l-.858 1.55-.408 1.038.014 1.226-.872 1.703.689.239 2.392.579 1.786-.613-1.87-1.141-.789-1.328-.422-.988zM78.424 230.224l-.35 1.303.316.254 2.982.12 2.153-.12-.352-1.652-.52-.153-2.181.306-.422-.391zM78.647 233.906l-.68 3.75.282.306 1.223-4.047zM79.67 238.881l-.028-1.856.197-2.18.366 1.533 1.449 1.04.998 1.43.859.715-1.379-.137-1.984-.391zM78.235 232.343l.098.834c2.855-.127 4.69 1.262 8.076-.153.001-.505.64-1.48-.591-1.073z" opacity=".2" transform="matrix(1.28517 0 0 1.06182 -40.084 -177.46)"/><path d="M84.34 244.381l.113-5.687M85.776 243.121l.112-5.687" fill="none" transform="matrix(1.28517 0 0 1.06182 -40.084 -177.46)"/></g></svg>