<svg xmlns="http://www.w3.org/2000/svg" width="500" height="500" viewBox="0 0 132.292 132.292"><path d="M80.366 240.228l1.428-1.727 1.126-.925.945-.56 1.708-.073 1.452.277c.032.305 2.012-.239.016 2.522l-.462 1.046 2.714-1.703-.543-4.478-2.088-2.492-6.497-.379-.703 2.604-.925 3.6s.382 1.753.462 1.777c.08.025 1.367.511 1.367.511z" fill="#333" stroke="#000" stroke-width=".226" transform="matrix(1.28517 0 0 1.06182 -40.084 -177.46)"/><path d="M81.786 232.786l1.037 3.166.285 2.598.07 1.256.285.826 1.62.62.925-1.274.554-1.152s-.241-1.652-.241-1.773v-2.271l.113-1.979.228-.688s-2.46.74-2.502.757c-.043.017-1.593-.12-1.593-.12l-.568-.12z" fill="#1a1a1a" stroke="#000" stroke-width=".226" transform="matrix(1.28517 0 0 1.06182 -40.084 -177.46)"/><path d="M64.975 57.74l-.627 1.352-1.38.192c.09.318.056.717.225.984 1.023.313 1.36 5.61 2.39 5.892.723-.027 3.945-.59 4.648-.665.286-.21-1.094-4.686-.88-4.93-.059-.259.261-.682-.143-.79-.426-.24-1.008-.35-1.191-.792-.264-.332-.461-.73-.767-1.021-.61-.207-1.212-.443-1.884-.456-.295-.092-.292.042-.391.234z" fill="#fca"/><path d="M63.393 59.347c.496.248 4.217 4.57 4.781 4.743.602.186 1.235-1.634 1.064-2.644-.17-1.004-.21-1.234.383-1.472 1.26-.264 1.457.637 1.458 1.67.119.986.326 1.965.415 2.951-.016 1.106-.333 2.25.166 3.318.218 1.049-1.176 1.337-2.091 1.583-1.277.308-2.627.165-3.937.237-1.126-.233-3.423-.34-3.104-1.67.423-1.126.552-2.294.33-3.463-.164-1.525-.527-3.037-.583-4.568.074-.436.624-.685 1.118-.685z" fill="#782121"/><path d="M80.52 226.712s-.142 1.101-.113 1.17c.028.069.781.792.781.792l.981.36c0 .001 1.01-.033 1.067-.033.057 0 .625-.276.625-.276l.327-.602.185-.705-.014-.603-.498-.929" fill="none" stroke="#000" stroke-width=".42" transform="matrix(1.28517 0 0 1.06182 -40.084 -177.46)"/><path d="M84.003 227.331l-1.18-1.91-1.563-1.755-1.052-1.221-2.303-1.342-.384 1.497.312 1.548 1.308.241 1.678.654.512.447.895.981s.569.774.583.86c.014.086.2.86.2.86l.113 1.412-.17.877.739.276.312-.327-.142-1.704.242-1.153z" fill="#333" stroke="#000" stroke-width=".226" transform="matrix(1.28517 0 0 1.06182 -40.084 -177.46)"/><path d="M84.137 222.596c.27.884 1.124 1.04 1.88 1.293.432.595.378.594.48 1.296-.08.545.266 1.402.235 1.898-.098 1.575-.373 3.338.186 4.163.034.67-.132 1.424-.771 1.775-1.125.525-2.385.116-3.56.032-.66-.086-1.334-.027-1.967-.263-.235-.122-.667-.033-.718-.351-.102-.343-.314-.679-.16-1.04.139-.787.319-1.573.434-2.361-.227-1.777-.479-3.56-.69-5.331.2-.865 1.316-.767 1.823-1.056.183-.44.32-.908.534-1.33.396-.125.86-.008 1.274.033.524.218.713.814 1.02 1.242z" fill="none" stroke="#000" stroke-width=".42" transform="matrix(1.28517 0 0 1.06182 -40.084 -177.46)"/><path d="M77.307 223.064l.214 1.859 1.009.24 1.436.482 1.194.602.81.826.583.878.398 1.222-.057 1.686.299-.035.227-1.961s-.17-1.308-.184-1.377c-.015-.068-.868-1.755-.868-1.755l-1.848-1.393-1.034-.631-1.098-.574-.597-.155z" fill="gray" stroke="#000" stroke-width=".226" transform="matrix(1.28517 0 0 1.06182 -40.084 -177.46)"/><path d="M86.923 231.108l.743 1.059c-.845 1.459-2.71 1.784-4.259 1.676a11.558 11.558 0 01-4.104-1.06l.37-1.02c1.89.07 3.74.976 5.644.577.682-.161 1.262-.627 1.606-1.232z" fill="#1a1a1a" stroke="#000" stroke-width=".42" stroke-linejoin="round" transform="matrix(1.28517 0 0 1.06182 -40.084 -177.46)"/><path d="M63.052 73.733c.438.442.79.954 1.372 1.282-1.339.068-2.964-.02-3.853-.966.184-1.14.58-2.253 1.141-3.306.19-.177.222-.924.55-.602.83.5.777 1.39.424 2.092-.181.518-.028 1.074.366 1.5z" fill="#666"/><path d="M79.303 232.784l-.806 1.848-.543 1.533-.744 2.774-.704.803.483.851s1.045.341 1.246.414c.201.073 1.568.462 1.568.462s1.106.098 1.207.098c.1 0 .844.024.924-.025.08-.048.764-.194.764-.194s-1.328-2.148-1.427-2.774c-.099-.627-.342-1.51-.342-1.63v-1.972l.362-1.679-1.39-.854zM87.666 232.167l.984 1.029.502 1.728.221 1.581.262 1.339.261.73.12.584-1.708 1.484-1.166.195-.563-.049 1.266-1.533s.443-1.241.483-1.46c.04-.22-.04-2.58-.04-2.58s-.181-1.143-.242-1.265c-.06-.122-.907-1.063-.907-1.063z" fill="#782121" stroke="#000" stroke-width=".226" transform="matrix(1.28517 0 0 1.06182 -40.084 -177.46)"/><path d="M79.672 231.763l-.062-3.09s1.038 1.085 1.124 1.136c.085.052 1.52.379 1.52.379l1.75.24 2.203-.774 1.18-.86.313-.327s-.441 1.772-.441 1.876c0 .103-.336.765-.336.765l-.716.92-1.223.328-1.123.069s-1.308-.19-1.393-.19c-.085 0-2.303-.499-2.303-.499z" fill="#333" stroke="#000" stroke-width=".226" transform="matrix(1.28517 0 0 1.06182 -40.084 -177.46)"/><path d="M84.003 230.429l-.895 1.669.227 1.6.938 1.204.143 1.29.17 1.687.37 2.048.042-1.377-.184-1.634.057-1.411.127-.981.64-1.256-.114-1.859-1.037-1.066z" fill="#999" stroke="#000" stroke-width=".226" transform="matrix(1.28517 0 0 1.06182 -40.084 -177.46)"/><path d="M84.188 228.123l.825.705.824-.017.683-.378.3-.47.169-1.113-.185-.706-.384-.447-1.194-.19" fill="none" stroke="#000" stroke-width=".42" transform="matrix(1.28517 0 0 1.06182 -40.084 -177.46)"/><path d="M84.056 232.016l.04 1.216.442.633.462-.56-.02-1.277-.643-.95z" fill="#ccc" stroke="#000" stroke-width=".226" transform="matrix(1.28517 0 0 1.06182 -40.084 -177.46)"/></svg>