<svg xmlns="http://www.w3.org/2000/svg" width="150" height="200" viewBox="0 0 39.687 52.917"><g fill="#fff" stroke="#000"><path d="M17.085 29.104c3.522 3.934 7.894 1.493 11.853-1.762l-2.67-9.237-11.532 2.403 1.173 6.071z" fill="#f9f9f9" stroke-width=".26447792000000003"/><path d="M7.862 28.605c1.932-5.675 5.212-9.71 8.57-11.85.987-.63-3.605-2.272-4.75-1.438-5.484 5.015-4.827 10.126-3.82 13.288z" stroke-width=".24866674"/><path d="M7.862 28.605c-.603-2.403-.965-4.991-.201-7.402.588-1.734 1.66-3.266 2.856-4.634.409-.425.781-.906 1.263-1.247.51-.19 1.373-.444 1.742.046-.24.4-.757.546-1.06.91-.965.87-1.839 1.85-2.583 2.914-.622 1.308-1.042 2.7-1.466 4.08-.337 1.76-.337 3.559-.55 5.333z" opacity=".2" fill="#1a1a1a" stroke-width=".20554534"/><path d="M16.828 21.484c-1.089-1.185-1.31-2.836-2.796-2.435l-1.57-2.242 2.822-1.986 4.981.46c3.815 7.542-.09 2.805-3.437 6.203z" stroke-width=".31981705000000005"/><path d="M26.902 30.485c2.76-9.227-1.386-14.738-7.17-16.954-1.409-.54 5.13-.1 6.605.975 7.057 6.453 4.956 12.09.565 15.98z" stroke-width=".31981705000000005"/><path d="M23.537 17.123h0l2.242 2.87c11.646 7.118 12.696 18.311 4.664 25.203 5.155-8.505 2.036-16.69-3.677-21.705l-5.56-2.601-4.754-5.292 3.318-.18.495-.136z" stroke-width=".31981705000000005"/><path d="M24.55 30.95c2.76-9.227-1.386-14.738-7.17-16.955-1.408-.54 5.131-.1 6.606.975 7.056 6.453 4.956 12.09.565 15.98z" stroke-width=".31981705000000005"/><path d="M25.78 19.993l-6.01-4.574-3.318.18 4.753 5.29c4.92 7.483 6.586 20.776-2.063 26.011 16.43-4.247 11.845-17.794 6.637-26.907z" stroke-width=".31981705000000005"/><path d="M13.575 30.01c.238-6.334 2.339-11.415 5.092-14.599.81-.937-4.339-1.21-5.247-.018-4.036 6.74-1.823 11.719.155 14.617z" stroke-width=".26232185"/><path d="M17.837 31.91c-.77-6.291.498-11.641 2.71-15.221.652-1.054-4.475-.507-5.183.814-2.915 7.295.06 11.86 2.473 14.407z" stroke-width=".26232185"/><path d="M25.717 30.815c-2.486-7.304-6.707-12.497-11.028-15.25-1.272-.81 4.638-2.925 6.113-1.85 7.056 6.452 6.211 13.03 4.915 17.1z" stroke-width=".31981705000000005"/><path d="M17.837 31.91c-1.68-2.01-3.214-4.308-3.595-6.955-.237-1.92.079-3.872.589-5.725.194-.592.327-1.222.63-1.767.398-.417 1.103-1.054 1.679-.758-.044.492-.47.868-.591 1.353a18.277 18.277 0 00-1.12 3.963c.01 1.53.25 3.05.48 4.558.488 1.83 1.315 3.544 1.928 5.331z" opacity=".2" fill="#1a1a1a" stroke-width=".21704438"/><path d="M13.575 30.01c-1.34-2.252-2.49-4.764-2.446-7.438.071-1.934.693-3.81 1.49-5.559.286-.554.518-1.154.903-1.645.46-.348 1.256-.865 1.778-.481-.122.479-.601.782-.798 1.242a18.277 18.277 0 00-1.735 3.735c-.234 1.513-.237 3.05-.25 4.576.192 1.885.737 3.708 1.058 5.57z" opacity=".2" fill="#1a1a1a" stroke-width=".21704438"/><path d="M25.717 30.815c.776-3.092 1.242-6.423.26-9.526-.757-2.231-2.137-4.203-3.676-5.964-.527-.546-1.006-1.166-1.626-1.604-.658-.245-1.767-.572-2.242.059.31.515.974.702 1.364 1.17a22.247 22.247 0 013.325 3.75c.8 1.684 1.34 3.475 1.886 5.251.434 2.265.434 4.58.709 6.864z" opacity=".2" fill="#1a1a1a" stroke-width=".26447792000000003"/><path d="M22.371 31.463c-2.486-7.304-6.707-12.497-11.028-15.25-1.271-.81 4.639-2.925 6.113-1.85 7.057 6.453 6.212 13.03 4.915 17.1z" stroke-width=".31981705000000005"/><path d="M22.371 31.463c.777-3.092 1.243-6.423.26-9.526-.757-2.231-2.136-4.203-3.676-5.964-.526-.546-1.005-1.166-1.626-1.604-.657-.245-1.767-.571-2.241.059.309.515.973.702 1.364 1.17a22.247 22.247 0 013.324 3.75c.8 1.684 1.34 3.476 1.887 5.251.434 2.265.434 4.58.708 6.864z" opacity=".2" fill="#1a1a1a" stroke-width=".26447792000000003"/></g></svg>