<svg xmlns="http://www.w3.org/2000/svg" width="500" height="500" viewBox="0 0 132.292 132.292"><path d="M55.795 59.169c.24-.423 1.434-.77 1.493-.63-1.843.685-3.538 3.342-3.353 5.474.03.627.32-.974.521-1.163.337-.565 1.2-1.76 1.47-1.691-.287.69-.607 1.397-.819 2.1-.33.787-.431 1.566-.436 2.418.368-.603 1.94-2.006 2.968-2.262-1.09 1.297-2.4 2.508-2.63 4.808.986-1.703 2.305-2.001 2.603-2.955-.55.737-2.03 5.267-1.355 5.67.442-.987.807-1.981 1.441-2.859.2-.376 1.23-1.29.692-.26-.398.912-.636 1.757-.646 2.813-.151.55.192 2.227.431.844.345-.92.508-1.852 1.037-2.662.346-.325.614-.749.918-1.038.507-.584 1.134-.972 1.764-1.34.908-.417 1.572-1.132 2.391-1.558.59-.415 1.074-1.34 1.502-1.99.28-.764.506-1.547.778-2.335.233-.937.691-1.898.432-2.868-.223-.656-.729-1.116-1.254-1.587-2.875-1.523-8.627.744-9.948 3.071z" fill="#fff" stroke="#000" stroke-width=".26468764"/><path d="M73.59 59.582c2.215 3.445.235 7.939 1.453 11.611.209.296.379.802.692 1.125.176.363.867 1.209-.087.735-.31-.074-.981-1.28-.872-.432-.239.507.175 1.624.175 1.624s-.965-1.315-1.306-1.159c-.185.709-.206 1.757.112 2.322-2.291-.8-2.21-.65-2.572-.921-.042.64.031 1.426.193 2.006-.44-.29-2.135-.832-2.39-1.58-.381.598-.156 1.778-.186 2.123-.383-.353-.937-.937-1.107-1.386-.602-.553-.574 1.63-.444 2.069-.59-.169-.999-1.394-1.291-2.028-.404-.553-.591 1.515-.545 2.266-.905-.447-1.725-1.322-1.642-2.138-.402.796-1.125 1.354-2.033 1.592-.926.255.243-1.022.278-1.55.158-.484.395-1.006-.111-.33-.753.538-1.627.8-2.549.758-.393-.232.772-.94.807-1.48 1.69-2.71 2.012-6.433.692-9.116-.4-.821-.86-1.56-1.212-2.415-.366-.65-.39-1.502-.46-2.295-1.292-7.686 11.208-6.27 14.405-1.401z" fill="#fff" stroke="#000" stroke-width=".26494312999999997" stroke-linejoin="round"/><path d="M60.77 66.781l1.254-.13 2.4-9.652 1.147 1.645-2.409-2.971-1.563.26-2.003.952-1.811 3.236z" fill="#fff"/><path d="M61.62 68.255c.24.031.068-1.072.145-1.226.036-.073.06-.276.108-.324.008-.009.03.01.036 0 .11-.026.014-.1.036-.145.027-.053.094-.086.108-.144.009-.035-.007-.073 0-.108.01-.045.096-.156.108-.18.023-.045.001-.11.036-.145.009-.008.028.009.036 0 .061-.06.101-.194.145-.252.03-.04.077-.067.108-.108.013-.017.022-.094.036-.108.008-.009.028.008.036 0 .046-.046.1-.193.144-.253.048-.064.07-.033.144-.108.167-.166.358-.607.47-.83.016-.033.011-.078.035-.107.027-.034.078-.042.108-.073.07-.07.093-.202.145-.288.055-.093.126-.159.18-.252.037-.065.124-.207.144-.289.006-.023-.014-.053 0-.072.026-.035.086-.035.108-.072.019-.031-.007-.073 0-.108.016-.08.083-.14.108-.217.063-.186.117-.384.18-.576.021-.062.212-.68.217-.686.009-.008.028.009.036 0 .009-.008-.005-.025 0-.036.01-.018.396-.333.433-.36.049-.037.125-.009.18-.036.22-.11.388-.204.541-.433.058-.087.051-.14.108-.216.03-.041.082-.065.108-.108.013-.021 0-.048 0-.072.012-.037.014-.078.036-.109.016-.021.053-.017.072-.036.052-.05.08-.16.109-.216.216-.433-.057.155.144-.18.136-.227.172-.388.36-.577.035-.035.102-.01.145-.036.088-.053.155-.132.252-.18.022-.011.055.016.072 0 .009-.01 0-.025 0-.037.024 0 .05.011.072 0 .118-.058-.175-.019.036-.072.238-.06.506-.094.758-.144.026-.005.048-.024.072-.036.048-.012.095-.03.144-.036.113-.016.252-.005.36-.036.052-.015.095-.052.145-.072.132-.053.3-.064.432-.108.073-.025.138-.077.217-.109.064-.025.202-.021.252-.072.005-.005.066-.105.072-.108.022-.01.05.01.072 0 .04-.02.297-.333.325-.36.023-.024.126-.018.144-.037.018-.018.018-.054.036-.072.024-.023.126-.018.144-.036.025-.024.02-.045.072-.072.022-.01.092.017.109 0 .008-.008-.009-.027 0-.036.029-.03.138-.05.18-.072.202-.101 1.019.442 1.19.613.054.054.09.126.144.18.03.03.078.042.108.072.009.009-.008.028 0 .036.034.034.092.02.144.073.03.03.042.078.072.108.021.02.124.05.145.072.008.008-.009.027 0 .036.018.018.054.018.072.036.008.008-.009.028 0 .036.054.054.126.09.18.144.018.018.018.054.036.072.036.036.118.055.144.109.006.01-.008.027 0 .036.012.012.097.024.109.036.03.03.042.078.072.108.03.03.078.042.108.072.034.034.078.114.108.144.008.009.028-.008.036 0 .021.021.051.123.072.144.02.02.083.059.108.109.023.045-.016.132 0 .18.011.032.057.042.072.072.01.017.14.428.145.433.024.024.045.019.072.072.076.153-.077.566 0 .72.033.068.004.154.036.217.156.312.108.51.108.866 0 .08-.025.212 0 .288.026.078.06.19.036.288-.014.055-.058.126-.072.18-.015.059.01.122 0 .181a6.23 6.23 0 01-.144.577c-.029.085-.08.167-.108.252-.04.12.004.275-.036.397-.004.011-.031-.01-.037 0-.032.065.018.18 0 .252-.018.075-.086.152-.108.217-.043.129-.014.264-.036.396l-.072.433c-.022.131.062.382 0 .505a4.446 4.446 0 01-.324.396c-.011.006-.028-.008-.036 0-.075.075.114-.003-.037.073-.021.01-.093.02-.108.036-.018.018-.018.054-.036.072-.034.034-.158-.03-.18-.036-.029-.01-.124.02-.144 0-.009-.009.008-.028 0-.036-.058-.058-.284.1-.289.108-.006.013-.092.212-.108.252-.074.049-.017.122-.036.18-.069.207-.007-.218-.072.109-.03.15-.06.3-.144.468-.034.068-.007.18-.036.253-.016.04-.056.068-.072.108-.061.152 0 .395-.073.54-.133.268.39 1.09.18 1.299-.118.118-.531.202-.72.108-.049-.024-.05-.086-.072-.108-.053-.052-.302-.24-.433-.108-.044.044-.053.159-.072.216-.006.016-.024.024-.036.036-.012.036-.029.07-.036.108-.023.115-.01.228-.036.36-.082.408.217.54-.073.974-.024.036-.074.155-.108.18-.27.204-.636-.027-.865-.18-.053-.035-.087-.115-.144-.144-.022-.01-.055.017-.072 0-.009-.008.01-.03 0-.036-.09-.045-.218-.036-.325-.036-.015 0-.099-.01-.108 0-.009.009-.107.28-.108.288-.043.215-.186.451-.108.685.092.279.23.54.288.83.01.048.127.269.072.324-.086.086-.472.043-.577-.036-.034-.026-.07-.053-.108-.072-.01-.005-.03.01-.036 0-.01-.021.009-.05 0-.072-.016-.04-.057-.068-.072-.108-.051-.136-.074-.296-.108-.433-.017-.068.013-.148 0-.216-.043-.213-.129-.406-.18-.613-.016-.06-.074-.18-.145-.18-.03 0-.305.269-.324.288-.257.257.034-.02-.217.18-.102.082-.163.2-.252.289-.009.008-.032-.012-.036 0-.012.034.011.074 0 .108-.004.011-.03-.01-.036 0-.028.055-.015.123-.036.18-.132.353-.169.78 0 1.118.016.032-.012.074 0 .108.016.048.085.098.108.144.01.022-.008.05 0 .072.035.104.228.697.252.722.009.008.028-.009.036 0a.543.543 0 010 .108c-.015.015-.086.025-.108.036-.03.015-.041.057-.072.072-.032.016-.074-.012-.108 0-.074.025-.383.094-.397.108-.038.038-.084.264-.144.325-.05.05-.53-.16-.577-.253-.033-.066-.019-.095-.036-.18-.065-.326-.003.098-.072-.108-.015-.046.015-.099 0-.145-.069-.206-.007.218-.072-.108-.04-.203-.076-.408-.144-.613-.017-.05-.06-.092-.072-.144-.04-.156-.06-.324-.109-.469-.011-.034.012-.074 0-.108-.037-.111-.098-.134-.144-.18-.008-.009.012-.036 0-.036-.063 0-.267.405-.288.469-.045.134.01.296-.036.432a2.03 2.03 0 00-.108.65c0 .166.02.844-.073.937-.008.008-.027-.009-.036 0-.038.038-.087.123-.144.18-.04.04-.165.083-.216.108-.097.049-.395-.22-.325-.36l.144-.289c.011-.021-.01-.05 0-.072.015-.028.07-.068.073-.072.01-.022-.008-.05 0-.072.04-.12.158-.266.18-.397.008-.047-.012-.097 0-.144.026-.105.11-.185.144-.288.075-.226.099-.456.144-.685.029-.142.09-.704 0-.794-.008-.008-.027.009-.036 0-.016-.016.011-.086 0-.108-.014-.028-.055-.128-.072-.144-.008-.009-.027.008-.036 0-.012-.012-.024-.096-.036-.108-.008-.009-.028.008-.036 0-.059-.06-.114-.203-.288-.145-.04.014-.11.064-.145.073-.035.008-.072-.007-.108 0-.053.01-.503.178-.505.18-.017.017.022.061 0 .072-.03.015-.232.068-.252.108-.01.022.01.05 0 .072-.012.024-.06.012-.072.036-.018.035-.015.113-.036.145-.049.072-.09.056-.108.144-.025.12-.05.208-.072.324-.011.053-.06.092-.073.145-.005.023.011.05 0 .072-.005.01-.03-.011-.036 0-.01.021.011.05 0 .072-.005.01-.027-.009-.036 0a1.173 1.173 0 00-.072.18c-.024.074-.011.179-.036.252l-.108.325c-.009.008-.03-.01-.036 0-.016.032.016.076 0 .108-.075.15.002-.038-.072.036-.042.042-.066.102-.108.144-.084.084-.26.04-.361.072-.05.017-.093.056-.144.073-.029.01-.124-.02-.144 0-.009.008.008.027 0 .036-.04.04-.278.133-.325.18-.008.008.01.03 0 .036-.021.01-.05-.008-.072 0-.063.02-.242.098-.288.144-.009.009.01.03 0 .036-.022.011-.051-.01-.073 0-.01.006.009.028 0 .036-.017.017-.05-.01-.072 0-.053.027-.486.235-.54.18-.009-.008.008-.027 0-.035-.018-.017-.056.017-.073 0-.018-.018 0-.152 0-.18 0-.097-.012.011.036-.037.005-.004.27-.865.289-.937.003-.012 0-.024 0-.036.024-.024.057-.042.072-.072.016-.033-.016-.076 0-.109.026-.051.073-.18.108-.216.009-.008.028.009.036 0 .017-.017-.01-.05 0-.072.116-.23-.043.159.072-.072.026-.051.019-.128.036-.18.063-.188.125-.395.217-.577.01-.022-.017-.055 0-.072.008-.009.027.008.036 0 .051-.052.26-.539.288-.65.026-.102.026-.268.072-.36.006-.01.03.01.036 0 .094-.141.094-.353.145-.505.034-.103.108-.18.144-.288.028-.085.007-.203.036-.289.04-.122.086-.245.144-.36.023-.046-.035-.182 0-.217.009-.008.028.009.036 0 .031-.03-.017-.591-.036-.649-.025-.074.03-.474 0-.504-.008-.009-.027.008-.036 0-.03-.03.03-.15 0-.18-.008-.01-.028.008-.036 0-.03-.03-.002-.183-.036-.217-.009-.009-.028.008-.036 0-.024-.024.024-.12 0-.144-.009-.009-.028.008-.036 0-.018-.018.018-.09 0-.108-.009-.009-.028.008-.036 0-.05-.05.054-.284 0-.325-.043-.032-.096-.048-.144-.072z" stroke="#000" stroke-width=".26468764" opacity=".1"/><path d="M63.893 72.551c.236 1.095.493 2.355-.175 3.358M67.905 72.162c.207 1.062.318 2.312 1.265 3.01M69.725 71.6c.525 1.014.55 2.436 1.7 3.008M73.19 69.91c-.225 1.09-.06 2.27.523 3.226M70.084 63.586c.869 1.255.522 3.06 1.7 4.143M68.426 65.897c.47 1.295-.02 2.745.567 4.012M65.417 58.09c.95.925 1.982 1.92 2.268 3.271M55.924 61.08c.26-.552.395-1.068 1.298-1.803M57.726 63.351c.393-.384.712-.769 1.19-1.154M57.113 66.272c.426-1.276 1.007-2.242 1.623-3.137M58.448 67.606c.493-.988.597-2.255 1.694-2.812" fill="none" stroke="#000" stroke-width=".26468764"/><path d="M67.642 63.171c-2.005 1.3-1.88 4.012-3.31 5.745-1.077 1.452-2.4-.813-2.629.764.033 1.743-.393 3.462-1.376 4.914-.818 1.162.168 1.137.762.25.646-.613 2.896-.848 1.596.535-.792 2.14 1.96-1.392 1.463.236-.169 1.61 1.5.58 1.203-.516.552-1.618 1.33-.213 1.059.766.57.815 1.512-2.084 1.775-.204.496-.438 1.293-3.032 1.408-1.196 1.048 1.933 1.303-2.212 2.732-.355.692-.676 1.247-1.754 2.146-1.685.801-1.55.087-3.221.247-4.834-.032-2.632.603-5.557-1.06-7.856-1.02-1.163.195 1.86-1.118 1.053-1.262-.676-3.395-.974-4.165.508.164.753-.844 1.396-.733 1.875z" opacity=".2" stroke="#000" stroke-width=".26468764"/></svg>