<svg xmlns="http://www.w3.org/2000/svg" viewBox="0 0 132.292 132.292" height="500" width="500"><g stroke="#000"><path d="M69.888 55.84c7.448 1.569 2.946 7.101 6.766 17.225-.115.234-1.23 1.302-1.415 1.513-.105.119-.483-.056-.608.056-.126.114 0 .513-.145.62-.52.38-1.153.713-1.847.996-.205.083-.706-.337-.92-.262-.229.08-.172.655-.408.725-.786.233-1.606.412-2.403.537-.356.056-.245-.977-.614-.939-.318.033.116.959-.203 1.027-.395.085-1.253.127-1.664.142-.168.006-.126-.887-.293-.888-.185-.002-.132.887-.314.879-.582-.026-1.141-.08-1.635-.109-.264-.015-.291-1.456-.554-1.478-.255-.022-.377 1.4-.63 1.372a30.088 30.088 0 01-1.578-.219c-.154-.025-.148-1.446-.3-1.474-.153-.028-.464 1.338-.615 1.308a22.78 22.78 0 01-3.041-.814c-.294-.102-.338-.789-.605-.9-.245-.102-.715.37-.935.262-1.23-.61-2.045-1.32-2.206-2.073 2.543-1.831.555-12.078 2.603-14.9 4.701-4.707 10.096-3.215 13.564-2.606z" fill="#fff" stroke-width=".26468764"/><path d="M57.396 65.944c-.472-2.76 2.756-4.493 5.681-4.259 2.925.234 5.804-3.051 8.822-4.044 3.018-.994 2.937 5.93 3.183 8.417.245 2.486.908 5.384.736 7.76-.173 2.377-6.225 2.677-9.079 2.553-2.853-.123-11.068-.748-12.342-2.937-1.274-2.189 3.472-4.73 3-7.49z" opacity=".1" stroke-width=".26468764"/><path d="M62.602 59.18c.898.26 1.982 1.92 2.268 3.27M61.16 75.582c.643-3.366.972-6.81 1.053-10.316M63.64 75.946c.2-1.316.4-2.632.395-3.606M66.187 76.635c-.566-3.4-.724-3.476-.944-6.497M68.318 76.275c-.681-2.912-1.704-5.9-1.816-8.685M56.843 75.173c.624-2.886 1.401-5.8 1.29-8.553M71.788 75.997c-1.174-2.325-1.729-4.965-1.921-6.974M74.637 74.585c-.978-1.983-1.403-4.217-1.605-6.553M69.819 66.345c-.094-1.479-.018-4.262-1.632-6.553" fill="none" stroke-width=".26468764"/><path d="M61.511 64.123c1.637-2.027 6.164.148 7.82-1.378 1.655-1.526 4.523-5.301 5.172-2.303.648 2.998.732 8.472 1.528 11.188.796 2.715-2.186 4.113-5.237 4.936-3.052.823-9.518-.008-12.234-.636-2.716-.629-5.071-2.68-3.884-3.59.77-2.719 5.058-6.001 6.835-8.217z" opacity=".2" stroke-width=".26136626999999996"/></g></svg>