<svg xmlns="http://www.w3.org/2000/svg" width="150" height="150" viewBox="0 0 39.687 39.688"><path d="M27.601 18.929c.324 1.094.463 3.159.231 4.3-.678-1.064-1.448-2.312-2.542-2.96.562 1.434-.1 2.867-.463 4.3-.245-1.762-1.363-2.262-1.942-2.912-.658 1.175-.588 2.645-.138 3.698-1.221-.498-1.823-2.164-2.45-3.375-.951.766-1.173 2.536-1.526 3.421-.474-.959-.79-2.847-.648-3.93-.636 1.026-1.866 1.854-3.236 2.636.606-1.325 1.01-2.65.879-3.976-1.634-.479-3.268.47-4.901 2.08.539-1.759.598-3.577 2.034-5.224-1.11-.341-2.22.364-3.329.693.348-1.58.764-3.145 2.08-4.484l-3.652-.601c4.058-4.582 7.14-6.605 12.585-4.398.72-.055 1.457-.199 2.167-.199l2.262 1.222c.596 1.084 1.248 2.15 1.81 3.245z" fill="#fff" stroke="#000" stroke-width=".26468764"/><path d="M18.079 10.886c-2.817 2.695-.033 8.13 3.764 7.602 3.956 1.158 7.787-4.38 4.407-7.265-2.192-2.039-5.746-1.82-8.171-.337z" stroke="#000" stroke-width=".26468764"/><path d="M19.295 10.493l-1.333.97-.185 1.802.115 1.826.486.717s1.156 1.433 1.294 1.48c.139.046 1.757.416 1.757.416l2.312.254 1.664-.555 1.225-1.225.232-2.173-1.665-2.59-3.86-.646-1.364.069z" fill="#fff"/><path d="M18.498 17.808l-2.409 4.542 3.19-2.404-.462 3.144 2.589-3.005-.046 2.589 1.895-2.636 1.434 2.173v-3.19c.976.6 2.292.976 2.52 2.284.374.628.15-.951.307-1.214.299-1.389-.608-2.586-1.34-3.663-.881-.754-2.073-1.536-3.286-1.226-.853.276-1.71.556-2.561.819-.725.459-1.21 1.206-1.831 1.787z" opacity=".2"/><path d="M20.583 8.197c-.427-1.67-.21-3.224.319-4.721.886 1.06 1.877 2.066 2.265 3.375.765-.953 2.165-3.066 3.04-3.156.268 1.196.19 3.173.673 3.881 1.361-1.215 2.707-2.438 4.748-3.314-.64 1.265-1.298 3.07-.993 4.268 1.816-.3 3.408.18 5.061.448-1.432 1.552-2.716 2.762-4.762 3.097.469 1.393 1.929 3.723 1.772 4.525-1.177.253-3.099-1-3.921-1.216.503 1.276.495 3.094.238 3.736-1.065-.875-2.38-1.536-2.882-2.893-.97 1.043-2.598 2.362-3.489 2.7l-1.25-2.819c-.642.827-1.858 1.196-2.904 1.7.174-1.356.026-2.771 1.096-3.965-1.119.5-2.45.043-3.732-.196.644-1.06 2.121-1.994 3.11-2.46-1.578-.691-2.796-1.886-3.942-3.18 2.034-.302 4.033-.536 5.553.19z" fill="#fff" stroke="#000" stroke-width=".26468764"/><path d="M29.936 5.798c-.27.862-1.742 1.815-1.272 2.63.77.416 1.912.37 1.57-.807-.015-.577.64-1.911.08-2.07l-.378.247zM28.605 14.613c1.155.436 2.2 1.156 3.41 1.438l-1.742-4.054-1.668 2.616zM28.082 15.07s-2.221-.985-1.769-.146l2.325 3.416c-.305-1.275-.25-1.995-.556-3.27zM22.884 18.11l.916-4.184c.685.041 1.805.353.869 1.108l-1.785 3.077zM19.354 16.705l1.503-2.942 1.668.36zM16.575 13.24l3.138-.916c.484.388 1.045 1.182-.035.89l-3.103.026zM30.73 10.33l4.021-1.242c-.585.954-1.546 1.53-2.491 2.042-.639.382-2.469.35-1.53-.8zM25.761 4.707c-.346 1.298-1.132 2.565-.802 3.953-.108 1.16 1.264-.348 1.338-.91-.058-.926-.392-1.838-.49-2.78l-.023-.131zM20.89 6.048c.585.824 1.365-.923 1.416.262.028.537.899 2.185-.086 1.365-.748-.287-1.269-.796-1.33-1.627zM18.34 8.303c.716.546-.49 1.375-.202 1.495.96.254 2.498.825 3.105.894L18.34 8.303zM23.505 11.115l4.185-1.57c.76.38 2.447.811 1.115 1.76-.435.683-.853 1.858-1.872 1.622l-5.258-.374c.43-.662 1.01-1.305 1.83-1.438zM10.703 16.64c.811-.959.946-2.479 2.156-3.074.663.23 2.152-.243 2.269.454-.617.865-.904 2.393-2.247 2.3l-2.178.32zM12.83 19.992c1.047-.773 1.57-2.352 3.03-2.456 1.108-.594 1.924.77 1.005 1.559-.552 1.58-1.879-.339-2.879.434-.376.176-.771.307-1.156.463z" opacity=".2"/></svg>