<svg xmlns="http://www.w3.org/2000/svg" width="110" height="110" viewBox="0 0 29.104 29.104"><path d="M23.545 16.053c.4-3.021.876-3.786 1.395-6.79-.252-.822-.503-2.756-.756-2.864-.27.875-.441 2.858-.59 3.062a14.843 14.843 0 00-.968-4.188c-.194-.857-.264-1.737-.408-2.604-.392 1.223-.379 3.068-.39 3.971-.208-1.661-1.411-2.874-2.084-4.3-.084-.314-.076-1.978-.24-1.064-.496.588.594 2.842-.21 1.24-.704-1.388-2.02-2.665-2.122-4.219-.126 1.49-.032 2.982.09 4.463-.898-1.508-1.69-3.083-2.23-4.751-.283 1.066-.077 3.502.133 3.681-.343-1.581-1.75-2.568-2.367-4.033.27 1.144-.699 3.42-.605 3.743-.504-.719-.876-3.036-1.045-1.01-.555.332-.578 2.611-.62 1.057-.206-.809-.639-3.415-.982-1.223-.289.834.216 2.966-.13 1.032C9.283.535 8.777-.732 8.663.8c-.445.943-.972 1.91-.505 2.938-.052.323-1.033-1.674-1.196-2.284-.061-.977-.185-1.442-.496-.29-.502 1.436-.91 2.962-.873 4.489.235.68.65 1.383-.012.393-.407-.337-.884-2.649-.827-.937-.315 1.02-.006 3.045-.02 3.425-.667-.353-1.38-2.19-.973-.49.054.985.04 2.008.769 2.777-.794.016-1.5-1.576-1.051-.113.272 1.079 1.106 3.974 2.384 2.928.206-1.343 5.958 7.096 7.424 6.47l2.675.015 2.597.288 1.718-.98h0l1.672-1.585 1.241-1.18z" fill="#fff" stroke="#000" stroke-width=".20822434999999997"/><path d="M7.795 15.174l3.115 3.375 1.45 1.311.928.246 2.675.015 2.597.288 1.718-.98 1.672-1.585 1.241-1.18 1.35-4.666.4-2.734-.757-2.865-.59 3.062-.581-2.782-.795-4.01-.39 3.971-.582-1.859-.457-.47-.675-1.094-2.627 2.084-3.051 3.232-3.898 5.847z" opacity=".2"/></svg>