<svg xmlns="http://www.w3.org/2000/svg" viewBox="0 0 132.292 132.292" height="500" width="500"><path d="M56.921 60.671c-2.37-.174-4.524.394-6 3.3.316-2.865 1.993-4.814 6-3.3z" fill="#fff" stroke="#000" stroke-width=".2"/><path d="M61.546 73.203c4.566.857 11.536-1.263 12.472-2.207.33-4.258 1.032-5.56.822-7.662-1.058-10.594-16.232-8.43-19.059-3.225-.975 1.795-.729 4.052.079 6.466.482.085 1.58-.476 1.587.085.287 1.47-.816 3.598.734 4.199 1.213-7.615 4.042-2.008 3.365 2.344z" fill="#fff" stroke="#000" stroke-width=".4649918" stroke-linecap="square" paint-order="stroke fill markers"/><path d="M72.172 62.538c2.252.487 1.698 5.364 1.662 6.495.124-1.568.868-6.355-1.662-6.495zM68.71 64.146c2.182 1.506 2.892 6.666 2.297 7.665.713-.75.234-7.524-2.297-7.665zM62.786 64.405c-1.844.63-1.391 2.493-1.142 3.327-.497-.915-.434-3.258 1.142-3.327zM71.523 61.133c.27-3.137-3.173-5.095-4.33-5.21 1.027-.128 4.987 2.043 4.33 5.21zM73.225 61.223c.414-1.258-1.501-3.81-2.561-4.286 1.014.205 3.274 3.174 2.561 4.286zM66.73 62.098c-.775-2.605-5.627-4.346-7.694-3.712 1.855-.879 7.943 1.19 7.695 3.712zM68.503 60.96c.157-2.646-6.76-4.28-7.741-4.176 1.465-.162 8.708 1.858 7.741 4.176z" fill="#999"/><path d="M68.879 60.198c.337-2.63-3.538-3.785-4.898-3.374 1.53-.68 5.662 1.098 4.898 3.374zM73.06 60.792c1.34.375 1.356 2.856 1.32 3.987.124-1.567-.413-4.303-1.32-3.987zM61.534 62.158c-1.476-1.581-5.648-1.006-6.193 1.158.08-1.82 4.62-3.146 6.193-1.158z" fill="#999"/><path d="M63.318 63.183c.497-2.134-3.905-3.634-5.499-4.001 1.881.067 5.982 1.684 5.499 4.001zM60.119 62.532c-1.835-.964-3.725 1.092-4.27 3.256.08-1.82 2.34-4.613 4.27-3.256zM61.353 63.146c-.96-.562-2.427 1.24-2.764 3.543.08-1.82 1.407-4.613 2.764-3.543zM70.548 63.696c2.181 1.506 2.666 6.891 2.072 7.89.712-.75.458-7.75-2.072-7.89zM66.273 64.709c2.181 1.505 2.516 6.74 1.922 7.74.713-.75.609-7.6-1.922-7.74zM64.323 65.646c2.181 1.506 2.291 6.403 1.697 7.402.713-.75.834-7.261-1.697-7.402z" fill="#999"/><path d="M60.821 67.87c.052-1.816 2.284-2.362 2.667-4.058.469-1.66 1.747-2.919 3.227-3.727.806-1.07 1.27-2.623 2.631-3.34 1.28-.345 2.534.813 3.439 1.653 1.201 1.113 1.849 2.746 2.053 4.343.422 2.461-.574 4.857-.62 7.313.15 1.781-2.454 1.9-3.767 2.434-2.084.351-4.138 1.12-6.282.816-1.005-.275-3.423.574-2.522-1.128.27-1.504-.344-2.919-.826-4.305z" opacity=".2" stroke="#000" stroke-width=".265"/></svg>