<svg xmlns="http://www.w3.org/2000/svg" width="150" height="150" viewBox="0 0 39.687 39.688"><path d="M18.51 8.743c-.982.256-1.83-.892-2.74-.47-.911.423-2.046-.283-2.62.327-.573.61-1.454.355-1.675 1.285-.222.93-1.697 1.116-1.465 2.228.232 1.112-1.389 1.02-.822 2.149.566 1.128-1.109 1.858-.65 3.09.46 1.232-1.55 1.391-.76 2.66.792 1.268-1.239 1.47-.905 2.6.333 1.13-.563 1.39-.913 2.064-.35.674.236.858-.795 1.88-1.03 1.024 1.503 1.364 2.103 1.692.6.328.765.904 1.663.388.9-.517 1.13 1.449 2.173.962 1.042-.487 1.846.96 2.837.341.991-.618 1.731.36 2.641.296.91-.063 1.95-.535 2.844.07.895.605 1.532-1.037 2.469-.411.936.625 1.293.34 2.09-.327.797-.668 1.709 1.152 2.564.548.855-.605 1.98-.352 2.825-.297.844.056.897-1.364 1.977-.763 1.081.6 1.746-2.129 1.102-3.184-.643-1.055-.699-.37-.868-1.28-.17-.91-1.186-1.522-.82-2.682s-1.487-1.437-.978-2.618c.51-1.182-1.4-1.425-.988-2.705.413-1.279-1.255-1.424-1.19-2.508.063-1.084-.583-1.793-1.235-2.422-.652-.63-.668-2.077-1.505-2.336-.837-.26-1.2-.53-2.015-1.001-.814-.471-1.575-.348-2.376 0-.802.349-.988.167-1.969.424z" fill="#fff" stroke="#000" stroke-width=".26468764"/><path d="M11.326 13.532c.763 1.302 1.107-1.314 1.105-2.256.684-1.43 2.974-1.727 4.04-.574.77 1.153-1.554 2.143-.594 3.318 1.343.823 2.146-1.466 3.482-1 1.161 1.024 1.441-.784 2.234-1.198.95.048 2.084.126 2.754.901.688.912-1.023 1.924-.088 2.74.827-.054 1.803-1.108 2.544-.05.79 1.252-1.066 1.63-1.47 2.486.285.889 1.867 1.114 1.521 2.397-.108.96-1.816 1.48-.557 2.43.525.643.248 1.693 1.345 1.947 1.276.398-.28 2.118 1.211 2.26 1.495.01 1.197 2.323-.209 2.093-1.288-.672-2.163.92-3.445.552-1.094-1.254-2.064 1.135-3.257.48-1.076-.584-2.53.887-3.526-.196-1.028-.942-2.6.775-3.53-.5-.938-.908-1.959.568-2.894.034-.78-.93-4.365-1.685-4.988-2.704-.638-1.162 1.173-.996-.354-1.888-.752-.825 1.937-1.522 1.093-2.482-.983-1.186 1.819-2.49 1.315-3.779-.42-.924.088-1.805.394-2.671.586-.961.783-1.255 1.305-2.16a.589.589 0 01.57-.18z" opacity=".1" stroke="#000" stroke-width=".26468764"/><path d="M13.584 10.515c-.553.165-1.158.505-1.293 1.113.098.338-.288.88-.092 1.07.34-.24.492-.666.836-.91.474-.438 1.241-.627 1.8-.233.24.263.921.507.77-.113-.02-.584-.513-1.041-1.088-1.064-.321-.044-.63.068-.933.137z" opacity=".2" stroke="#000" stroke-width=".15278302"/><path d="M9.846 15.138c1.566.284 1.109 2.293 2.742 2.435 1.083.462 1.008 1.991 2.34 2.27.639.712.708 2.178 1.941 2.211 1.053-.087 1.697-1.6 2.874-.78 1.78-.007.538-2.227 1.696-2.704 1.076-.58 1.954.737.857 1.38-1.112 1.167 1.53 1.852.217 3.031.946.571 1.249 1.532.601 2.419-.19 1.487 1.284 1.437 2.14.74.83.114 1.372-.337 2.121-.293.69 1.702-1.712.84-2.405 1.51-.58.483-1.183 1.064-.627 1.816-.658.21-1.33.5-1.993.827-1.18-.887-2.403-.213-3.665.043-.871-.72-2.02-.642-3.106-.27-.91-.828-2.057-.153-3.042 0-1.102-.446-5.408-2.285-6.57-2.496-1.44-1.184 2.268-1.633.683-2.473-.598-1.065 3.053-4.236 1.701-5.036-.863-1.213 1.388-.32.575-1.631-.535-1.258.484-1.96.92-3z" opacity=".2" stroke="#000" stroke-width=".26468764"/><path d="M17.33 14.836c-.478.32-.594 1.102-.071 1.44.532.385 1.25.14 1.556-.408.37-.627 1.12-.41 1.647-.72.302-.31.033-1.193.766-.887.393.422.091 1.187-.156 1.661-.239.392.065 1.466-.773 1.187-.574.037-1.152-.418-1.703-.15-.394.519-1.068.671-1.417.006-.472-.481-.609-1.366-.22-1.91.109-.096.24-.162.37-.22zM14.724 13.812c-.053.333.04.7.288.937.24-.09.284.2.422.32.111.061.168.085.137.226.071.233-.174.282-.346.3-.224.03-.463.053-.681-.015-.147-.114-.16-.322-.212-.488-.076-.348-.127-.714-.061-1.068.063-.198.293-.164.453-.212z" opacity=".2" stroke="#000" stroke-width=".26468764"/><path d="M18.167 11.113c.458-.153.944.116 1.4-.05.483.006.75-.463.739-.896.166-.412-.068-.751-.458-.868-.287-.341-.716-.057-.766.315-.048.373-.17.869-.657.805-.464-.176-.787.248-.36.579.033.04.067.077.102.115z" opacity=".3" stroke="#000" stroke-width=".26468764"/><path d="M11.727 21.965a.72.72 0 01.744.597c.11.422-.012.86.055 1.284.122.232.431.214.657.214.27-.013.57-.077.755-.288.095-.213-.054-.432-.105-.638-.12-.302-.24-.616-.429-.882-.226-.113-.37-.302-.508-.502-.087-.018-.04.163-.108.01-.125-.209-.184-.612-.504-.568-.294.088-.422.41-.524.67a2.517 2.517 0 00-.033.103zM19.191 23.057a.692.692 0 01.562.191c.111.092.03.272.046.417-.01.104-.096.159-.1.277-.135.071-.037.294-.037.428-.003.2.254.244.393.15.154-.075.338-.17.323-.362.065-.202.114-.42.084-.632-.03-.17-.243-.212-.298-.367-.076-.102-.256-.095-.248-.247-.083-.07-.048-.296-.233-.297-.124-.015-.37-.132-.412.043.035.15.009.272-.08.4zM16.536 23.896c-.007.448-.004.897.07 1.34.031.47-.165.92-.136 1.392.115.25.471.223.6.466.04.234.156.56.459.428.222-.152.026-.45-.057-.632-.156-.245-.523-.313-.583-.628-.102-.386-.018-.798.177-1.14.148-.24.124-.57-.134-.724-.204-.122-.288-.315-.396-.502zM11.366 26.132l.326.419c.015.206.155.379.315.498.146.108.386.154.516-.002.115-.144.04-.347-.059-.479-.068-.113-.21-.164-.265-.283-.067-.101-.222-.074-.295-.175-.097-.1-.171-.27-.333-.264-.097.025-.298 0-.286.147.01.056.062.087.08.139zM22.452 14.16c.14.022.144.198.152.31.015.276-.052.551-.023.827.097.104.27.074.402.109.173.067.317-.076.341-.242.022-.128.056-.277-.03-.39-.094-.198-.189-.398-.246-.61 0-.128.099-.37-.115-.368a1.566 1.566 0 00-.489.022c-.122.043-.048.194-.014.277a.624.624 0 01.022.065z" opacity=".8" fill="#fff"/><path d="M16.959 15.054c-.934 1.675 1.013 2.656 2.383 2.383.373.382.792.045.957-.328M25.14 14.49c1.251.386 1.963 1.725 1.508 2.97M26.854 20.296c-1.056.417-.15 3.252-.557 2.43M28.842 23.494c.763.715.249 2.097 1.234 2.651M19.27 22.658c1.077.276.967 1.554 1.573 2.253M12.284 21.192c-.48.724-.225 2.044-1.314 2.257M16.606 25.236c-1.243.597-.178 2.266-1.02 3.012M11.57 25.846c-.757.205-.713 1.446-1.605 1.396M14.724 13.812c-1.163-.709-.783 2.42-.437 1.962l.257-.194M14.517 10.378c-1.392-.677-3.119.905-2.318 2.32M21.439 18.57c1.8-.888 1.343 1.654.971 2.492l.115.223.147.198" fill="none" stroke="#000" stroke-width=".26468764"/></svg>