<svg xmlns="http://www.w3.org/2000/svg" viewBox="0 0 132.292 132.292" height="500" width="500"><path d="M62.41 71.51c1.306-.143 2.597-.305 3.689-.734.568.377 1.066.8 1.417 1.323.376-.551.634-1.102.756-1.654 1.054.214 1.877.706 2.762 1.123.133-.626.081-1.252-.258-1.879.903.373 1.665.995 2.406 1.655.321-.824.314-1.663.24-2.505.573.191 1.175.117 1.68.912.211-1.517-.284-2.687-.467-4.01.415.04.67.397.869.87.092-1.181.206-1.898-.065-3.079.246-.65.895-.533 1.267.005-.039-1.72-.736-3.193-1.937-4.477.309-1.814-.586-5.103-1.78-5.545.178.913.055 1.113-.257 2.026-.903-1.39-1.223-2.282-2.737-3.06.007.522.178 1.045-.505 1.568-1.233-.913-2.06-2.343-4.017-2.334.138.435-.115.878-.86 1.331-1.286-.788-2.616-1.495-4.543-1.14.363.604.44 1.193-.425 1.726-1.468-.2-2.827-.673-4.565-.199.546.559 1.87 1.195 1.248 1.96-.742-.013-2.333.938-2.874 1.462 1.216-.256 2.292-.324 3.074 0-1.119.343-2.236.689-3.14 1.67 1.001.156 1.94.348 2.298.862-1.119.482-1.393 1.899-1.393 1.899 2.122-.202 1.807-.794 3.21.155-1.415.875-1.582 2.21-2.027 3.442.786-.189 1.655-.652 2.295-.35-.341.909-.42 1.92-.336 2.304.381-.364 3.592-3.465 4.527-2.935-.879.896-.307 2.233-.107 2.79.353-.32.85-.292 1.19-.143-.225 1.435-.098 3.284-.635 4.961z" fill="#fff" stroke="#000" stroke-width=".49999393000000003" stroke-linejoin="round" paint-order="stroke fill markers"/><path d="M72.51 59.308c2.254.487 3.012 6.076 2.976 7.207.123-1.567-.445-7.067-2.975-7.207zM70.962 61.366c2.181 1.506 2.216 5.579 1.622 6.578.712-.75.908-6.437-1.622-6.578zM62.997 63.366c-1.844.63-1.391 2.493-1.142 3.327-.497-.916-.434-3.258 1.142-3.327zM69.83 56.922c.27-3.137-3.172-5.095-4.328-5.21 1.026-.128 4.986 2.043 4.329 5.21zM72.59 56.755c.413-1.257-1.502-3.81-2.562-4.286 1.014.205 3.274 3.175 2.562 4.286zM61.95 56.442c-1.92-1.924-7.017-1.152-8.534.388 1.215-1.654 7.555-2.725 8.535-.388z" fill="#999"/><path d="M63.467 56.083c-.342-2.628-7.442-2.937-8.387-2.65 1.41-.434 8.903.192 8.387 2.65zM64.993 55.252c.337-2.629-3.538-3.784-4.898-3.374 1.53-.678 5.662 1.099 4.898 3.374zM73.924 59.1c1.34.375 2.818 3.306 2.782 4.437.124-1.568-1.875-4.754-2.782-4.437zM59.998 59.078c-1.476-1.581-5.16.044-5.705 2.208.08-1.82 4.133-4.196 5.705-2.208zM60.111 57.508c-1.146-1.868-5.332.16-6.724 1.017 1.385-1.274 5.44-3.005 6.724-1.017zM66.862 67.748c.354 1.916-.589 2.91-1.61 3.172 1.04-.015 2.322-1.765 1.61-3.172zM59.746 61.627c-1.835-.964-3.725 1.092-4.27 3.256.08-1.82 2.339-4.613 4.27-3.256zM60.198 63.294c-.96-.562-2.427 1.24-2.763 3.543.079-1.82 1.406-4.613 2.763-3.543z" fill="#999"/></svg>