<svg xmlns="http://www.w3.org/2000/svg" viewBox="0 0 29.104 29.104" height="110" width="110"><path d="M4.526 9.594c.681-1.223.848-2.6 2.095-3.653.125.187-.133.502.374.562 1.603-1.499 3.291-2.996 5.33-3.81-.155.391.021.716.171 1.047 1.84-.51 3.684-1.064 5.463-.656-.33.234-.626.468-.524.703 1.71-.167 3.21.004 4.416.655-.393.271-.984.514-.973.843 1.846.317 3.035 1.009 4.004 1.827-.422.047-.87.056-1.048.468 1.075.912 1.43 1.913 1.871 2.904l-1.064-.617c.455 1.423.42 2.847.316 4.27-.347-.81-1.182-1.456-2.283-2.014.245.954.367 1.887-.075 2.716-.733-1.155-2.054-1.899-3.405-2.622-.04 1.092-.47 2.185-1.01 3.278-.932-.979-2.256-1.802-3.817-2.529-.707.949-1.117 1.94-1.384 2.95-.987-.6-1.951-1.215-2.32-2.247-.723.79-1.055 1.721-1.086 2.763-.51-.628-.805-1.221-.9-1.967-.343.142.372 1.33-.007 2.135-.367.779-2.162 1.175-2.453 1.344-.695.404-1.108-1.694-1.729-1.231.028-.74-.512-1.574.187-2.201-.418-.454-1.004-.464-1.609-.422.366-.791.758-1.502 1.31-1.733-.185-.878-.758-.979-1.31-1.124.515-.852 1.008-1.477 1.46-1.639z" fill="#fff" stroke="#000" stroke-width=".26468764" stroke-linecap="round"/><path d="M15.493 8.605c5.325.531 3.167 6.062 2.654 6.715.616-1.664 1.935-5.35-2.654-6.715zM19.918 9.351c2.606.55 3.037 3.893 2.7 5.24.166-.167.807-4.797-2.7-5.24zM9.491 16.161c-.648-.33-1.268-3.233-.476-4.656-.315.792-.24 3.7.476 4.656zM6.327 8.508c-.072-2.131 3.94-4.867 5.822-5.612-1.92 1.096-5.328 3.461-5.822 5.612z" fill="gray"/><path d="M17.758 3.106c-1.808-.363-8.43 1.17-9.064 5.012-.332-3.575 6.747-5.614 9.064-5.012z" fill="gray"/><path d="M13.54 5.26c4.42-2.176 7.701-1.154 8.064-.894-1.243-.237-4.868-.35-8.064.894zM18.148 5.408c3.738-.706 6.233 1.345 6.525 1.612-.722-.584-2.427-1.588-6.525-1.612z" fill="gray"/><path d="M20.197 6.593c3.266-1.248 5.309 3.3 5.348 3.726-2.466-5.463-6.186-3.178-5.348-3.726z" fill="gray"/><path d="M24.05 9.133c1.068 1.125.998 4.403.86 4.669.1-2.633-.59-3.609-.86-4.67zM10.628 10.902c-.54 3.037 1.236 4.14 2.3 4.927-1.195-.99-2.284-2.514-2.3-4.927zM6.587 6.087c-.206.205-2.144 2.862-1.619 3.57.245-1.435.95-2.589 1.619-3.57zM4.705 9.754c-.236-.308-1.201.754-1.438 1.412.228-.53 1.115-1.373 1.438-1.412zM4.755 12.478c-.235-.309-1.201.753-1.438 1.412.228-.53 1.115-1.374 1.438-1.412z" fill="gray"/><path d="M12.61 8.953c-.572 3.571 1.633 3.509 5.537 6.367-1.078-1.573-5.72-2.852-5.537-6.367z"/></svg>