<svg xmlns="http://www.w3.org/2000/svg" viewBox="0 0 29.104 39.688" height="150" width="110"><g fill="#ff2a2a"><path d="M5.344 18.414c.238.787-.052-1.013-.214.049-.404 2.2.157 9.738 1.763 10.415.274-1.166.988-1.31 1.83-2.198.352.663.535 1.196.495 2.297 4.341-3.191 3.036-3.329 3.026-6.044l1.518-6.046-8.418 1.527z" fill="#fff" stroke="#000" stroke-width=".26468764"/><path d="M16.912 19.117l.931.248.787-.02.766-.083.766-.435.746-.31-.104-1.636-1.056-.663-3.002 1.16-.373.766-.372.58z" opacity=".3" fill="#000"/><path d="M19.397 10.742c6.998.104 7.503 12.437 3.624 15.094.758-2.827 1.112-7.723-1.291-8.664 3.036 1.924-3.92 7.898-3.92 7.898s2.726-4.445 2.634-6.869c.304-1.6-1.188-1.025-1.38-.094-1.887-2.743-6.005 7.294-10.422 6.433 2.418-1.332 2.768-2.037 2.8-4.73-3.747 3.229-4.709.615-5.635-.548.508.083 1.975.335.746.11-3.909-1.322 2.044-7.28 3.548-8.562 3.74-1.516 5.845-1.354 9.296-.068z" fill="#fff" stroke="#000" stroke-width=".26468764"/><path d="M5.281 20.354l.047-2 3.947-1.934 2.763.118.513 1.816-2.447 1.223-3.591.316z" fill="#fff"/><path d="M10.955 10.882c-.835 4.552-.28 3.978 3.944 3.51l-3.427 5.185c.013 2.143-.705 4.056-2.84 5.029 1.075.186 2.39-.373 3.4-1.157l.291 1.695c-.215 2.075-1.857 2.723-3.033 3.836l.018-1.005-.563-1.455c-1.015 1.126-1.796 1.389-1.95 2.242-.883-1.109-1.903-8.008-1.528-10.674.878-3.846 4.588-7.66 5.688-7.206zM18.532 12.477l1.068 2.47c-.014.817-.394 1.149-.48 1.962-1.318-3.838-2.224-4.667-5.274-6.784.514.08.416-.11.871-.18.483-.075 1.92.742 2.41 1.023.349.218 1.2 1.152 1.405 1.51z" opacity=".3" fill="#000" stroke="#000" stroke-width=".26468764"/></g></svg>