<svg xmlns="http://www.w3.org/2000/svg" width="110" height="150" viewBox="0 0 29.104 39.688"><path d="M11.814 20.099c4.32-.545 9.47-1.968 12.26-.892l-.632-3.306-11.74 1.411z" opacity=".3" stroke="#000" stroke-width=".26468764"/><path d="M12.778 18.372c-1.189 3.279.593 4.653 1.062 8.513-1.76-1.498-3.217-3.104-3.522-5.121.552 1.463.843 3.057 2.385 4.026l1.491 5.889c-1.357-.434-1.702-1.289-2.385-2.46l.447 1.64c-2.752-1.038-2.361-.974-3.28-3.653l.746 1.938c-1.71-.47-1.954-1.625-2.684-3.13l.82 1.416c-.751-.093-2.015-.69-2.459-1.602 1.18-7.63-1.911-10.023 1.011-12.947 2.923-2.924 8.736-4.93 15.338-1.682.97.564 3.032 2.83 3.61 5.244.034.143.203.782.234.92l-2.328 12.854c-.96-.294-2.24-.768-2.493-1.275 1.106-1.215 1.894-2.51 2.356-3.223-.687-3.067.45-5.43.759-7.459-3.189-2.025-6.924.043-11.108.112z" fill="#fff" stroke="#000" stroke-width=".26468764"/><path d="M20.704 28.927l.667.746 1.69.59.942-.472.637-2.133.817-4.624-.275-2.828-.236-2.671-.353 2.75-1.056-1.705c.114 2.496-.941 3.593-.634 7.322l-.707 1.139-.785 1.257z" opacity=".5"/><path d="M23.583 30.189l-1.341-.42 1.776-2.548.244-2.846-.352-4.393-.965-2.774 2.628.234c.895 5.887 1.148 7.57-1.99 12.747z" fill="#fff" stroke="#000" stroke-width=".26468764"/><path d="M22.933 16.97l.337.52 2.204.127-.016-.422-.262-.611-1.234.022z" fill="#fff"/><path d="M13.73 26.584c-.547-3.448-1.442-6.83-2.033-10.27.122-1.368-2.037.192-2.29-.112-.01-1.14.283-4.082-.68-2.255-1.097 2.159.266-1.808-1.565-1.046-2.344.354-2.055 4.018-1.73 5.73.639 2.633-.002 4.729.028 7.323 1.097 1.612 3.462 2.476 4.754 3.913.804 1.036 2.128.724 1.817-.266.224 1.496 3.088 2.76 1.717.324-.192-1.103-1.28-3.333-.649-3.826.169.188.322.53.63.485z" opacity=".3" stroke="#000" stroke-width=".26468764"/><path d="M19.544 17.426c.012-1.465-.143-2.903-1.081-4.21M15.719 18.037c.4-.09-.187-4.467-.801-4.429M22.264 17.589c.122-1.709.117-2.5-.644-4.115" fill="none" stroke="#000" stroke-width=".26468764"/><path d="M18.265 13.233c.853 1.258.314 2.834.09 4.353l.863-.19.623.095-.376-.945-.14-1.745-.323-1.044-.552-.552zM14.922 13.543l.029 1.844-.56 2.933 1.03-.28.501.082-.3-2.1-.269-2.05zM21.286 13.471c.853 1.257.44 3.603-.521 4.013l.93-.077.625.141c.301-1.004-.196-2.341-.297-3.553l-.551-.552z" opacity=".5"/></svg>