<svg xmlns="http://www.w3.org/2000/svg" viewBox="0 0 29.104 39.688" height="150" width="110"><path d="M5.898 22.912c-.366-2.216-3.503-7.76-1.585-9.076.27.874.442 1.385.59 1.589.053-.664-.395-3.675-.253-4.32.167-.755.772 2.584 1.053 1.857.194-.857.432-3.462.577-4.329.391 1.223.378 3.068.389 3.971.208-1.661 1.411-2.874 2.084-4.3.084-.314.076-1.979.24-1.065.496.589-.594 2.843.21 1.24.704-1.387 2.02-2.664 2.122-4.218.126 1.49.032 2.982-.09 4.463.898-1.508 1.69-3.083 2.23-4.752.283 1.067.077 3.503-.133 3.682.343-1.581 1.75-2.568 2.367-4.033-.27 1.143.699 3.42.605 3.743.504-.719.876-2.876 1.045-.848.555.33.578 2.449.62.895.206-.809.64-3.415.982-1.223.289.834-.216 2.966.131 1.032.132-.721.637-1.988.751-.456.446.943.972 1.91.505 2.938.052.323 1.033-1.674 1.196-2.284.061-.977.185-1.442.496-.29.502 1.436.91 2.962.873 4.489-.235.68-.65 1.383.012.393.407-.337.884-2.649.827-.937.315 1.02.006 3.044.02 3.425.667-.353 1.38-2.19.973-.49-.054.984-.04 2.008-.769 2.777.794.016 1.5-1.576 1.052-.113-.273 1.079-1.107 3.974-2.385 2.928-.206-1.343-.111-3.225-1.578-3.852-1.435-.264-1.885 3.003-3.18 1.243-1.954-1.776-5.177-2.844-7.505-1.156-1.477 1.11-1.982 3.162-1.357 4.866l.622 2.696c-1.643-2.58-3.147.13-3.21.176z" fill="#fff" stroke="#000" stroke-width=".26468764"/><path d="M10.264 8.455l-1.935 6.352 1.767-1.725.505-5.552zM5.09 16.658l1.346 5.51 1.178-.84.336-.968-1.977-3.576-.27-3.822zM15.228 6.394l-.884 6.268-.63-1.683 1.303-5.384zM13.332 7.654l-1.554 4.924-.63-.758 1.682-5.384z" opacity=".2"/></svg>