<svg xmlns="http://www.w3.org/2000/svg" width="150" height="200" viewBox="0 0 39.687 52.917"><g fill="#fff" stroke="#000"><path d="M17.403 19.784h0l-2.242 2.87C3.516 29.772 2.465 40.965 10.497 47.857c-5.154-8.505-2.036-16.69 3.677-21.705l5.561-2.601 4.754-5.292-3.319-.18-.495-.136z" stroke-width=".31981705000000005"/><path d="M24.112 24.145c1.09-1.185 1.31-2.836 2.797-2.435l1.57-2.243-2.823-1.985-4.98.46c-3.816 7.542.089 2.804 3.436 6.203z" stroke-width=".31981705000000005"/><path d="M15.16 22.654l6.01-4.575 3.319.18-4.754 5.292c-4.92 7.481-6.586 20.775 2.063 26.01-16.43-4.247-11.845-17.794-6.637-26.907z" stroke-width=".31981705000000005"/><path d="M14.038 33.146c-2.76-9.227 1.386-14.738 7.171-16.955 1.408-.539-5.132-.1-6.606.975-7.057 6.453-4.956 12.09-.565 15.98zM24.058 30.74c3.464-6.57 5.533-3.456 6.768-8.523.357-1.465-2.62-5.347-4.095-4.272-.425 6.826-2.943 8.784-2.673 12.795z" stroke-width=".31981705000000005"/><path d="M13.789 44.553c4.99-6.605 1.131-19.337 6.274-21.529 1.387-.59-3.428-1.445-4.902-.37-3.28 6.598.734 13.974-1.372 21.899z" stroke-width=".31981705000000005"/><path d="M16.39 33.61c-2.76-9.227 1.386-14.738 7.17-16.954 1.408-.54-5.13-.1-6.605.975-7.057 6.453-4.956 12.09-.565 15.98z" stroke-width=".31981705000000005"/><path d="M15.224 33.476c2.485-7.304 6.707-12.497 11.027-15.25 1.272-.81-4.638-2.925-6.112-1.85-7.057 6.452-6.212 13.03-4.915 17.1z" stroke-width=".31981705000000005"/><path d="M15.224 33.476c-.777-3.093-1.243-6.423-.26-9.526.757-2.231 2.136-4.203 3.676-5.964.526-.546 1.005-1.167 1.626-1.604.657-.246 1.766-.572 2.24.058-.308.516-.973.703-1.363 1.17a22.247 22.247 0 00-3.325 3.752c-.8 1.682-1.34 3.474-1.886 5.25-.434 2.264-.434 4.58-.708 6.864z" opacity=".2" fill="#1a1a1a" stroke-width=".26447792000000003"/><path d="M24.058 30.74c-.173-2 .596-3.868 1.352-5.667.791-2.148 1.108-4.433 1.297-6.697.953-1.411 3.314.425 2.812 1.878-.32 1.803-1.336 3.408-2.7 4.608-1.51 1.43-2.378 3.377-2.636 5.422l-.059.23z" opacity=".2" fill="#000" stroke-width=".26447792000000003"/></g></svg>