<svg xmlns="http://www.w3.org/2000/svg" width="110" height="150" viewBox="0 0 29.104 39.688"><path d="M5.898 22.912c-1.55-3.742-.552-7.328.581-8.435 1.185-2.516 6.658-3.985 10.25-3.176 3.583.806 5.55 1.889 6.437 3.253.584.897.546 2.17.24 3.806.072.471.225 1.17-.063 1.358-.185.12.15.147-.132-.083.043-3.283-1.39-3.797-4.47-1.706-3.518-.981-6.401-1.75-7.815-.455-.044.04-.143.069-.128.128.088.35.223.753.338 1.176.015.055-1.306-.217-1.292-.162.013.05 1.36.427 1.373.478.058.246.105.496.128.745.02.21-1.003.136-1.024.342-.021.21.958.7.878.897-.073.18-.173.352-.307.516-.05.062-.83-.488-.891-.43-.06.06.598.727.527.783a2.992 2.992 0 01-.413.269c-.096.053.03.22.048.333.062.326.056 3.015.056 3.015l-.698-.207c-.41-.715.194-3.234-.505-3.407-.212-.024-.592.035-.95.126-.493.05-.791 1.194-.75 1.322.05.822.133 1.835.061 1.896-.34.286-1.286.077-1.52-.137z" fill="#fff" stroke="#000" stroke-width=".26468764"/><path d="M16.331 17.438c-2.675-.76-4.417 1.539-3.208 4.055-2.127-2.847 2.058-8.58 3.208-4.055zM18.997 17.638c3.874-2.73 7.866 2.124 7.714 5.48.944-7.437-5.136-8.69-7.392-6.585l-.483.714z" fill="#fff" stroke="#000" stroke-width=".26468764"/><path d="M8.474 12.619c.236.656.5 1.313.995 1.819.447.422 1.15.46 1.5 1.008.408.382.752.875.642 1.462-.128.439-1.184.338-.755.996.18.65.352 1.304.473 1.968l-.99.276c-.118.541 1.058.438.66.986-.121.728-.728-.263-1.06.086.138.284 1 .45.537.75.023.558-.273.323-.36.88.037.318.158.681.049.964-.082.213.198 1.558.078 1.756-.262.134-.55-.124-.73-.337-.415-.977.062-2.13-.267-3.137-.154-.252-1.331-.155-1.607.306-.447.746-.225 2.71-.292 2.932-.26.48-1.122-.041-1.408-.117-.41-.234.028-2.002-.102-2.454-.234-.958-.585-2.624-.817-3.582.153-.934.235-1.887.433-2.81.319-.724.531-1.516 1.067-2.12.45-.657 1.128-1.096 1.742-1.579l.102-.039.11-.014zM14.783 15.267l-4.26-3.017c1.416.85 2.595 2.839 4.13 3.032zM18.398 16.786l-.253-2.164c-1.111-1.558-2.597-3.093-4.56-3.42-.4.358 1.615.723 2.048 1.353 1.096.86 2.207 1.885 2.466 3.322.09.306.18.613.3.91zM20.24 15.336c-.795-1.592-2.188-2.764-3.574-3.829.452-.673 1.78 1.008 2.325 1.482.652.605 1.403 1.372 1.25 2.347z" opacity=".3"/></svg>