<svg xmlns="http://www.w3.org/2000/svg" width="150" height="150" viewBox="0 0 39.687 39.688"><path d="M29.292 15.483c.63-.278 1.342-1.228 1.97-1.506-.685-1.244-1.8-1.016-3.021-1.432" fill="#fff" stroke="#000" stroke-width=".29023664"/><path d="M20.543 12.895c1.08 1.74 1.917 4.097 2.64 6.738-1.6-2.336-3.273-2.673-4.926-3.55" fill="#fff" stroke="#000" stroke-width=".26468764"/><path d="M11.908 14.829l2.386-3.239 2.585-.66 2.558-1.429 2.133-.455 2.085 1.861-1.671 3.519-2.347 3.632-1.273 5.077-2.83.218-1.357-3.921z" fill="#fff"/><path d="M20.377 15.157c1.655 1.206 3.944 2.214 6.524 3.132-2.211-1.768-2.423-3.462-3.175-5.176" fill="#fff" stroke="#000" stroke-width=".26468764"/><path d="M22.862 10.186c5.14.51 6.748 4.993 10.37 6.24-7.032 2.78-6.45-.274-10.107-1.841M14.983 18.793l-.507 5.618c1.241-.831 2.44-1.676 2.193-3.004.244 1.107.643 2.085.367 3.625.75-1.058 1.855-2.278 1.425-2.792.763.816.59 1.632.719 2.447.762-.705 1.163-2.74.733-3.503" fill="#fff" stroke="#000" stroke-width=".29023664"/><path d="M26.205 17.854c-2.003-.998-3.287-1.798-3.958-2.697l-.391.826 1.174.675 1.979.87z" opacity=".2" stroke="#000" stroke-width=".26468764"/><path d="M24.815 13.708l-1.69.877c-1.735.816-2.732 5.499-1.564 8.415-3.342-1.31-5.491-5.485-5.736-8.248M13.36 16.745c.049.859-.365 1.786-.317 2.645-1.089 1.486-2.463 1.805-3.672 3.098 2.332.881 3.211.67 5.318-.16.597-.65.448-.707.76-1.55l.178-1.488" fill="#fff" stroke="#000" stroke-width=".29023664"/><path d="M11.908 14.829c-1.132 2.934-2.762 4.086-5.55 5.15 3.614 1.881 5.8 1.165 7.567-2.338M21.57 9.046c-.122-2.031-.481-4.072-1.211-5.824-2.168 3.852-5.378.882-7.343-1.859-.341-.25-.956-1.02-.8-.145.24 4.962 1.054 5.373-3.977 4.695l-1.7-.624c.189 2.28 2.285 5.53-1.228 3.848-.789-.444-.482.164-.275.677 1.967 2.57 3.632 4.086 6.872 5.015" fill="#fff" stroke="#000" stroke-width=".29023664"/><path d="M11.908 14.829c.535-.643.912-1.452 1.551-1.986 1.116-.684 2.143-1.542 3.42-1.913 1.17-.527 2.402-.853 3.653-1.115.774.025 1.554.264 2.33.371-.484-.653-.808-.488-1.292-1.14-1.667.173-3.267.35-4.892.762-.635.081-1.684.421-2.171.842-.715.485-1.497 1.192-1.97 1.94-.724.852-.722.86-1.213 1.872.338.206.245.161.584.367z" stroke="#000" stroke-width=".29023664"/><path d="M21.561 23c-2.687-3.866-4.3-6.346-5.473-10.721-.45.734-.23 1.635-.263 2.473l1.027 3.785 2.452 2.995zM6.358 19.98c2.522-.432 5.045-.632 7.567-2.339l-.355.821-1.674 1.719-1.24.739-1.979-.044zM9.37 22.488c3.207-.175 3.186-.576 5.374-2.764l.762-1.088.043 1.48-.304 1.587-.556.625-1.967.658-1.718-.044z" opacity=".2" stroke="#000" stroke-width=".26468764"/><path d="M15.627 19.29c.943 1.781 2.82 2.205 4.337 3.152l-.022.718-.762 1.527-.021-1.266-.698-1.181-.097.895-.923 1.351-.348.11.065-1.001-.489-2.188-.033.948-.543.914-1.617 1.142.116-1.142.097-.94.664-1.083zM32.75 16.31c-4.384.21-4.957.202-7.935-2.602l-1.69.877 1.123.55 2.131 1.61 1.74.76h1.74l2.109-.5 1.265-.58z" opacity=".2" stroke="#000" stroke-width=".26468764"/><path d="M21.464 17.723l.848.761.871 1.149-.248-.986-.557-1.794-.522-.87-.218.566-.37 1.065z" opacity=".2"/><path d="M13.016 1.363c.639 2.554 2.771 5.74 4.474 8.235-3.667-3.327-4.164-3.885-5.274-8.38h0l.123-.313zM6.54 5.29c.468 1.3.696 2.617.86 3.978l4.936 3.751c-2.204-2.196-4.756-4.952-5.797-7.73zM5.31 9.137c1.793 1.922 3.608 3.827 6.014 5.325l-.857-.166-2.277-1.297-1.55-1.422-1.604-1.763-.14-.717zM16.434 4.687l1.134.383c.397.113.769-.001 1.135-.163.427-.207 1.139-.434 1.07-.847l-.336 5.441-.864-.12-1.822-4.079z" opacity=".2" stroke="#000" stroke-width=".26468764"/></svg>