<svg xmlns="http://www.w3.org/2000/svg" width="150" height="150" viewBox="0 0 39.687 39.688"><g stroke="#000" stroke-width=".265"><path d="M16.625 18.51c.5.098 1.021.485 1.53.2.525-.398.948-1.057 1.67-1.097.567.03 1.093.55 1.671.277.62-.253.853-1.07 1.558-1.166.495-.208 1.082.467 1.49.007.529-.34 1.15.251 1.055.81.023.612.722.646.984 1.086.207.439.801.38 1.048.02.374-.515.317-1.28-.114-1.747-.471-.536-.773-1.184-1.112-1.804-.24-.427-.643-.774-1.145-.819-.814-.138-1.644-.057-2.463-.111a7.022 7.022 0 00-2.675.503c-.666.182-1.319.512-1.724 1.09-.478.55-1.005 1.066-1.347 1.717-.156.315-.402.615-.43.975l.004.06z" opacity=".3"/><path d="M21.424 9.728c-.181.207.577-.276-.231-.523-1.198-.367-1.963.424-3.14-.082-1.355-.584-1.382 1.371-2.83 1.058-1.086-.235-1.24 1.142-2.026 1.431-.581.214-1.734.111-1.8.943-.098 1.256-1.386 1.23-1.789 2.018-.532 1.041-1.832 1.303-1.81 2.266.034 1.446-1.595 1.048-1.585 2.143.01.986-.302 1.314-1.169 1.924-.845.594.585 1.528-.421 2.378-.963.813-.22 1.505.647 2.082.53.352-.39 1.667.871 1.326 1.075-.291.898 1.534 1.897 1.292 1.226-.297.998 1.424 1.565 1.394.325-.017.784.571 1.205.817.438.255 1.035-.54 1.485-.233.895.61 1.526 1.801 1.912 1.209.447-.686 2.228-.318 1.723-1.456-.425-.957-.734-1.856.436-2.282.943-.344-.394-1.932.385-2.4.652-.39.307-1.38.228-2.035-.144-1.197 1.482-1.213 1.13-2.667-.411-1.708 1.748-.515 1.69-2.318-.06-1.877.925-.67 1.5-1.514.48-.707.83-1.575 1.927-1.288.418.11.514.798 1.157.043.58-.683 1.186.063 1.5.985.258.761 1.673.692 1.156 1.757-.51 1.052 1.508 1.138 1.256 2.14-.175.688-.602 1.35.287 1.716.735.303-.071 2.537 1.452 1.913.817-.334 1.607 1.606 2.037.537.419-1.04 1.556-1.61.693-2.504-.816-.846-1.417-1.733-.912-2.776.568-1.172-.929-1.181-1.078-1.993-.146-.79.112-1.53-.136-2.246-.22-.64-1.216-.474-1.67-.943-.618-.637-.019-2.394-1.267-2.275-1.388.134-.765-2.164-2.188-2.134-.718.016-.803.378-1.559-.262-.82-.693-1.764-.31-2.528.56z" fill="#fff"/><path d="M16.512 23.886c.12-.608.443-1.215.212-1.844-.161-.765.652-1.077.912-1.662.408-.783-.525-1.4-1.227-1.343-.855.131-3.095-.317-3.409-1.055-.504-.75.09-1.924-.798-2.47-.765-.425-.66-1.454-1.092-2.113-.662.139-1.15.84-1.582 1.348-.372.573-.953.934-1.431 1.397-.527.566.061 1.652-.967 1.855-.992.189-1.131 1.118-1.124 1.955-.326.568-1.07.962-1.027 1.71.106.744.433 1.7-.443 2.098-.443.7.31.973.835 1.128.816.288-.034 1.737 1.062 1.44.832-.366 1.203.458 1.66.942.559.09 1.509-.447 1.672.487-.107.756 2.064 1.063 2.76.983.328.469 1.069 1.083 1.409.251.456-.153 1.555.32 1.23-.64-.322-.48-.775-1.357.059-1.602.872-.197.694-1.191.472-1.82-.194-.66.542-.731.817-1.045z" opacity=".1"/><path d="M8.313 15.854c-.44 1.262-1.45 2.244-1.93 3.286-.153 1.582-1.93 2.188-1.389 3.855-1.503 1.218.51 1.912.941 2.975-.17.813 1.748.125 1.772 1.413 1.023.072 1.962.38 2.087 1.49 1.077.685 3.818 2.126 4.877 1.302 2.265.04-.543-2.613 1.34-3.383-.018-1.21-.012-2.396.232-3.536-.592-1.21-4.233-.172-4.101-2.111.341-1.473-.797-1.58-1.872-1.473-1.31-1.397 1.278-3.157-.685-4.425-.416-.726-.764.582-1.272.607z" opacity=".2"/><path d="M13.711 18.553c-.824-.165-.916-1.655.132-1.276.778.416 1.32-.117 1.648-.754.84-.65.893.662.093.756-.713.35-.19 1.701-1.349 1.426-.183-.012-.383-.016-.524-.152zM12.683 12.512c-.795.14-.833 1.246-.13 1.544-.015.729.629 1.726 1.372.991.587-.853-.666-1.071-.917-1.699-.252-.396.289-.804-.325-.836zM28.708 21.51c-.314-1.008.804-1.342 1.514-1.508.342-.376.3-2.048.823-.926.021.733-.823 1.482-.232 2.15.794.457.183 1.285.631 1.913.812.23.402 1.58-.344 1.012-.273-.974-1.584.068-1.855-.82-.152-.613-.035-1.342-.537-1.821z" opacity=".3"/><path d="M21.038 11.183c-.69-.237-1.806-.45-2.138.418-.103.375-.247.836-.732.782M18.767 13.669a.815.815 0 00-.824.129c-.403.319-.59.851-1.046 1.11a.724.724 0 01-.4.089M11.955 16.24c-1.252-.266-1.673 1.083-1.526 1.995l-.145.061M12.64 19.496c-.248.18-.32.495-.437.76-.029.127.07.264-.006.385-.126.301.013.633.183.887.088.132.191.255.303.367M29.308 20.224c.229-.072.528-.053.677-.275a1.45 1.45 0 00.3-.403c.056-.155.04-.335.148-.47.075-.188.042-.397.054-.595a1.087 1.087 0 00-.065-.4M25.966 13.583c.813-.182 1.464.528 1.705 1.23.066.136.184.278.352.27M8.784 22.024c-1.188.392.122 2.06-.986 2.57M11.826 24.809c-.803.812-.41 2.17-.728 3" fill="none"/></g></svg>